
<svg width="1148" height="75" viewBox="0 0 1148 75" fill="none" xmlns="http://www.w3.org/2000/svg">
<path d="M289 39L22.6719 39C13.0069 39 5.17189 46.835 5.17188 56.5L5.17188 69.625" stroke="white" style="stroke:white;stroke-opacity:1;" stroke-width="1.09375" stroke-linecap="round" stroke-dasharray="0.01 2.73"/>
<path d="M0.796875 69.625L5.17187 74L9.54688 69.625" stroke="white" style="stroke:white;stroke-opacity:1;" stroke-width="1.09375" stroke-linecap="round" stroke-linejoin="round"/>
<path d="M574 9.46875V21.5C574 31.165 566.165 39 556.5 39L289.078 39" stroke="white" style="stroke:white;stroke-opacity:1;" stroke-width="1.09375" stroke-linecap="round" stroke-dasharray="0.01 2.73"/>
<circle cx="574" cy="4" r="3.28125" transform="rotate(90 574 4)" fill="white" style="fill:white;fill-opacity:1;"/>
<path d="M402 39L248.328 39C238.663 39 230.828 46.835 230.828 56.5L230.828 69.625" stroke="white" style="stroke:white;stroke-opacity:1;" stroke-width="1.09375" stroke-linecap="round" stroke-dasharray="0.01 2.73"/>
<path d="M226.453 69.625L230.828 74L235.203 69.625" stroke="white" style="stroke:white;stroke-opacity:1;" stroke-width="1.09375" stroke-linecap="round" stroke-linejoin="round"/>
<path d="M574 9.46875V21.5C574 31.165 566.165 39 556.5 39L401.734 39" stroke="white" style="stroke:white;stroke-opacity:1;" stroke-width="1.09375" stroke-linecap="round" stroke-dasharray="0.01 2.73"/>
<circle cx="574" cy="4" r="3.28125" transform="rotate(90 574 4)" fill="white" style="fill:white;fill-opacity:1;"/>
<path d="M516 39L474.437 39C464.773 39 456.937 46.835 456.937 56.5L456.937 69.625" stroke="white" style="stroke:white;stroke-opacity:1;" stroke-width="1.09375" stroke-linecap="round" stroke-dasharray="0.01 2.73"/>
<path d="M452.562 69.625L456.937 74L461.312 69.625" stroke="white" style="stroke:white;stroke-opacity:1;" stroke-width="1.09375" stroke-linecap="round" stroke-linejoin="round"/>
<path d="M574 9.46875V21.5C574 31.165 566.165 39 556.5 39L516.031 39" stroke="white" style="stroke:white;stroke-opacity:1;" stroke-width="1.09375" stroke-linecap="round" stroke-dasharray="0.01 2.73"/>
<circle cx="574" cy="4" r="3.28125" transform="rotate(90 574 4)" fill="white" style="fill:white;fill-opacity:1;"/>
<path d="M859 39L1125.33 39C1134.99 39 1142.83 46.835 1142.83 56.5L1142.83 69.625" stroke="white" style="stroke:white;stroke-opacity:1;" stroke-width="1.09375" stroke-linecap="round" stroke-dasharray="0.01 2.73"/>
<path d="M1147.2 69.625L1142.83 74L1138.45 69.625" stroke="white" style="stroke:white;stroke-opacity:1;" stroke-width="1.09375" stroke-linecap="round" stroke-linejoin="round"/>
<path d="M574 9.46875V21.5C574 31.165 581.835 39 591.5 39L858.922 39" stroke="white" style="stroke:white;stroke-opacity:1;" stroke-width="1.09375" stroke-linecap="round" stroke-dasharray="0.01 2.73"/>
<circle cx="3.28125" cy="3.28125" r="3.28125" transform="matrix(0 1 1 0 570.719 0.71875)" fill="white" style="fill:white;fill-opacity:1;"/>
<path d="M730 39L869.453 39C879.118 39 886.953 46.835 886.953 56.5L886.953 69.625" stroke="white" style="stroke:white;stroke-opacity:1;" stroke-width="1.09375" stroke-linecap="round" stroke-dasharray="0.01 2.73"/>
<path d="M891.328 69.625L886.953 74L882.578 69.625" stroke="white" style="stroke:white;stroke-opacity:1;" stroke-width="1.09375" stroke-linecap="round" stroke-linejoin="round"/>
<path d="M574 9.46875V21.5C574 31.165 581.835 39 591.5 39L729.859 39" stroke="white" style="stroke:white;stroke-opacity:1;" stroke-width="1.09375" stroke-linecap="round" stroke-dasharray="0.01 2.73"/>
<circle cx="3.28125" cy="3.28125" r="3.28125" transform="matrix(0 1 1 0 570.719 0.71875)" fill="white" style="fill:white;fill-opacity:1;"/>
<path d="M632 39L673.563 39C683.227 39 691.063 46.835 691.063 56.5L691.063 69.625" stroke="white" style="stroke:white;stroke-opacity:1;" stroke-width="1.09375" stroke-linecap="round" stroke-dasharray="0.01 2.73"/>
<path d="M695.438 69.625L691.063 74L686.688 69.625" stroke="white" style="stroke:white;stroke-opacity:1;" stroke-width="1.09375" stroke-linecap="round" stroke-linejoin="round"/>
<path d="M574 9.46875V21.5C574 31.165 581.835 39 591.5 39L631.969 39" stroke="white" style="stroke:white;stroke-opacity:1;" stroke-width="1.09375" stroke-linecap="round" stroke-dasharray="0.01 2.73"/>
<circle cx="3.28125" cy="3.28125" r="3.28125" transform="matrix(0 1 1 0 570.719 0.71875)" fill="white" style="fill:white;fill-opacity:1;"/>
</svg>