<svg width="490" height="140" viewBox="0 0 490 140" fill="none" xmlns="http://www.w3.org/2000/svg">
<g clip-path="url(#clip0_667_6865)">
<path d="M150.055 62.1243V11.7943H191.007C192.734 11.7943 194.298 12.2377 195.698 13.1243C197.144 13.9643 198.288 15.1077 199.128 16.5543C200.014 17.9543 200.458 19.5177 200.458 21.2443V35.1043C200.458 36.7843 200.014 38.3477 199.128 39.7943C198.288 41.2409 197.144 42.3843 195.698 43.2243C194.298 44.0643 192.734 44.4843 191.007 44.4843L158.455 44.5543V62.1243H150.055ZM159.715 36.0143H190.727C191.054 36.0143 191.334 35.8977 191.567 35.6643C191.847 35.4309 191.987 35.1277 191.987 34.7543V21.4543C191.987 21.1277 191.847 20.8477 191.567 20.6143C191.334 20.3343 191.054 20.1943 190.727 20.1943H159.715C159.389 20.1943 159.085 20.3343 158.805 20.6143C158.572 20.8477 158.455 21.1277 158.455 21.4543V34.7543C158.455 35.1277 158.572 35.4309 158.805 35.6643C159.085 35.8977 159.389 36.0143 159.715 36.0143ZM204.869 62.1243V11.7243H213.2V62.1243H204.869ZM219.701 62.1243V60.1643L239.163 36.9243L219.701 13.6843V11.7243H229.082L244.763 30.2743L260.374 11.7243H269.755V13.6843L250.223 36.9243L269.755 60.0943V62.1243H260.374L244.693 43.5743L229.082 62.1243H219.701ZM277.352 62.1243V11.7243H323.625V20.1943H285.822V32.7243H316.274V41.1243H285.822V53.6543H323.625V62.1243H277.352ZM330.879 62.1243V11.6543H339.28V53.6543H381.282V62.1243H330.879ZM159.505 132.124C157.779 132.124 156.191 131.704 154.745 130.864C153.299 130.024 152.155 128.881 151.315 127.434C150.475 125.988 150.055 124.401 150.055 122.674V91.1743C150.055 89.4479 150.475 87.8607 151.315 86.4143C152.155 84.9677 153.299 83.8243 154.745 82.9843C156.191 82.1443 157.779 81.7243 159.505 81.7243H200.318V90.1943H160.975C160.229 90.1943 159.622 90.4279 159.155 90.8943C158.689 91.3143 158.455 91.8979 158.455 92.6443V121.204C158.455 121.951 158.689 122.558 159.155 123.024C159.622 123.444 160.229 123.654 160.975 123.654H200.318V132.124H159.505ZM216.927 132.124C215.201 132.124 213.614 131.704 212.167 130.864C210.721 130.024 209.577 128.881 208.737 127.434C207.897 125.988 207.477 124.401 207.477 122.674V91.1743C207.477 89.4479 207.897 87.8607 208.737 86.4143C209.577 84.9677 210.721 83.8243 212.167 82.9843C213.614 82.1443 215.201 81.7243 216.927 81.7243H248.429C250.157 81.7243 251.72 82.1443 253.12 82.9843C254.567 83.8243 255.71 84.9677 256.55 86.4143C257.437 87.8607 257.88 89.4479 257.88 91.1743V122.674C257.88 124.401 257.437 125.988 256.55 127.434C255.71 128.881 254.567 130.024 253.12 130.864C251.72 131.704 250.157 132.124 248.429 132.124H216.927ZM217.137 123.654H248.149C248.477 123.654 248.757 123.538 248.989 123.304C249.269 123.071 249.409 122.768 249.409 122.394V91.4543C249.409 91.0807 249.269 90.7779 248.989 90.5443C248.757 90.3107 248.477 90.1943 248.149 90.1943H217.137C216.811 90.1943 216.507 90.3107 216.227 90.5443C215.995 90.7779 215.877 91.0807 215.877 91.4543V122.394C215.877 122.768 215.995 123.071 216.227 123.304C216.507 123.538 216.811 123.654 217.137 123.654ZM274.9 132.124C273.173 132.124 271.587 131.704 270.14 130.864C268.693 130.024 267.549 128.881 266.709 127.434C265.869 125.988 265.449 124.401 265.449 122.674V81.7243H273.85V122.394C273.85 122.768 273.967 123.071 274.2 123.304C274.48 123.538 274.783 123.654 275.11 123.654H306.122C306.449 123.654 306.729 123.538 306.962 123.304C307.242 123.071 307.382 122.768 307.382 122.394V81.7243H315.853V122.674C315.853 124.401 315.41 125.988 314.522 127.434C313.682 128.881 312.54 130.024 311.092 130.864C309.692 131.704 308.129 132.124 306.402 132.124H274.9ZM364.304 132.124L348.833 113.644H359.824L373.755 130.164V132.124H364.304ZM323.562 132.124V81.7943H364.514C366.242 81.7943 367.805 82.2377 369.205 83.1243C370.652 83.9643 371.795 85.1077 372.635 86.5543C373.522 87.9543 373.965 89.5179 373.965 91.2443V105.104C373.965 106.784 373.522 108.348 372.635 109.794C371.795 111.241 370.652 112.384 369.205 113.224C367.805 114.064 366.242 114.484 364.514 114.484L331.962 114.554V132.124H323.562ZM333.222 106.014H364.234C364.562 106.014 364.842 105.898 365.074 105.664C365.354 105.431 365.494 105.128 365.494 104.754V91.4543C365.494 91.1279 365.354 90.8479 365.074 90.6143C364.842 90.3343 364.562 90.1943 364.234 90.1943H333.222C332.896 90.1943 332.592 90.3343 332.312 90.6143C332.08 90.8479 331.962 91.1279 331.962 91.4543V104.754C331.962 105.128 332.08 105.431 332.312 105.664C332.592 105.898 332.896 106.014 333.222 106.014ZM390.5 132.124C388.774 132.124 387.186 131.704 385.74 130.864C384.34 130.024 383.22 128.881 382.38 127.434C381.54 125.988 381.119 124.401 381.119 122.674V119.314H389.52V122.394C389.52 122.768 389.636 123.071 389.87 123.304C390.104 123.538 390.406 123.654 390.78 123.654H421.722C422.096 123.654 422.399 123.538 422.632 123.304C422.912 123.071 423.052 122.768 423.052 122.394V112.384C423.052 112.058 422.912 111.778 422.632 111.544C422.399 111.264 422.096 111.124 421.722 111.124H390.5C388.774 111.124 387.186 110.704 385.74 109.864C384.34 109.024 383.22 107.904 382.38 106.504C381.54 105.058 381.119 103.471 381.119 101.744V91.1743C381.119 89.4479 381.54 87.8607 382.38 86.4143C383.22 84.9677 384.34 83.8243 385.74 82.9843C387.186 82.1443 388.774 81.7243 390.5 81.7243H422.072C423.799 81.7243 425.362 82.1443 426.762 82.9843C428.209 83.8243 429.353 84.9677 430.193 86.4143C431.079 87.8607 431.523 89.4479 431.523 91.1743V94.5343H423.052V91.4543C423.052 91.0807 422.912 90.7779 422.632 90.5443C422.399 90.3107 422.096 90.1943 421.722 90.1943H390.78C390.406 90.1943 390.104 90.3107 389.87 90.5443C389.636 90.7779 389.52 91.0807 389.52 91.4543V101.464C389.52 101.791 389.636 102.094 389.87 102.374C390.104 102.608 390.406 102.724 390.78 102.724H422.072C423.799 102.724 425.362 103.144 426.762 103.984C428.209 104.824 429.353 105.968 430.193 107.414C431.079 108.814 431.523 110.378 431.523 112.104V122.674C431.523 124.401 431.079 125.988 430.193 127.434C429.353 128.881 428.209 130.024 426.762 130.864C425.362 131.704 423.799 132.124 422.072 132.124H390.5ZM439.237 132.124V81.7243H485.51V90.1943H447.708V102.724H478.16V111.124H447.708V123.654H485.51V132.124H439.237Z" fill="white" style="fill:white;fill-opacity:1;"/>
<path d="M131.258 6.125H0V137.375H131.258V6.125Z" fill="white" style="fill:white;fill-opacity:1;"/>
<path d="M26.252 35.4715L56.8728 72.1875L65.5745 82.6936L90.2475 112H105.007V108.793L74.276 72.1875L65.6845 61.6815L41.0116 32.375H26.252V35.4715Z" fill="black" style="fill:black;fill-opacity:1;"/>
<path d="M105.007 35.4716L80.6714 64.5464L71.9883 54.1604L90.2474 32.375H105.007V35.4716Z" fill="black" style="fill:black;fill-opacity:1;"/>
<path d="M26.252 108.904L50.8075 79.4609L59.535 89.8999L41.0116 112.001H26.252V108.904Z" fill="#212121" style="fill:#212121;fill:color(display-p3 0.1292 0.1292 0.1292);fill-opacity:1;"/>
</g>
<defs>
<clipPath id="clip0_667_6865">
<rect width="489.157" height="140" fill="white" style="fill:white;fill-opacity:1;"/>
</clipPath>
</defs>
</svg>
