<svg width="160" height="73" viewBox="0 0 160 73" fill="none" xmlns="http://www.w3.org/2000/svg"><path d="M41.188.696H38.02v41.6h3.168V.696z" fill="#6F6F6F"/><path d="M31.684 8.866c0 1.862-1.542 3.37-3.444 3.37s-3.444-1.508-3.444-3.37c0-1.86 1.542-3.37 3.444-3.37s3.444 1.51 3.444 3.37z" fill="#6F6F6F"/><path fill-rule="evenodd" clip-rule="evenodd" d="M27.55 35.593v11.075c0 6.7-5.55 12.132-12.397 12.132S2.755 53.37 2.755 46.668H0c0 8.19 6.784 14.828 15.153 14.828 8.368 0 15.153-6.638 15.153-14.828V27.065c0-8.19-6.785-14.828-15.153-14.828C6.784 12.237 0 18.876 0 27.065c0 8.19 6.784 14.828 15.153 14.828 5.125 0 9.655-2.49 12.398-6.3zm0-8.528c0 6.7-5.55 12.132-12.397 12.132S2.755 33.766 2.755 27.065c0-6.7 5.55-12.132 12.398-12.132 6.847 0 12.398 5.432 12.398 12.132z" fill="#6F6F6F"/><path fill-rule="evenodd" clip-rule="evenodd" d="M83.96.696h3.169v17.07c2.753-3.572 7.05-5.87 11.88-5.87 8.312 0 15.05 6.806 15.05 15.2 0 8.395-6.738 15.2-15.05 15.2-4.83 0-9.128-2.297-11.881-5.869v5.87h-3.17V.696zm15.05 38.4c-6.562 0-11.881-5.372-11.881-12-.001-6.627 5.318-12 11.88-12 6.562 0 11.88 5.373 11.88 12 0 6.628-5.318 12-11.88 12z" fill="#6F6F6F"/><path d="M160 .696h-3.168v41.6H160V.696z" fill="#6F6F6F"/><path fill-rule="evenodd" clip-rule="evenodd" d="M145.743 11.896h3.168v30.4h-3.167v-5.869c-2.754 3.572-7.052 5.87-11.88 5.87-8.313 0-15.05-6.806-15.05-15.2 0-8.395 6.737-15.2 15.05-15.2 4.828 0 9.126 2.297 11.88 5.869v-5.87zm0 15.2c0-6.627-5.32-12-11.88-12-6.563 0-11.883 5.373-11.883 12 0 6.628 5.32 12 11.882 12 6.56 0 11.88-5.372 11.88-12z" fill="#6F6F6F"/><path fill-rule="evenodd" clip-rule="evenodd" d="M77.624 27.096c0 8.395-6.738 15.2-15.05 15.2-8.311 0-15.05-6.805-15.05-15.2 0-8.394 6.739-15.2 15.05-15.2 8.312 0 15.05 6.806 15.05 15.2zm-3.168 0c0 6.628-5.32 12-11.882 12-6.561 0-11.88-5.372-11.88-12 0-6.627 5.319-12 11.88-12 6.562 0 11.882 5.373 11.882 12z" fill="#6F6F6F"/><path d="M137.03 51.896H56.238c-5.687 0-10.298 4.657-10.298 10.4 0 5.744 4.61 10.4 10.298 10.4h80.792c5.686 0 10.297-4.656 10.297-10.4 0-5.743-4.61-10.4-10.297-10.4z" fill="#6F6F6F"/><path d="M69.5 66.296V58.4h1.154v6.9h3.87v.996H69.5zm9.1.101c-.746 0-1.393-.164-1.94-.493a3.405 3.405 0 0 1-1.275-1.41c-.296-.613-.444-1.33-.444-2.151.001-.83.15-1.546.445-2.15a3.33 3.33 0 0 1 1.275-1.4c.547-.33 1.194-.493 1.94-.493.74 0 1.383.164 1.93.492.555.329.98.796 1.276 1.4.303.605.454 1.318.454 2.14 0 .828-.151 1.549-.454 2.161a3.31 3.31 0 0 1-1.276 1.411c-.547.329-1.19.493-1.93.493zm0-1.008c.777 0 1.38-.266 1.808-.796.437-.538.655-1.288.655-2.251 0-.963-.215-1.71-.644-2.24-.43-.53-1.036-.796-1.82-.796-.775 0-1.382.266-1.818.796-.429.53-.643 1.277-.643 2.24 0 .963.213 1.713.642 2.25.436.53 1.043.796 1.819.796zm8.865 1.007c-.85 0-1.567-.16-2.15-.482a3.23 3.23 0 0 1-1.332-1.4c-.295-.604-.443-1.325-.443-2.161 0-.829.151-1.546.454-2.15a3.235 3.235 0 0 1 1.32-1.412c.577-.328 1.268-.493 2.074-.493a4.67 4.67 0 0 1 1.541.246c.472.164.868.4 1.186.705l-.41.909a3.425 3.425 0 0 0-1.087-.64 3.58 3.58 0 0 0-1.232-.201c-.865-.001-1.523.264-1.974.794-.451.523-.677 1.27-.677 2.24 0 .993.23 1.747.688 2.262.466.516 1.16.773 2.085.773.562 0 1.12-.094 1.674-.28v-2.118h-1.907v-.873h2.872v3.717a5.285 5.285 0 0 1-1.243.403 6.87 6.87 0 0 1-1.442.157zm4.452-.1V58.4h1.153v7.896h-1.153zm5.562.1a5.718 5.718 0 0 1-1.686-.235 3.91 3.91 0 0 1-1.298-.683l.366-.92c.37.284.765.497 1.187.639.42.14.897.212 1.43.212.628 0 1.09-.113 1.385-.337.304-.23.455-.53.455-.896 0-.3-.107-.534-.322-.706-.214-.18-.572-.321-1.075-.426l-1.187-.246c-.702-.15-1.227-.396-1.574-.74-.34-.343-.51-.806-.51-1.388 0-.47.121-.885.366-1.243a2.427 2.427 0 0 1 1.042-.828c.443-.202.953-.303 1.53-.303.532 0 1.024.082 1.475.246a3.09 3.09 0 0 1 1.164.694l-.378.885c-.628-.56-1.386-.84-2.273-.84-.548 0-.984.123-1.31.37a1.185 1.185 0 0 0-.476.985c0 .314.1.564.3.75.199.188.531.33.997.426l1.177.247c.739.157 1.29.4 1.652.728.36.322.542.759.542 1.311 0 .464-.122.867-.366 1.21-.244.344-.587.613-1.03.807-.445.187-.973.28-1.587.28zm6.036-.1v-6.922h-2.772V58.4h6.687v.975h-2.77v6.921h-1.144zm4.872 0V58.4h1.154v7.896h-1.154zm6.46.1c-.79 0-1.467-.164-2.03-.493a3.29 3.29 0 0 1-1.296-1.4c-.296-.612-.444-1.332-.444-2.161 0-.83.148-1.546.444-2.15a3.29 3.29 0 0 1 1.297-1.4c.56-.33 1.238-.493 2.03-.493a4.21 4.21 0 0 1 1.485.257c.465.165.854.403 1.164.717l-.4.93a3.297 3.297 0 0 0-1.054-.661 3.104 3.104 0 0 0-1.164-.213c-.843 0-1.486.261-1.93.784-.443.523-.665 1.266-.665 2.229 0 .963.222 1.71.666 2.24.443.522 1.086.784 1.93.784.42 0 .81-.067 1.163-.202a3.476 3.476 0 0 0 1.054-.672l.4.93c-.31.306-.7.545-1.165.717-.46.171-.954.257-1.486.257zm6.445 0a5.718 5.718 0 0 1-1.686-.235 3.91 3.91 0 0 1-1.297-.683l.366-.92c.37.284.765.497 1.186.639.422.14.9.212 1.43.212.63 0 1.09-.113 1.387-.337.302-.23.454-.53.454-.896 0-.3-.108-.534-.322-.706-.214-.18-.573-.321-1.076-.426l-1.186-.246c-.703-.15-1.227-.396-1.575-.74-.34-.343-.51-.806-.51-1.388 0-.47.122-.885.366-1.243.252-.358.6-.634 1.043-.828.444-.202.954-.303 1.53-.303a4.28 4.28 0 0 1 1.476.246 3.1 3.1 0 0 1 1.163.694l-.377.885c-.63-.56-1.386-.84-2.273-.84-.548 0-.984.123-1.31.37a1.184 1.184 0 0 0-.476.985c0 .314.1.564.3.75.2.188.532.33.998.426l1.175.247c.74.157 1.29.4 1.652.728.363.322.544.759.544 1.311 0 .464-.122.867-.366 1.21-.244.344-.588.613-1.03.807-.445.187-.974.28-1.587.28z" fill="#FEFEFE"/></svg>