<svg width="220" height="99" viewBox="0 0 220 99" fill="none" xmlns="http://www.w3.org/2000/svg"><path d="M56.634.2h-4.357v56.775h4.357V.2z" fill="#6F6F6F"/><path d="M43.565 11.35c0 2.54-2.12 4.6-4.735 4.6-2.615 0-4.735-2.06-4.735-4.6s2.12-4.6 4.735-4.6c2.615 0 4.735 2.06 4.735 4.6z" fill="#6F6F6F"/><path fill-rule="evenodd" clip-rule="evenodd" d="M37.882 47.826v15.116c0 9.145-7.632 16.559-17.047 16.559-9.415 0-17.047-7.413-17.047-16.558H0C0 74.12 9.328 83.18 20.835 83.18c11.507 0 20.835-9.06 20.835-20.238V36.187c0-11.177-9.328-20.237-20.835-20.237C9.328 15.95 0 25.01 0 36.187c0 11.178 9.328 20.238 20.835 20.238 7.047 0 13.276-3.398 17.047-8.599zm0-11.639c0 9.145-7.632 16.559-17.047 16.559-9.415 0-17.047-7.414-17.047-16.558 0-9.145 7.632-16.559 17.047-16.559 9.415 0 17.047 7.413 17.047 16.558z" fill="#6F6F6F"/><path fill-rule="evenodd" clip-rule="evenodd" d="M115.445.2h4.357v23.296c3.786-4.875 9.696-8.01 16.336-8.01 11.43 0 20.693 9.287 20.693 20.744 0 11.458-9.263 20.745-20.692 20.745-6.64 0-12.55-3.135-16.336-8.01v8.01h-4.357V.2zm20.693 52.408c-9.022 0-16.336-7.333-16.336-16.378s7.314-16.377 16.336-16.377c9.023 0 16.337 7.332 16.337 16.377 0 9.045-7.314 16.378-16.337 16.378z" fill="#6F6F6F"/><path d="M220 .2h-4.356v56.775H220V.2z" fill="#6F6F6F"/><path fill-rule="evenodd" clip-rule="evenodd" d="M200.396 15.485h4.356v41.49h-4.356v-8.01c-3.786 4.875-9.696 8.01-16.337 8.01-11.43 0-20.694-9.287-20.694-20.745 0-11.457 9.265-20.745 20.693-20.745 6.64 0 12.55 3.136 16.336 8.01v-8.01zm0 20.745c0-9.045-7.314-16.377-16.337-16.377s-16.337 7.332-16.337 16.377c0 9.045 7.314 16.378 16.336 16.378s16.336-7.333 16.336-16.378z" fill="#6F6F6F"/><path fill-rule="evenodd" clip-rule="evenodd" d="M106.733 36.23c0 11.458-9.265 20.745-20.693 20.745-11.429 0-20.693-9.287-20.693-20.745 0-11.457 9.264-20.745 20.693-20.745 11.428 0 20.693 9.288 20.693 20.745zm-4.357 0c0 9.045-7.314 16.378-16.336 16.378-9.023 0-16.337-7.333-16.337-16.378s7.314-16.377 16.337-16.377c9.022 0 16.336 7.332 16.336 16.377z" fill="#6F6F6F"/><path d="M188.415 70.078H77.326c-7.82 0-14.158 6.355-14.158 14.194 0 7.84 6.339 14.194 14.158 14.194h111.09c7.82 0 14.158-6.355 14.158-14.194 0-7.84-6.34-14.194-14.16-14.194z" fill="#6F6F6F"/><path d="M95.563 89.73V78.955h1.586v9.416h5.32v1.36h-6.907zm12.513.138c-1.026 0-1.916-.224-2.668-.672a4.655 4.655 0 0 1-1.753-1.926c-.407-.836-.61-1.814-.61-2.935 0-1.131.203-2.11.61-2.935.416-.825 1-1.462 1.753-1.91.752-.45 1.642-.673 2.668-.673 1.017 0 1.9.224 2.654.672a4.436 4.436 0 0 1 1.753 1.91c.417.825.625 1.799.625 2.92 0 1.13-.208 2.114-.625 2.95a4.533 4.533 0 0 1-1.753 1.926c-.753.448-1.637.672-2.654.672zm0-1.375c1.068 0 1.896-.362 2.486-1.086.6-.733.9-1.757.9-3.072s-.296-2.334-.885-3.057c-.59-.724-1.423-1.086-2.5-1.086-1.068 0-1.9.362-2.5 1.086-.59.723-.885 1.742-.885 3.057 0 1.314.294 2.339.884 3.072.6.724 1.433 1.086 2.5 1.086zm12.19 1.375c-1.17 0-2.156-.219-2.96-.657a4.425 4.425 0 0 1-1.83-1.91c-.405-.825-.61-1.808-.61-2.95 0-1.13.21-2.11.627-2.935a4.422 4.422 0 0 1 1.814-1.926c.793-.45 1.743-.673 2.85-.673.764 0 1.47.112 2.12.336.65.224 1.195.545 1.632.963l-.565 1.238c-.488-.407-.986-.698-1.494-.871a4.955 4.955 0 0 0-1.692-.275c-1.19 0-2.094.362-2.714 1.085-.62.713-.93 1.732-.93 3.057 0 1.356.315 2.385.946 3.088.64.703 1.596 1.055 2.866 1.055.773 0 1.54-.128 2.302-.382v-2.889h-2.622v-1.19h3.95v5.074c-.458.224-1.028.408-1.71.55-.67.143-1.33.214-1.98.214zm6.12-.137V78.955h1.586v10.777h-1.586zm7.648.138a7.913 7.913 0 0 1-2.317-.32c-.702-.225-1.296-.536-1.784-.933l.503-1.253a5.62 5.62 0 0 0 1.63.87c.58.194 1.236.291 1.968.291.864 0 1.5-.153 1.906-.458.417-.316.625-.724.625-1.223 0-.408-.147-.729-.442-.963-.295-.246-.787-.44-1.48-.582l-1.63-.336c-.966-.204-1.688-.54-2.165-1.01-.468-.468-.702-1.1-.702-1.895 0-.642.168-1.207.503-1.696.345-.489.823-.866 1.433-1.13.61-.276 1.31-.413 2.104-.413a5.92 5.92 0 0 1 2.028.336c.63.214 1.164.53 1.6.948l-.518 1.208c-.864-.764-1.906-1.146-3.125-1.146-.753 0-1.352.168-1.8.504-.437.337-.655.785-.655 1.345 0 .43.137.77.41 1.026.276.254.733.448 1.374.58l1.617.337c1.016.214 1.774.545 2.272.993.497.439.746 1.035.746 1.789 0 .632-.168 1.182-.503 1.65-.336.47-.808.836-1.418 1.101-.61.255-1.337.382-2.18.382zm8.3-.137v-9.446h-3.81v-1.33h9.194v1.33h-3.812v9.447h-1.57zm6.7 0V78.955h1.586v10.777h-1.586zm8.883.138c-1.087 0-2.017-.224-2.79-.672a4.498 4.498 0 0 1-1.784-1.91c-.407-.837-.61-1.82-.61-2.951 0-1.131.203-2.11.61-2.935a4.498 4.498 0 0 1 1.784-1.91c.773-.45 1.703-.673 2.79-.673.732 0 1.413.117 2.044.351.64.225 1.175.55 1.602.979l-.55 1.268c-.467-.417-.95-.718-1.448-.902a4.3 4.3 0 0 0-1.6-.29c-1.16 0-2.044.357-2.654 1.07-.61.713-.915 1.727-.915 3.042 0 1.314.305 2.334.915 3.057.61.714 1.494 1.07 2.653 1.07.58 0 1.113-.092 1.6-.275.5-.194.982-.5 1.45-.917l.55 1.269c-.428.416-.962.743-1.602.977a5.825 5.825 0 0 1-2.043.351zm8.86 0a7.92 7.92 0 0 1-2.317-.32c-.7-.225-1.296-.536-1.784-.933l.503-1.253a5.64 5.64 0 0 0 1.63.87c.58.194 1.236.291 1.968.291.864 0 1.5-.153 1.906-.458.417-.316.625-.724.625-1.223 0-.408-.148-.729-.443-.963-.295-.246-.788-.44-1.48-.582l-1.63-.336c-.967-.204-1.688-.54-2.166-1.01-.466-.468-.7-1.1-.7-1.895 0-.642.168-1.207.503-1.696.345-.489.823-.866 1.433-1.13.61-.276 1.312-.413 2.104-.413a5.92 5.92 0 0 1 2.028.336c.63.214 1.164.53 1.6.948l-.517 1.208c-.863-.764-1.905-1.146-3.125-1.146-.752 0-1.352.168-1.8.504-.436.337-.655.785-.655 1.345 0 .43.138.77.412 1.026.274.254.732.448 1.372.58l1.616.337c1.017.214 1.774.545 2.272.993.498.439.748 1.035.748 1.789 0 .632-.168 1.182-.504 1.65-.335.47-.808.836-1.418 1.101-.61.255-1.336.382-2.18.382z" fill="#FEFEFE"/></svg>