<svg width="1920" height="805" viewBox="0 0 1920 805" fill="none" xmlns="http://www.w3.org/2000/svg">
<path fill-rule="evenodd" clip-rule="evenodd" d="M1920 279H1892.5V216H1858.5V266H1845.5V252H1831.5V143.5L1810.5 134.5V91H1762.5V173L1745.5 178.5V142.5H1700.5V232.5H1685.5V73.5L1664.5 64.5V30.5H1574V198.5L1562 183V165H1512.5V214L1489.5 229V125H1426V217L1406 232.5V191.5H1380.5V42H1317.5V57H1304.5V166H1275.5V180L1265.5 182V201.5L1247.5 171V0L1181.5 17V35H1159.5V208H1140.5V106H1130.5V95H1108.5L1077.5 118.5V246L1055.5 241V203H997.5V235L967.5 251V225.5L923.5 238.5V267L906 272C899.303 270.697 888.027 268.887 877.492 268.027C877.313 266.703 877.208 265.366 877.167 264.019C877.065 260.788 877.305 257.558 877.759 254.364C877.943 253.061 878.151 251.764 878.396 250.474C878.77 248.504 879.227 246.552 879.813 244.622C879.969 244.121 880.095 243.603 880.221 243.084C880.331 242.634 880.441 242.184 880.569 241.744C880.997 240.271 881.488 238.825 881.979 237.383C882.141 236.91 882.302 236.438 882.46 235.964C882.832 234.837 883.241 233.727 883.672 232.626C884.134 231.447 884.619 230.279 885.107 229.111C885.41 228.417 885.75 228.367 886.242 228.973C887.137 230.07 887.843 231.295 888.158 232.683C888.863 235.699 888.347 238.552 886.872 241.252C886.759 241.467 886.557 241.656 886.582 241.997C887.019 241.87 887.354 241.613 887.678 241.341C887.716 241.309 887.753 241.277 887.791 241.244C888.009 241.059 888.226 240.874 888.473 240.722C888.541 242.127 887.888 243.228 887.215 244.36L886.985 244.748C886.502 245.588 885.868 246.282 885.214 246.971C884.846 247.359 884.471 247.746 884.111 248.155C884.281 248.213 884.41 248.201 884.527 248.173C884.559 248.165 884.59 248.156 884.62 248.147C884.652 248.137 884.684 248.127 884.717 248.117C885.41 247.903 886.053 247.575 886.67 247.184C886.784 247.12 886.91 247.007 887.036 247.133C887.149 247.26 887.086 247.398 887.023 247.512C886.985 247.579 886.946 247.646 886.908 247.713C886.858 247.801 886.807 247.888 886.756 247.975C886.655 248.143 886.55 248.306 886.431 248.458C885.788 249.253 885.107 249.998 884.301 250.616C884.155 250.728 883.976 250.854 883.861 251.001C883.769 251.122 883.721 251.258 883.771 251.411C883.889 251.754 884.242 251.715 884.554 251.68C884.61 251.674 884.665 251.668 884.717 251.664C885.876 251.562 887.023 251.336 888.12 250.932C890.137 250.188 891.977 249.152 893.527 247.638C894.838 246.363 895.834 244.887 896.363 243.158C897.095 240.76 896.779 238.438 895.431 236.292C895.402 236.245 895.367 236.198 895.331 236.15C895.263 236.059 895.192 235.963 895.148 235.849C895.104 235.731 895.09 235.594 895.141 235.422C895.728 235.835 896.133 236.364 896.485 236.923C896.624 237.143 896.755 237.368 896.886 237.592C897.07 237.91 897.254 238.226 897.46 238.526C897.649 236.343 896.854 234.438 895.796 232.646C894.725 230.828 893.111 229.516 891.296 228.455C895.204 229.78 897.611 232.633 899.187 236.443C899.454 235.726 899.332 235.086 899.212 234.458C899.157 234.169 899.102 233.882 899.086 233.592C901.632 235.787 902.679 238.753 903.522 241.959C903.776 241.479 903.816 240.988 903.817 240.5C903.818 240.393 903.816 240.286 903.815 240.179C903.808 239.711 903.802 239.249 903.951 238.804C904.127 238.939 904.209 239.002 904.271 239.08C904.299 239.114 904.323 239.151 904.35 239.197C904.376 239.244 904.406 239.299 904.443 239.372C905.035 240.482 905.376 241.682 905.666 242.905C905.695 243.033 905.72 243.163 905.744 243.294C905.825 243.731 905.907 244.174 906.17 244.533C906.299 244.516 906.357 244.463 906.398 244.403C906.413 244.382 906.425 244.36 906.436 244.338L906.447 244.318C906.916 243.574 907.279 242.78 907.524 241.954C907.628 241.604 907.71 241.247 907.771 240.886C908.274 237.857 907.973 234.854 906.623 232.077C905.678 230.121 904.38 228.393 902.438 227.181C901.241 226.437 900.019 225.868 898.632 225.666L898.6 225.66L898.599 225.66C898.495 225.638 898.389 225.616 898.354 225.389C899.068 225.192 899.764 225.306 900.459 225.42L900.464 225.421C900.748 225.468 901.032 225.515 901.317 225.54C897.8 222.902 893.893 222.221 889.633 223.269C892.481 221.312 895.632 221.174 898.973 221.716C898.779 221.358 898.527 221.2 898.296 221.056C898.225 221.012 898.155 220.969 898.09 220.921C898.066 220.904 898.039 220.889 898.01 220.876C897.991 220.867 897.971 220.858 897.951 220.85C897.825 220.795 897.697 220.739 897.725 220.567C897.768 220.342 897.967 220.336 898.142 220.332L898.229 220.328C900.321 220.151 902.325 220.518 904.203 221.502L904.28 221.544L904.281 221.545C904.401 221.613 904.518 221.679 904.695 221.564C904.643 221.115 904.357 220.813 904.074 220.514C904.016 220.453 903.957 220.391 903.901 220.328C903.774 220.189 903.561 220.062 903.687 219.861C903.809 219.657 903.972 219.732 904.123 219.803C904.14 219.81 904.157 219.818 904.173 219.826C904.192 219.834 904.21 219.842 904.229 219.849C905.351 220.214 906.435 220.669 907.506 221.174C907.529 221.184 907.553 221.196 907.576 221.209C907.692 221.268 907.807 221.327 907.922 221.211C907.965 221.173 907.98 221.128 907.982 221.079C907.983 221.056 907.981 221.032 907.977 221.007C907.966 220.948 907.945 220.889 907.935 220.833C907.732 219.811 907.267 218.914 906.712 218.069C905.489 216.214 903.851 214.901 901.606 214.586C898.783 214.182 896.174 214.838 893.83 216.479C893.489 216.731 893.137 216.971 892.796 217.211L892.734 217.136L892.683 217.072C892.932 216.51 893.403 216.175 893.878 215.837L893.883 215.834C894.175 215.626 894.468 215.417 894.712 215.153C893.754 215.305 892.872 215.62 892.053 216.088C890.949 216.711 889.966 217.486 888.981 218.263L888.763 218.435C888.637 218.536 888.511 218.713 888.321 218.611C888.17 218.536 888.17 218.359 888.17 218.208C888.17 217.646 888.084 217.1 887.954 216.564C887.831 216.054 887.668 215.552 887.502 215.053L887.476 214.96L887.475 214.957C887.424 214.77 887.372 214.577 887.2 214.447C887.091 214.492 887.073 214.588 887.056 214.681L887.056 214.683L887.055 214.684C887.038 214.776 887.021 214.865 886.923 214.901C886.909 214.895 886.896 214.891 886.886 214.888C886.878 214.885 886.872 214.882 886.872 214.876C886.855 214.852 886.845 214.823 886.836 214.792L886.821 214.737C886.065 211.91 884.54 209.702 881.78 208.528C879.978 207.758 878.162 207.859 876.385 208.642C876.233 208.705 876.058 208.755 876.032 208.982C876.309 209.205 876.632 209.343 876.954 209.481C877.218 209.594 877.482 209.707 877.721 209.866C877.822 209.933 877.925 209.998 878.029 210.063C878.469 210.338 878.917 210.617 879.233 211.128C878.989 211.176 878.753 211.174 878.513 211.172C878.185 211.17 877.848 211.168 877.469 211.292C877.68 211.435 877.87 211.58 878.051 211.717C878.412 211.991 878.734 212.235 879.095 212.377C880.307 212.872 881.024 213.85 881.75 214.84C881.802 214.911 881.854 214.982 881.906 215.053C881.964 215.128 882.011 215.208 882.008 215.291C882.006 215.333 881.99 215.376 881.956 215.419C881.868 215.545 881.729 215.532 881.591 215.494C881.326 215.419 881.049 215.355 880.784 215.28C881.225 215.824 881.669 216.347 882.093 216.878C882.444 217.32 882.782 217.77 883.091 218.245C883.81 219.331 884.049 220.518 884.188 221.754L884.059 221.557C883.196 220.223 882.345 218.907 881.023 217.993C879.672 217.059 878.67 216.465 877.909 216.146C877.387 215.928 876.979 215.84 876.649 215.86C876.917 216.172 877.228 216.445 877.547 216.725C877.603 216.773 877.658 216.822 877.714 216.871C878.063 217.179 878.413 217.504 878.717 217.905C878.338 217.935 878.14 217.774 877.956 217.625C877.907 217.586 877.859 217.548 877.81 217.514C876.726 216.757 875.578 216.062 874.317 215.709C873.056 215.35 871.821 215.224 870.621 215.316C870.777 215.014 870.926 214.709 871.085 214.415C872.271 212.188 873.395 209.919 873.967 207.438C875.534 200.63 873.839 194.606 867.568 191.022L867.545 191.009C866.45 190.376 865.291 189.706 863.967 189.601C863.839 189.58 863.691 189.537 863.606 189.262C864.423 188.908 865.223 189.096 866.062 189.294L866.064 189.295C866.835 189.477 867.64 189.666 868.521 189.452C866.043 187.269 863.31 186.377 860.386 185.975C857.483 185.593 854.581 185.614 851.467 186.313C851.617 186.036 851.789 185.823 851.974 185.655C852.123 185.52 852.281 185.413 852.442 185.325C852.633 185.222 852.828 185.145 853.019 185.076C853.093 185.05 853.167 185.024 853.24 184.999C853.344 184.964 853.445 184.929 853.543 184.893C857.717 183.345 862.06 183.153 866.467 183.557C866.545 183.562 866.622 183.572 866.699 183.583C866.936 183.615 867.175 183.647 867.462 183.535C867.215 183.245 866.888 183.058 866.555 182.868L866.548 182.864C866.058 182.585 865.557 182.299 865.28 181.669C869.386 181.078 873.146 182.221 876.931 183.372L877.822 183.642C877.609 183.217 877.335 182.859 877.034 182.535C876.961 182.456 876.887 182.38 876.812 182.305C876.766 182.259 876.72 182.214 876.673 182.169C876.45 181.954 876.222 181.749 876 181.542C875.955 181.501 875.905 181.464 875.854 181.426C875.667 181.287 875.485 181.152 875.619 180.884C875.756 180.609 875.991 180.682 876.222 180.754C876.276 180.771 876.33 180.788 876.382 180.8C878.479 181.266 880.407 182.136 882.356 183.026C882.458 183.073 882.569 183.136 882.683 183.202C882.817 183.279 882.956 183.36 883.094 183.419C883.375 183.539 883.649 183.569 883.86 183.302C884.028 183.097 884.028 182.858 883.948 182.61C883.867 182.363 883.708 182.107 883.557 181.865L883.556 181.862L883.437 181.669C881.636 178.764 879.348 176.261 876.487 174.395C871.911 171.383 866.911 170.449 861.614 171.955C859.496 172.549 857.568 173.716 855.746 174.988C855.662 175.046 855.582 175.111 855.5 175.177C855.19 175.427 854.857 175.696 854.221 175.646C854.812 174.865 855.508 174.256 856.184 173.664C856.721 173.194 857.245 172.735 857.695 172.21C856.339 172.125 854.178 173.143 850.344 175.794C850.007 176.026 849.688 176.274 849.386 176.536C848.662 177.16 848.025 177.86 847.438 178.604C846.642 179.615 845.936 180.707 845.225 181.807L845.025 182.114C845.259 180.036 845.661 178.042 846.869 176.219C847.063 175.92 847.265 175.627 847.471 175.339C848.193 174.329 848.983 173.375 849.787 172.403C850.105 172.018 850.427 171.63 850.746 171.234C850.523 171.298 850.296 171.356 850.068 171.415C849.84 171.473 849.612 171.531 849.39 171.595C849.157 171.658 848.924 171.68 848.775 171.468C848.746 171.431 848.725 171.394 848.711 171.356C848.645 171.183 848.737 171.01 848.86 170.853C848.948 170.734 849.034 170.616 849.121 170.498C850.341 168.833 851.547 167.188 853.585 166.356C854.192 166.116 854.734 165.706 855.341 165.246L855.344 165.244C855.647 165.014 855.966 164.772 856.318 164.532C855.685 164.325 855.121 164.328 854.571 164.331H854.564C854.161 164.334 853.763 164.337 853.352 164.257C853.881 163.402 854.632 162.933 855.369 162.472C855.546 162.361 855.722 162.251 855.895 162.136C856.296 161.868 856.74 161.678 857.185 161.487L857.188 161.486C857.728 161.255 858.269 161.024 858.733 160.651C858.717 160.501 858.66 160.396 858.583 160.318C858.521 160.257 858.446 160.212 858.366 160.174C858.322 160.153 858.275 160.134 858.23 160.115C858.199 160.103 858.169 160.091 858.14 160.078C855.152 158.764 852.102 158.594 849.072 159.888C844.433 161.86 841.869 165.571 840.598 170.322L840.595 170.331C840.574 170.413 840.555 170.494 840.513 170.556C840.513 170.569 840.496 170.574 840.473 170.581C840.46 170.585 840.444 170.59 840.428 170.598C840.323 170.559 840.273 170.485 840.243 170.398C840.226 170.346 840.215 170.288 840.204 170.23C840.191 170.161 840.179 170.092 840.153 170.029C840.131 169.973 840.098 169.922 840.046 169.882C840.022 169.864 839.995 169.848 839.962 169.834C839.673 170.051 839.584 170.376 839.498 170.691C839.484 170.745 839.469 170.799 839.453 170.853C839.284 171.36 839.117 171.869 838.966 172.383C838.604 173.607 838.331 174.854 838.331 176.154C838.331 176.409 838.331 176.706 838.076 176.833C837.817 176.972 837.629 176.8 837.453 176.639C837.413 176.603 837.374 176.567 837.335 176.536L836.947 176.231C835.299 174.932 833.652 173.634 831.806 172.592C830.428 171.807 828.945 171.276 827.335 171.022C827.748 171.469 828.245 171.822 828.739 172.173C828.84 172.245 828.941 172.316 829.041 172.389C829.731 172.889 830.381 173.422 830.746 174.246C830.715 174.289 830.683 174.326 830.65 174.363L830.556 174.479L830.049 174.124L829.594 173.807C829.333 173.624 829.074 173.438 828.818 173.249C824.877 170.492 820.491 169.389 815.746 170.067C811.975 170.598 809.221 172.804 807.165 175.921C806.233 177.343 805.449 178.849 805.11 180.566L805.078 180.698L805.077 180.701C805.03 180.879 804.979 181.067 805.132 181.202C805.326 181.396 805.521 181.296 805.715 181.195L805.831 181.139C807.632 180.29 809.453 179.527 811.339 178.912L811.398 178.89L811.517 178.836C811.771 178.718 812.045 178.591 812.25 178.933C812.421 179.206 812.221 179.397 812.025 179.582C812.003 179.603 811.982 179.623 811.961 179.644C811.936 179.668 811.912 179.693 811.89 179.718L811.765 179.855L811.601 180.029L811.6 180.03C811.125 180.532 810.643 181.039 810.556 181.796C810.68 181.877 810.786 181.904 810.883 181.9C811.019 181.895 811.135 181.828 811.253 181.761C811.295 181.736 811.338 181.712 811.382 181.69C814.538 180.036 817.907 179.421 821.424 179.718L821.572 179.723C821.866 179.732 822.199 179.741 822.271 180.121C822.288 180.23 822.268 180.312 822.225 180.375C822.154 180.479 822.022 180.537 821.892 180.594C821.808 180.63 821.724 180.666 821.657 180.715C821.549 180.794 821.433 180.866 821.315 180.939C820.924 181.183 820.499 181.448 820.174 182.051C825.788 181.139 831.085 181.372 835.873 184.659C828.712 182.899 822.145 184.044 816.233 188.477C816.397 188.462 816.561 188.443 816.724 188.422C816.876 188.402 817.028 188.38 817.18 188.356C817.342 188.331 817.503 188.304 817.665 188.277C818.835 188.084 820.008 187.891 821.212 188.223C821.198 188.316 821.176 188.389 821.15 188.447C821.134 188.481 821.116 188.509 821.097 188.533C821.016 188.634 820.907 188.656 820.801 188.678L820.746 188.689C819.285 188.901 817.933 189.355 816.631 189.973C816.251 190.153 815.875 190.348 815.503 190.554C815.115 190.769 814.73 190.996 814.348 191.234C811.085 193.271 808.902 196.176 807.313 199.463C805.047 204.129 804.538 209.177 805.386 214.267C805.725 216.303 806.487 218.254 807.61 220.036L807.634 220.077C807.709 220.215 807.788 220.357 808.076 220.396C808.35 220.021 808.507 219.594 808.619 219.147C808.689 218.871 808.742 218.587 808.795 218.304C808.836 218.087 808.876 217.872 808.924 217.66C809.411 215.604 809.983 213.588 810.979 211.722C811.253 211.193 811.255 211.191 811.802 210.771L811.806 210.768C812.058 211.516 812.046 212.293 812.034 213.079C812.02 214.075 812.005 215.086 812.525 216.069C813.945 210.683 815.703 205.698 819.983 202.008C819.957 202.497 819.864 202.979 819.771 203.465C819.57 204.521 819.364 205.597 819.813 206.802C822.462 200.396 826.509 195.604 833.076 193.376C830.025 195.158 827.313 197.363 825.513 200.418C823.733 203.43 822.398 206.632 822.716 210.301C823.062 209.796 823.373 209.263 823.685 208.727C823.949 208.271 824.215 207.812 824.506 207.369C824.726 207.034 824.959 206.707 825.217 206.395C825.613 205.914 826.067 205.469 826.614 205.084C826.781 205.652 826.527 205.996 826.298 206.304L826.295 206.309L826.291 206.314C826.232 206.393 826.175 206.47 826.127 206.547C823.86 210.152 823.331 214.055 824.56 218.085C825.449 220.99 827.123 223.472 829.326 225.613C831.933 228.159 835.025 229.897 838.415 231.149C840.259 231.828 842.187 232.21 844.136 232.379C844.221 232.386 844.311 232.396 844.402 232.406L844.405 232.407C844.932 232.465 845.527 232.531 845.725 231.955C845.902 231.422 845.364 231.018 844.929 230.69L844.835 230.619C843.479 229.58 842.335 228.328 841.255 226.992C840.928 226.575 840.664 226.111 840.395 225.64C840.35 225.56 840.305 225.481 840.259 225.401C840.229 225.347 840.199 225.29 840.176 225.23C840.164 225.201 840.154 225.171 840.146 225.141C840.116 225.017 840.128 224.888 840.237 224.766C840.418 224.585 840.598 224.696 840.765 224.799C840.794 224.817 840.823 224.835 840.852 224.851C841.89 225.508 842.971 226.06 844.136 226.42C844.227 226.446 844.317 226.476 844.409 226.501C844.451 226.512 844.494 226.522 844.537 226.53C844.712 226.563 844.906 226.565 845.152 226.483C844.799 226.08 844.436 225.689 844.07 225.304C843.924 225.149 843.777 224.995 843.63 224.841C842.416 223.567 841.217 222.309 840.322 220.757L839.937 220.104L839.934 220.099C838.805 218.197 837.708 216.35 837.822 213.991C838.232 214.244 838.594 214.552 838.956 214.859C839.567 215.378 840.175 215.894 841 216.134C841.015 215.938 840.984 215.771 840.931 215.623C840.904 215.549 840.871 215.479 840.835 215.412C840.784 215.318 840.727 215.23 840.671 215.144C840.635 215.087 840.599 215.032 840.566 214.977C840.548 214.945 840.53 214.914 840.513 214.882C838.034 210.344 837.165 205.55 838.352 200.481C838.882 198.148 840.068 196.091 841.572 194.246C842.398 193.228 842.971 193.312 843.479 194.479L844.378 196.638C844.755 197.549 845.128 198.462 845.493 199.377C846.363 201.558 847.19 203.756 847.928 205.995C848.191 206.779 848.457 207.562 848.724 208.345C849.554 210.782 850.384 213.221 851.106 215.709C851.322 216.446 851.507 217.201 851.69 217.956L851.699 217.988L851.707 218.021C851.915 218.873 852.121 219.724 852.377 220.545C854.009 225.91 855.047 231.383 855.831 236.918C856.594 242.284 856.996 247.713 856.826 253.143C856.678 257.979 856.043 262.729 854.75 267.374L854.727 267.456C854.577 267.99 854.428 268.526 854.269 269.06C839.885 272.551 811.826 277.396 799.5 275.5C795.726 274.919 792.33 275.266 787.404 275.769C775.367 276.998 754.189 279.161 696 271C678.5 270.667 637 271.8 611 279L450.059 295H0V805H1920V279ZM873.726 265.597C873.694 266.317 873.671 267.037 873.654 267.757C869.705 267.524 865.961 267.459 862.726 267.645C862.767 265.895 862.782 264.145 862.771 262.394C862.759 260.194 862.705 257.995 862.61 255.794C862.377 250.301 861.742 244.829 860.937 239.378C860.492 236.366 859.898 233.397 859.263 230.428C858.967 229.038 858.648 227.652 858.316 226.27C857.934 224.677 857.531 223.088 857.123 221.499C855.873 216.6 854.221 211.828 852.462 207.119C851.063 203.345 849.433 199.654 847.759 195.985C847.553 195.543 847.318 195.112 847.085 194.684L847.076 194.669L846.831 194.216C846.649 193.877 846.474 193.535 846.318 193.186C846.098 192.721 846.049 192.418 846.188 192.249C846.317 192.095 846.604 192.053 847.06 192.104C852.632 192.719 856.784 195.412 859.39 200.438L859.564 200.775L859.573 200.792C860.151 201.906 860.735 203.03 861.021 204.257C861.085 204.532 861.148 204.808 861.445 205.02C861.738 204.522 861.717 204.004 861.697 203.501C861.688 203.275 861.68 203.052 861.699 202.835C861.71 202.736 861.712 202.627 861.711 202.514C861.711 202.459 861.709 202.403 861.708 202.347C861.706 202.258 861.705 202.168 861.706 202.08C861.707 202.002 861.71 201.925 861.717 201.853C861.746 201.552 861.844 201.308 862.145 201.245C862.689 201.13 862.887 201.67 863.067 202.165L863.073 202.18C863.123 202.315 863.171 202.447 863.225 202.56C864.771 205.55 865.364 208.816 865.788 212.125C865.81 212.337 865.873 212.57 865.915 212.782C865.915 212.825 866 212.846 866.148 212.931C866.434 212.388 866.603 211.801 866.772 211.214C866.994 210.448 867.215 209.68 867.695 209.007C868.223 209.23 868.265 209.668 868.304 210.076L868.31 210.131L868.364 210.968L868.442 212.243L868.544 213.972L868.64 215.676C867.55 215.988 866.492 216.487 865.47 217.16C863.768 218.271 862.406 219.76 861.335 221.489L861.264 221.606C861.084 221.895 860.884 222.217 861.083 222.461C861.27 222.698 861.542 222.541 861.785 222.401C861.852 222.362 861.917 222.324 861.978 222.297C863.138 221.767 864.284 221.249 865.532 220.972L865.628 220.945C865.765 220.902 865.905 220.859 865.986 221.022C866.065 221.182 865.957 221.263 865.845 221.346C865.815 221.367 865.786 221.39 865.76 221.413L865.614 221.548C865.266 221.869 864.908 222.198 864.676 222.663L865.209 222.501C867.46 221.817 869.696 221.138 872.138 221.489C871.973 221.864 871.675 222.034 871.383 222.2C871.318 222.237 871.253 222.274 871.19 222.313C871.061 222.394 870.938 222.482 870.839 222.6C870.943 222.641 871.038 222.648 871.127 222.645C871.184 222.642 871.24 222.635 871.295 222.628C871.341 222.621 871.386 222.615 871.432 222.612C874.053 222.372 876.637 222.486 879.12 223.407L879.3 223.47L879.303 223.471C879.666 223.595 880.075 223.736 880.355 224.253C879.372 224.031 878.424 223.924 877.493 223.906C876.67 223.891 875.859 223.944 875.049 224.051C873.31 224.291 871.684 224.82 870.209 226.12C870.734 226.247 871.212 226.134 871.67 226.026C872.17 225.909 872.646 225.796 873.133 226.007C873.11 226.083 873.078 226.13 873.043 226.159C873.003 226.192 872.959 226.202 872.919 226.209C872.13 226.272 871.44 226.671 870.788 227.048L870.776 227.055C867.045 229.188 866.037 232.771 866.97 236.822C867.31 238.299 867.978 239.649 868.684 240.975C868.746 241.089 868.805 241.206 868.864 241.324C869.12 241.829 869.383 242.347 869.894 242.716C870.096 242.426 870.12 242.123 870.133 241.82L870.139 241.738L870.143 241.657C870.203 240.576 870.263 239.506 870.335 238.425L870.338 238.391C870.362 238.149 870.388 237.889 870.7 237.756C870.986 238.156 871.117 238.613 871.249 239.07C871.35 239.419 871.451 239.768 871.62 240.091C871.709 240.041 871.759 240.028 871.759 240.003C871.766 239.965 871.775 239.926 871.784 239.886C871.805 239.794 871.826 239.699 871.835 239.611C872.087 237.643 872.439 235.699 873.36 233.92C873.393 233.851 873.423 233.77 873.453 233.687C873.476 233.623 873.5 233.558 873.526 233.495C873.621 233.27 873.749 233.083 874.003 233.138C874.245 233.188 874.266 233.438 874.263 233.701C874.262 233.732 874.262 233.763 874.261 233.794C874.26 233.896 874.258 233.996 874.268 234.084C874.279 234.213 874.274 234.346 874.269 234.48C874.257 234.78 874.245 235.088 874.419 235.384C874.525 235.308 874.582 235.217 874.618 235.12C874.642 235.059 874.656 234.994 874.671 234.93C874.84 234.203 875.185 233.537 875.527 232.878L875.536 232.86L875.642 232.658C877.191 229.667 879.662 228.064 882.978 227.698C883.545 227.635 883.671 227.812 883.418 228.342C883.284 228.643 883.126 228.933 882.968 229.224C882.827 229.481 882.686 229.74 882.562 230.008C881.565 232.19 880.595 234.387 879.763 236.633C878.717 239.435 877.733 242.274 876.99 245.189C876.536 246.956 876.095 248.724 875.717 250.503C875.339 252.27 874.986 254.036 874.722 255.828C874.242 259.071 873.864 262.328 873.726 265.597Z" fill="#0B0B0B"/>
</svg>
