<svg width="300" height="278" viewBox="0 0 300 278" fill="none" xmlns="http://www.w3.org/2000/svg" class="cursor-pointer w-4/5">\
<linearGradient id="gradient-fill4" x1="0" y1="20" x2="0" y2="200" gradientUnits="userSpaceOnUse">
                                <stop offset="0" stop-color="#ff44c3" />
                                <stop offset="1" stop-color="#fe8624" />
                            </linearGradient>
<path d="M128.438 42.4075H90.938V81.0447L151.875 141.356L175.313 118.74V190.36H212.813V42.4075H175.313V66.9091L151.875 90.4684L128.438 66.9091V42.4075Z" fill="#6F6F6F"/>
<path d="M59.9999 0H0V60.3118H6.56249V6.5966H59.9999V0Z" fill="#6F6F6F"/>
<path d="M59.9999 278H0V217.688H6.56249V271.403H59.9999V278Z" fill="#6F6F6F"/>
<path d="M240 0H300V60.3118H293.437V6.5966H240V0Z" fill="#6F6F6F"/>
<path d="M240 278H300V217.688H293.437V271.403H240V278Z" fill="#6F6F6F"/>
<path d="M101.33 228.055H98.9231V222.122C98.0972 222.413 97.3284 222.643 96.6169 222.811C95.9053 222.972 95.1497 223.053 94.3509 223.053C92.9676 223.053 91.8967 222.726 91.138 222.071C90.3793 221.411 90 220.469 90 219.247V213.255H92.417V218.681C92.417 219.443 92.6049 220.02 92.981 220.412C93.3637 220.796 93.9984 220.989 94.8844 220.989C95.5828 220.989 96.2409 220.921 96.8578 220.786C97.4756 220.645 98.1637 220.442 98.9231 220.179V213.255H101.33V228.055ZM113.545 228.055H105.207V213.255H113.545V215.3H107.624V219.318H113.173V221.353H107.624V225.999H113.545V228.055ZM128.007 228.055H125.197L119.145 220.543V228.055H116.728V213.255H119.145V220.421L125.087 213.255H127.725L121.783 220.402L128.007 228.055ZM141.673 228.055L137.434 215.694H137.343C137.363 215.971 137.387 216.348 137.413 216.828C137.44 217.307 137.464 217.82 137.483 218.367C137.504 218.914 137.514 219.437 137.514 219.936V228.055H135.319V213.255H138.712L142.792 225.068H142.852L147.071 213.255H150.455V228.055H148.148V219.814C148.148 219.362 148.156 218.873 148.169 218.346C148.189 217.82 148.209 217.321 148.229 216.848C148.256 216.376 148.276 215.998 148.29 215.714H148.209L143.809 228.055H141.673ZM163.457 228.055L162.016 223.945H156.386L154.946 228.055H152.399L157.877 213.193H160.556L166.025 228.055H163.457ZM161.391 221.859L159.992 217.81C159.938 217.635 159.861 217.388 159.76 217.071C159.66 216.747 159.559 216.42 159.458 216.089C159.357 215.752 159.274 215.468 159.206 215.238C159.14 215.515 159.055 215.825 158.955 216.17C158.86 216.508 158.767 216.824 158.673 217.121C158.586 217.419 158.518 217.648 158.471 217.81L157.061 221.859H161.391ZM172.248 213.255C174.148 213.255 175.535 213.646 176.407 214.429C177.28 215.212 177.716 216.308 177.716 217.719C177.716 218.36 177.616 218.971 177.414 219.552C177.22 220.125 176.898 220.634 176.448 221.08C175.998 221.518 175.403 221.866 174.666 222.122C173.933 222.379 173.031 222.507 171.956 222.507H170.385V228.055H167.968V213.255H172.248ZM172.087 215.269H170.385V220.483H171.704C172.463 220.483 173.107 220.395 173.638 220.22C174.169 220.037 174.571 219.75 174.846 219.358C175.122 218.967 175.259 218.451 175.259 217.81C175.259 216.952 175.001 216.315 174.484 215.897C173.974 215.479 173.175 215.269 172.087 215.269ZM191.936 228.055H189.126L183.074 220.543V228.055H180.657V213.255H183.074V220.421L189.016 213.255H191.655L185.713 220.402L191.936 228.055ZM202.229 228.055H193.89V213.255H202.229V215.3H196.308V219.318H201.856V221.353H196.308V225.999H202.229V228.055ZM210.517 228.055H208.09V215.319H203.78V213.255H214.818V215.319H210.517V228.055Z" fill="#6F6F6F"/>
</svg>
