<svg width="160" height="150" viewBox="0 0 160 150" fill="none" xmlns="http://www.w3.org/2000/svg"><path d="M68.5 23.077h-20v20.709L81 76.11l12.5-12.12v38.386h20V23.077h-20V36.21L81 48.836 68.5 36.209V23.076z" fill="#6F6F6F"/><path d="M32 .348H0v32.326h3.5V3.884H32V.348z" fill="#6F6F6F"/><path d="M32 149.348H0v-32.325h3.5v28.79H32v3.535z" fill="#6F6F6F"/><path d="M128 .348h32v32.326h-3.5V3.884H128V.348z" fill="#6F6F6F"/><path d="M128 149.348h32v-32.325h-3.5v28.79H128v3.535z" fill="#6F6F6F"/><path d="M54.042 122.58h-1.284v-3.18c-.44.155-.85.278-1.23.37-.38.085-.782.128-1.208.128-.738 0-1.309-.175-1.714-.526-.404-.354-.606-.86-.606-1.514v-3.21h1.289v2.907c-.001.408.099.718.3.928.203.206.542.31 1.014.31.373 0 .724-.038 1.053-.11.33-.076.696-.184 1.101-.325v-3.71h1.284v7.93zm6.515 0H56.11v-7.933h4.447v1.096H57.4v2.153h2.958v1.09h-2.96v2.49h3.16v1.103zm7.713 0h-1.498l-3.229-4.027v4.026h-1.288v-7.933h1.288v3.84l3.17-3.84h1.407l-3.17 3.83 3.32 4.102zm7.289 0-2.262-6.626h-.05a39.975 39.975 0 0 1 .075 1.433c.012.293.017.573.017.84v4.352h-1.17v-7.933h1.81l2.175 6.33h.032l2.25-6.33h1.805v7.932h-1.23v-4.418a31.92 31.92 0 0 1 .043-1.59c.015-.253.025-.455.033-.607h-.043l-2.347 6.614h-1.14zm11.617 0-.77-2.204h-3.001l-.769 2.203H81.28l2.92-7.966h1.43l2.916 7.965h-1.37zm-1.102-3.322-.746-2.17c-.03-.094-.07-.226-.125-.396a87.36 87.36 0 0 1-.296-.982c-.035.148-.08.314-.133.5-.05.18-.1.35-.15.51-.048.16-.083.28-.108.368l-.752 2.17h2.31zm5.79-4.61c1.014 0 1.753.208 2.219.628.465.42.698 1.007.698 1.763 0 .343-.054.67-.161.982-.103.307-.275.58-.515.82-.24.234-.557.42-.95.557-.39.137-.872.205-1.445.205h-.839v2.974h-1.288v-7.933h2.283zm-.085 1.078h-.909v2.795h.705c.405 0 .749-.046 1.032-.14a1.26 1.26 0 0 0 .644-.462c.148-.21.22-.486.22-.83 0-.46-.136-.8-.412-1.025-.272-.224-.699-.337-1.278-.337zm10.585 6.853h-1.498l-3.228-4.027v4.026h-1.29v-7.933h1.29v3.84l3.168-3.84h1.407l-3.168 3.83 3.318 4.102zm5.49 0h-4.448v-7.933h4.448v1.096h-3.158v2.153h2.96v1.09h-2.96v2.49h3.158v1.103zm4.42 0h-1.294v-6.827h-2.298v-1.106h5.887v1.106h-2.295v6.826z" fill="#6F6F6F"/></svg>