<svg width="160" height="149" viewBox="0 0 160 149" fill="none" xmlns="http://www.w3.org/2000/svg" class="cursor-pointer w-4/5">
    <linearGradient id="gradient-fill4" x1="0" y1="20" x2="0" y2="200" gradientUnits="userSpaceOnUse">
        <stop offset="0" stop-color="#ff44c3" />
        <stop offset="1" stop-color="#fe8624" />
    </linearGradient>
    <path d="M68.5 22.7305H48.5V43.4389L81 75.7643L93.5 63.6423V102.029H113.5V22.7305H93.5V35.8627L81 48.4898L68.5 35.8627V22.7305Z" fill="#6F6F6F"/>
    <path d="M32 0H0V32.3254H3.5V3.53559H32V0Z" fill="#6F6F6F"/>
    <path d="M32 149.001H0V116.676H3.5V145.466H32V149.001Z" fill="#6F6F6F"/>
    <path d="M128 0H160V32.3254H156.5V3.53559H128V0Z" fill="#6F6F6F"/>
    <path d="M128 149.001H160V116.676H156.5V145.466H128V149.001Z" fill="#6F6F6F"/>
    <path d="M54.0425 122.231H52.759V119.051C52.3185 119.207 51.9085 119.33 51.529 119.421C51.1495 119.507 50.7465 119.55 50.3205 119.55C49.5827 119.55 49.0115 119.375 48.6069 119.024C48.2023 118.67 48 118.165 48 117.51V114.298H49.2891V117.207C49.2891 117.615 49.3893 117.924 49.5899 118.135C49.794 118.341 50.1325 118.444 50.605 118.444C50.9775 118.444 51.3285 118.407 51.6575 118.335C51.987 118.259 52.354 118.151 52.759 118.01V114.298H54.0425V122.231ZM60.5575 122.231H56.1105V114.298H60.5575V115.394H57.3995V117.548H60.359V118.639H57.3995V121.129H60.5575V122.231ZM68.2705 122.231H66.772L63.544 118.205V122.231H62.255V114.298H63.544V118.14L66.713 114.298H68.12L64.951 118.129L68.2705 122.231ZM75.559 122.231L73.298 115.606H73.2495C73.2605 115.754 73.273 115.957 73.287 116.214C73.3015 116.47 73.314 116.746 73.3245 117.039C73.3355 117.331 73.341 117.612 73.341 117.88V122.231H72.17V114.298H73.98L76.1555 120.63H76.1875L78.438 114.298H80.2425V122.231H79.0125V117.814C79.0125 117.572 79.0165 117.31 79.0235 117.027C79.034 116.746 79.045 116.478 79.0555 116.224C79.07 115.971 79.0805 115.769 79.088 115.617H79.045L76.698 122.231H75.559ZM87.177 122.231L86.4085 120.028H83.406L82.638 122.231H81.2795L84.201 114.266H85.63L88.5465 122.231H87.177ZM86.0755 118.91L85.329 116.74C85.3005 116.646 85.2595 116.514 85.2055 116.344C85.152 116.17 85.098 115.995 85.0445 115.818C84.9905 115.637 84.946 115.485 84.91 115.362C84.8745 115.51 84.8295 115.676 84.776 115.861C84.7255 116.042 84.6755 116.212 84.6255 116.371C84.579 116.53 84.543 116.653 84.518 116.74L83.766 118.91H86.0755ZM91.8655 114.298C92.879 114.298 93.6185 114.508 94.084 114.928C94.5495 115.348 94.782 115.935 94.782 116.691C94.782 117.035 94.7285 117.362 94.621 117.673C94.5175 117.981 94.3455 118.254 94.1055 118.493C93.8655 118.728 93.5485 118.914 93.155 119.051C92.7645 119.189 92.283 119.257 91.71 119.257H90.872V122.231H89.583V114.298H91.8655ZM91.78 115.378H90.872V118.172H91.5755C91.9805 118.172 92.324 118.125 92.607 118.032C92.89 117.934 93.1045 117.78 93.2515 117.57C93.3985 117.36 93.4715 117.083 93.4715 116.74C93.4715 116.28 93.334 115.939 93.058 115.715C92.786 115.49 92.36 115.378 91.78 115.378ZM102.366 122.231H100.867L97.6395 118.205V122.231H96.3505V114.298H97.6395V118.14L100.808 114.298H102.216L99.047 118.129L102.366 122.231ZM107.855 122.231H103.408V114.298H107.855V115.394H104.697V117.548H107.656V118.639H104.697V121.129H107.855V122.231ZM112.276 122.231H110.981V115.405H108.682V114.298H114.569V115.405H112.276V122.231Z" fill="#6F6F6F"/>
</svg>
