<svg width="220" height="205" viewBox="0 0 220 205" fill="none" xmlns="http://www.w3.org/2000/svg"><path d="M94.188 31.832h-27.5v28.334l44.687 44.228 17.187-16.585v52.52h27.5V31.832h-27.5V49.8l-17.187 17.276L94.187 49.8V31.832z" fill="#6F6F6F"/><path d="M44 .733H0v44.229h4.812V5.57H44V.733z" fill="#6F6F6F"/><path d="M44 204.6H0v-44.23h4.812v39.392H44v4.838z" fill="#6F6F6F"/><path d="M176 .733h44v44.229h-4.813V5.57H176V.733z" fill="#6F6F6F"/><path d="M176 204.6h44v-44.23h-4.813v39.392H176v4.838z" fill="#6F6F6F"/><path d="M74.308 167.973h-1.764v-4.35c-.606.213-1.17.38-1.692.505a7.52 7.52 0 0 1-1.661.177c-1.014 0-1.8-.24-2.355-.72-.557-.484-.835-1.174-.835-2.07v-4.395h1.772v3.98c0 .558.138.98.414 1.268.28.282.746.423 1.396.423.512 0 .995-.048 1.447-.147.452-.104.957-.252 1.514-.445v-5.078h1.764v10.853zm8.959 0h-6.115V157.12h6.115v1.5h-4.343v2.946h4.07v1.493h-4.07v3.406h4.342v1.507zm10.605 0h-2.06l-4.44-5.51v5.51h-1.771V157.12h1.773v5.255l4.357-5.255h1.935l-4.357 5.24 4.564 5.613zm10.022 0-3.11-9.064h-.066a51.8 51.8 0 0 1 .103 1.96c.016.4.024.783.024 1.15v5.953h-1.61V157.12h2.488l2.992 8.663h.044l3.094-8.663h2.48v10.853h-1.69v-6.043c0-.33.006-.69.015-1.076l.044-1.1c.02-.345.036-.623.046-.83h-.06l-3.226 9.05h-1.566zm15.974 0-1.056-3.014h-4.13l-1.055 3.013h-1.868l4.016-10.898h1.965l4.01 10.898h-1.882zm-1.514-4.543-1.027-2.97c-.04-.128-.095-.31-.17-.54a129.85 129.85 0 0 1-.22-.722c-.075-.247-.136-.455-.186-.624-.048.204-.11.43-.183.684-.07.247-.138.48-.207.697l-.148.505-1.034 2.97h3.176zm7.96-6.31c1.395 0 2.41.286 3.05.86.642.575.96 1.38.96 2.413 0 .47-.072.92-.22 1.344-.142.42-.38.794-.71 1.12-.33.323-.765.578-1.306.766-.537.188-1.2.282-1.987.282h-1.15v4.068h-1.773V157.12h3.138zm-.117 1.477h-1.248v3.823h.966c.557 0 1.03-.064 1.42-.193.388-.134.683-.344.885-.63.203-.288.303-.667.303-1.137 0-.63-.19-1.096-.568-1.403-.374-.306-.96-.46-1.758-.46zm14.556 9.376h-2.06l-4.44-5.51v5.51h-1.77V157.12h1.77v5.255l4.36-5.255h1.934l-4.357 5.24 4.563 5.613zm7.548 0h-6.114V157.12h6.115v1.5h-4.34v2.946h4.068v1.493h-4.07v3.406h4.343v1.507zm6.08 0h-1.78v-9.34h-3.162v-1.513h8.095v1.514h-3.154v9.34z" fill="#6F6F6F"/></svg>