<svg width="160" height="148" viewBox="0 0 160 148" fill="none" xmlns="http://www.w3.org/2000/svg"><path d="M68.5 22.5H48.5V43L81 75L93.5 63V101H113.5V22.5H93.5V35.5L81 48L68.5 35.5V22.5Z" fill="#828282"/><rect width="4" height="26" transform="matrix(-1 0 0 1 68.5 75)" fill="#828282"/><rect width="5.5" height="26" transform="matrix(-1 0 0 1 54 75)" fill="#828282"/><rect width="3" height="26" transform="matrix(-1 0 0 1 59 75)" fill="#828282"/><rect width="2" height="26" transform="matrix(-1 0 0 1 62 75)" fill="#828282"/><path d="M32 0H0V32H3.5V3.5H32V0Z" fill="#828282"/><path d="M32 147.5H0V115.5H3.5V144H32V147.5Z" fill="#828282"/><path d="M128 0H160V32H156.5V3.5H128V0Z" fill="#828282"/><path d="M128 147.5H160V115.5H156.5V144H128V147.5Z" fill="#828282"/><path d="M54.0425 121H52.7588V117.853C52.3184 118.007 51.9084 118.128 51.5288 118.218C51.1493 118.304 50.7464 118.347 50.3203 118.347C49.5827 118.347 49.0116 118.173 48.6069 117.826C48.2023 117.475 48 116.975 48 116.327V113.147H49.2891V116.026C49.2891 116.431 49.3893 116.737 49.5898 116.945C49.7939 117.149 50.1323 117.251 50.605 117.251C50.9774 117.251 51.3283 117.215 51.6577 117.144C51.9871 117.068 52.3542 116.961 52.7588 116.821V113.147H54.0425V121ZM60.5576 121H56.1104V113.147H60.5576V114.232H57.3994V116.365H60.3589V117.444H57.3994V119.91H60.5576V121ZM68.2705 121H66.772L63.5439 117.015V121H62.2549V113.147H63.5439V116.95L66.7129 113.147H68.1201L64.9512 116.939L68.2705 121ZM75.5591 121L73.2979 114.442H73.2495C73.2603 114.589 73.2728 114.789 73.2871 115.043C73.3014 115.298 73.314 115.57 73.3247 115.86C73.3354 116.15 73.3408 116.427 73.3408 116.692V121H72.1699V113.147H73.98L76.1553 119.416H76.1875L78.438 113.147H80.2427V121H79.0127V116.628C79.0127 116.388 79.0163 116.128 79.0234 115.849C79.0342 115.57 79.0449 115.305 79.0557 115.054C79.07 114.804 79.0807 114.603 79.0879 114.453H79.0449L76.6978 121H75.5591ZM87.1768 121L86.4087 118.819H83.4062L82.6382 121H81.2793L84.2012 113.115H85.6299L88.5464 121H87.1768ZM86.0757 117.713L85.3291 115.564C85.3005 115.471 85.2593 115.341 85.2056 115.172C85.1519 115 85.0981 114.827 85.0444 114.651C84.9907 114.472 84.946 114.322 84.9102 114.2C84.8743 114.347 84.8296 114.512 84.7759 114.694C84.7257 114.873 84.6756 115.042 84.6255 115.199C84.5789 115.357 84.5431 115.479 84.5181 115.564L83.7661 117.713H86.0757ZM91.8657 113.147C92.8791 113.147 93.6185 113.355 94.084 113.771C94.5495 114.186 94.7822 114.768 94.7822 115.516C94.7822 115.856 94.7285 116.18 94.6211 116.488C94.5173 116.793 94.3454 117.063 94.1055 117.299C93.8656 117.532 93.5487 117.716 93.1548 117.853C92.7645 117.989 92.2829 118.057 91.71 118.057H90.8721V121H89.583V113.147H91.8657ZM91.7798 114.216H90.8721V116.982H91.5757C91.9803 116.982 92.3241 116.936 92.6069 116.843C92.8898 116.746 93.1047 116.594 93.2515 116.386C93.3983 116.179 93.4717 115.905 93.4717 115.564C93.4717 115.11 93.3338 114.771 93.0581 114.549C92.786 114.327 92.3599 114.216 91.7798 114.216ZM102.366 121H100.868L97.6396 117.015V121H96.3506V113.147H97.6396V116.95L100.809 113.147H102.216L99.0469 116.939L102.366 121ZM107.855 121H103.408V113.147H107.855V114.232H104.697V116.365H107.657V117.444H104.697V119.91H107.855V121ZM112.276 121H110.981V114.243H108.683V113.147H114.569V114.243H112.276V121Z" fill="#828282"/>
</svg>
