<svg width="220" height="204" viewBox="0 0 220 204" fill="none" xmlns="http://www.w3.org/2000/svg">
<path d="M94.1875 31.2812H66.6875V59.4688L111.375 103.469L128.562 86.9688V139.219H156.062V31.2812H128.562V49.1562L111.375 66.3438L94.1875 49.1562V31.2812Z" fill="#828282"/>
<rect width="5.5" height="35.75" transform="matrix(-1 0 0 1 94.1875 103.469)" fill="#828282"/>
<rect width="7.5625" height="35.75" transform="matrix(-1 0 0 1 74.25 103.469)" fill="#828282"/>
<rect width="4.125" height="35.75" transform="matrix(-1 0 0 1 81.125 103.469)" fill="#828282"/>
<rect width="2.75" height="35.75" transform="matrix(-1 0 0 1 85.25 103.469)" fill="#828282"/>
<path d="M44 0.34375H0V44.3438H4.8125V5.15625H44V0.34375Z" fill="#828282"/>
<path d="M44 203.156H0V159.156H4.8125V198.344H44V203.156Z" fill="#828282"/>
<path d="M176 0.34375H220V44.3438H215.188V5.15625H176V0.34375Z" fill="#828282"/>
<path d="M176 203.156H220V159.156H215.188V198.344H176V203.156Z" fill="#828282"/>
<path d="M74.3084 166.219H72.5433V161.891C71.9377 162.103 71.374 162.27 70.8521 162.393C70.3302 162.511 69.7763 162.57 69.1904 162.57C68.1762 162.57 67.3909 162.332 66.8345 161.854C66.2782 161.372 66 160.685 66 159.794V155.422H67.7725V159.38C67.7725 159.936 67.9103 160.357 68.186 160.643C68.4667 160.924 68.9319 161.064 69.5818 161.064C70.0939 161.064 70.5764 161.015 71.0294 160.916C71.4823 160.813 71.987 160.665 72.5433 160.473V155.422H74.3084V166.219ZM83.2667 166.219H77.1517V155.422H83.2667V156.913H78.9242V159.845H82.9935V161.33H78.9242V164.72H83.2667V166.219ZM93.8719 166.219H91.8115L87.3729 160.739V166.219H85.6005V155.422H87.3729V160.65L91.7302 155.422H93.6652L89.3079 160.635L93.8719 166.219ZM103.894 166.219L100.785 157.201H100.718C100.733 157.403 100.75 157.679 100.77 158.029C100.789 158.378 100.807 158.752 100.821 159.151C100.836 159.55 100.844 159.931 100.844 160.296V166.219H99.2336V155.422H101.722L104.714 164.04H104.758L107.852 155.422H110.334V166.219H108.642V160.207C108.642 159.877 108.647 159.52 108.657 159.136C108.672 158.752 108.687 158.388 108.702 158.043C108.721 157.699 108.736 157.423 108.746 157.216H108.687L105.459 166.219H103.894ZM119.868 166.219L118.812 163.22H114.684L113.628 166.219H111.759L115.777 155.377H117.741L121.751 166.219H119.868ZM118.354 161.699L117.328 158.745C117.288 158.617 117.232 158.437 117.158 158.206C117.084 157.969 117.01 157.731 116.936 157.489C116.862 157.243 116.801 157.036 116.751 156.869C116.702 157.071 116.641 157.297 116.567 157.548C116.498 157.795 116.429 158.026 116.36 158.243C116.296 158.459 116.247 158.627 116.212 158.745L115.178 161.699H118.354ZM126.315 155.422C127.709 155.422 128.725 155.707 129.365 156.278C130.006 156.849 130.326 157.649 130.326 158.678C130.326 159.146 130.252 159.592 130.104 160.015C129.961 160.434 129.725 160.805 129.395 161.13C129.065 161.45 128.629 161.704 128.088 161.891C127.551 162.078 126.889 162.172 126.101 162.172H124.949V166.219H123.177V155.422H126.315ZM126.197 156.891H124.949V160.695H125.917C126.473 160.695 126.946 160.631 127.335 160.503C127.723 160.37 128.019 160.16 128.221 159.875C128.423 159.589 128.524 159.213 128.524 158.745C128.524 158.12 128.334 157.654 127.955 157.349C127.581 157.044 126.995 156.891 126.197 156.891ZM140.754 166.219H138.693L134.255 160.739V166.219H132.482V155.422H134.255V160.65L138.612 155.422H140.547L136.189 160.635L140.754 166.219ZM148.301 166.219H142.186V155.422H148.301V156.913H143.959V159.845H148.028V161.33H143.959V164.72H148.301V166.219ZM154.379 166.219H152.599V156.928H149.439V155.422H157.533V156.928H154.379V166.219Z" fill="#828282"/>
</svg>
