<svg width="300" height="96" viewBox="0 0 300 96" fill="none" xmlns="http://www.w3.org/2000/svg">
<path d="M153.076 79.1999H130.861V17.8594H153.076C159.976 17.8594 165.67 19.3219 170.158 22.2469C174.702 25.1155 178.012 28.8 180.088 33.3C182.164 37.7438 183.201 42.778 183.201 48.4032C183.201 54.2531 182.051 59.5125 179.751 64.1812C177.451 68.7938 174.057 72.4499 169.569 75.1499C165.137 77.8499 159.64 79.1999 153.076 79.1999ZM153.076 68.7374C157.059 68.7374 160.397 67.8374 163.09 66.0374C165.782 64.2374 167.802 61.8187 169.149 58.7812C170.551 55.6874 171.252 52.228 171.252 48.4032C171.252 42.2155 169.653 37.3219 166.456 33.7219C163.258 30.1219 158.798 28.3219 153.076 28.3219H142.726V68.7374H153.076ZM280.394 79.1999H268.613V28.3219H249.005V17.8594H300V28.3219H280.394V79.1999Z" fill="#6F6F6F"/>
<path d="M220.555 79.1999H208.774V28.3219H189.166V17.8594H240.161V28.3219H220.555V79.1999Z" fill="#6F6F6F"/>
<path d="M68.0828 48L51.4128 32.4156L34.7431 48L51.4128 63.5843L68.0828 48Z" fill="#6F6F6F"/>
<path d="M74.3439 53.8492L51.4128 75.3011V75.3592L51.3817 75.3302L51.3506 75.3592L22.1051 48L22.1546 47.9536L11.1255 37.6228L0 48L51.4617 95.9999L85.4865 64.264L74.3439 53.8492Z" fill="#6F6F6F"/>
<path d="M102.923 48L51.4617 0L17.357 31.8105L28.3887 42.1216L51.3506 20.6407L51.4128 20.6986L80.5964 48L80.5782 48.017L91.7179 58.4515L102.923 48Z" fill="#6F6F6F"/>
</svg>
