<svg width="220" height="71" viewBox="0 0 220 71" fill="none" xmlns="http://www.w3.org/2000/svg"><path d="M112.256 58.28H95.965V13.295h16.29c5.06 0 9.236 1.073 12.528 3.218 3.332 2.103 5.76 4.805 7.28 8.105 1.524 3.258 2.285 6.95 2.285 11.075 0 4.29-.844 8.147-2.53 11.57-1.687 3.383-4.176 6.064-7.467 8.044-3.25 1.98-7.28 2.97-12.094 2.97zm0-7.673c2.92 0 5.368-.66 7.343-1.98 1.974-1.32 3.455-3.094 4.442-5.321 1.03-2.27 1.543-4.806 1.543-7.611 0-4.538-1.173-8.126-3.517-10.766-2.345-2.641-5.616-3.961-9.812-3.961h-7.59v29.637h7.59zm93.366 7.672h-8.64V20.968h-14.378v-7.674H220v7.673h-14.378v37.31z" fill="#6F6F6F"/><path d="M161.74 58.28h-8.64V20.968h-14.378v-7.674h37.396v7.673H161.74v37.31z" fill="#6F6F6F"/><path d="M49.927 35.4 37.703 23.97 25.478 35.4l12.225 11.428 12.224-11.429z" fill="#6F6F6F"/><path d="m54.519 39.689-16.817 15.73v.043l-.023-.022-.023.023L16.21 35.399l.037-.035-8.088-7.576-8.16 7.61L37.74 70.6l24.95-23.274-8.171-7.637z" fill="#6F6F6F"/><path d="M75.477 35.4 37.74.2 12.727 23.526l8.09 7.561 16.84-15.752.045.042 21.4 20.021-.012.012 8.17 7.652 8.217-7.665z" fill="#6F6F6F"/></svg>