<svg width="160" height="53" viewBox="0 0 160 53" fill="none" xmlns="http://www.w3.org/2000/svg"><path d="M81.64 42.937H69.793V10.222h11.849c3.68 0 6.717.78 9.11 2.34 2.425 1.53 4.19 3.494 5.297 5.894 1.107 2.37 1.66 5.056 1.66 8.056 0 3.12-.613 5.925-1.84 8.414-1.226 2.46-3.036 4.41-5.43 5.85-2.364 1.44-5.296 2.16-8.796 2.16zm0-5.58c2.125 0 3.905-.48 5.341-1.44 1.437-.96 2.514-2.25 3.233-3.87.748-1.65 1.122-3.496 1.122-5.535 0-3.3-.853-5.91-2.559-7.83-1.705-1.92-4.084-2.88-7.135-2.88h-5.52v21.554h5.52zm67.904 5.58h-6.284V15.802h-10.457v-5.58H160v5.58h-10.456v27.135z" fill="#6F6F6F"/><path d="M117.63 42.937h-6.284V15.802H100.89v-5.58h27.196v5.58H117.63v27.135z" fill="#6F6F6F"/><path d="m36.31 26.296-8.89-8.311-8.89 8.311 8.89 8.312 8.89-8.312z" fill="#6F6F6F"/><path d="M39.65 29.416 27.42 40.857v.031l-.016-.015-.017.015L11.79 26.296l.026-.024-5.882-5.51L0 26.297l27.446 25.6L45.593 34.97l-5.943-5.554z" fill="#6F6F6F"/><path d="M54.893 26.296 27.446.696 9.257 17.662l5.884 5.5 12.247-11.457.033.03 15.565 14.561-.01.01 5.941 5.565 5.977-5.574z" fill="#6F6F6F"/></svg>