<svg width="300" height="135" viewBox="0 0 300 135" fill="none" xmlns="http://www.w3.org/2000/svg">
<path d="M77.2282 0.812012H71.2876V78.2342H77.2282V0.812012Z" fill="#6F6F6F"/>
<path d="M59.4064 16.0174C59.4064 19.4814 56.5155 22.2895 52.9493 22.2895C49.3832 22.2895 46.4922 19.4814 46.4922 16.0174C46.4922 12.5535 49.3832 9.74536 52.9493 9.74536C56.5155 9.74536 59.4064 12.5535 59.4064 16.0174Z" fill="#6F6F6F"/>
<path fill-rule="evenodd" clip-rule="evenodd" d="M51.6573 65.7583V86.3707C51.6573 98.8411 41.2497 108.95 28.4115 108.95C15.5732 108.95 5.16573 98.8411 5.16573 86.3707H0C0 101.612 12.7203 113.968 28.4115 113.968C44.1027 113.968 56.823 101.612 56.823 86.3707V49.887C56.823 34.6456 44.1027 22.2898 28.4115 22.2898C12.7203 22.2898 0 34.6456 0 49.887C0 65.1285 12.7203 77.4842 28.4115 77.4842C38.0207 77.4842 46.5154 72.8504 51.6573 65.7583ZM51.6573 49.887C51.6573 62.3573 41.2497 72.4663 28.4115 72.4663C15.5732 72.4663 5.16573 62.3573 5.16573 49.887C5.16573 37.4167 15.5732 27.3075 28.4115 27.3075C41.2497 27.3075 51.6573 37.4167 51.6573 49.887Z" fill="#6F6F6F"/>
<path fill-rule="evenodd" clip-rule="evenodd" d="M157.426 0.812012H163.366V32.5798C168.53 25.9324 176.589 21.6565 185.644 21.6565C201.228 21.6565 213.861 34.3218 213.861 49.9453C213.861 65.5689 201.228 78.2342 185.644 78.2342C176.589 78.2342 168.53 73.9584 163.366 67.3109V78.2342H157.426V0.812012ZM185.644 72.2787C173.34 72.2787 163.366 62.2796 163.366 49.9453C163.366 37.6111 173.34 27.612 185.644 27.612C197.947 27.612 207.921 37.6111 207.921 49.9453C207.921 62.2796 197.947 72.2787 185.644 72.2787Z" fill="#6F6F6F"/>
<path d="M300 0.812012H294.059V78.2342H300V0.812012Z" fill="#6F6F6F"/>
<path fill-rule="evenodd" clip-rule="evenodd" d="M273.268 21.6565H279.208V78.2343H273.268V67.3109C268.104 73.9585 260.045 78.2343 250.99 78.2343C235.406 78.2343 222.772 65.5689 222.772 49.9454C222.772 34.3219 235.406 21.6565 250.99 21.6565C260.045 21.6565 268.104 25.9324 273.268 32.5799V21.6565ZM273.268 49.9454C273.268 37.6111 263.294 27.6121 250.99 27.6121C238.687 27.6121 228.713 37.6111 228.713 49.9454C228.713 62.2796 238.687 72.2787 250.99 72.2787C263.294 72.2787 273.268 62.2796 273.268 49.9454Z" fill="#6F6F6F"/>
<path fill-rule="evenodd" clip-rule="evenodd" d="M145.545 49.9454C145.545 65.5689 132.911 78.2343 117.327 78.2343C101.743 78.2343 89.1094 65.5689 89.1094 49.9454C89.1094 34.3219 101.743 21.6565 117.327 21.6565C132.911 21.6565 145.545 34.3219 145.545 49.9454ZM139.604 49.9454C139.604 62.2796 129.63 72.2787 117.327 72.2787C105.024 72.2787 95.05 62.2796 95.05 49.9454C95.05 37.6111 105.024 27.6121 117.327 27.6121C129.63 27.6121 139.604 37.6111 139.604 49.9454Z" fill="#6F6F6F"/>
<path d="M256.93 96.1011H105.445C94.7822 96.1011 86.1382 104.767 86.1382 115.457C86.1382 126.146 94.7822 134.812 105.445 134.812H256.93C267.593 134.812 276.237 126.146 276.237 115.457C276.237 104.767 267.593 96.1011 256.93 96.1011Z" fill="#6F6F6F"/>
<path d="M130.313 122.901V108.205H132.476V121.045H139.732V122.901H130.313ZM147.377 123.088C145.976 123.088 144.764 122.782 143.738 122.171C142.712 121.546 141.915 120.67 141.347 119.545C140.792 118.405 140.515 117.071 140.515 115.542C140.515 114 140.792 112.666 141.347 111.54C141.915 110.415 142.712 109.546 143.738 108.935C144.764 108.323 145.976 108.018 147.377 108.018C148.763 108.018 149.969 108.323 150.994 108.935C152.034 109.546 152.831 110.415 153.386 111.54C153.954 112.666 154.238 113.993 154.238 115.522C154.238 117.064 153.954 118.405 153.386 119.545C152.831 120.67 152.034 121.546 150.994 122.171C149.969 122.782 148.763 123.088 147.377 123.088ZM147.377 121.212C148.832 121.212 149.962 120.719 150.766 119.732C151.583 118.732 151.992 117.335 151.992 115.542C151.992 113.75 151.59 112.36 150.787 111.374C149.982 110.387 148.846 109.894 147.377 109.894C145.921 109.894 144.784 110.387 143.967 111.374C143.163 112.36 142.761 113.75 142.761 115.542C142.761 117.335 143.163 118.732 143.967 119.732C144.784 120.719 145.921 121.212 147.377 121.212ZM163.998 123.088C162.403 123.088 161.059 122.789 159.964 122.192C158.869 121.58 158.037 120.712 157.469 119.586C156.914 118.461 156.637 117.12 156.637 115.563C156.637 114.021 156.921 112.687 157.49 111.561C158.058 110.422 158.883 109.546 159.964 108.935C161.045 108.323 162.341 108.018 163.852 108.018C164.892 108.018 165.855 108.17 166.742 108.476C167.629 108.782 168.371 109.22 168.967 109.789L168.198 111.478C167.532 110.922 166.853 110.526 166.16 110.29C165.467 110.039 164.698 109.914 163.852 109.914C162.23 109.914 160.997 110.408 160.151 111.394C159.305 112.367 158.883 113.757 158.883 115.563C158.883 117.412 159.312 118.815 160.172 119.774C161.045 120.733 162.348 121.212 164.081 121.212C165.134 121.212 166.181 121.039 167.22 120.691V116.751H163.644V115.126H169.029V122.046C168.405 122.352 167.629 122.602 166.701 122.796C165.786 122.991 164.885 123.088 163.998 123.088ZM172.344 122.901V108.205H174.507V122.901H172.344ZM182.774 123.088C181.623 123.088 180.57 122.942 179.613 122.65C178.657 122.345 177.846 121.921 177.181 121.379L177.867 119.67C178.56 120.198 179.301 120.594 180.091 120.858C180.882 121.122 181.776 121.254 182.774 121.254C183.952 121.254 184.818 121.045 185.373 120.628C185.941 120.198 186.225 119.642 186.225 118.961C186.225 118.405 186.024 117.967 185.622 117.648C185.22 117.314 184.548 117.05 183.605 116.856L181.381 116.397C180.064 116.119 179.08 115.661 178.428 115.021C177.791 114.382 177.472 113.521 177.472 112.437C177.472 111.561 177.7 110.79 178.158 110.123C178.629 109.456 179.281 108.942 180.112 108.58C180.944 108.205 181.9 108.018 182.982 108.018C183.98 108.018 184.902 108.17 185.747 108.476C186.607 108.768 187.334 109.199 187.93 109.769L187.223 111.415C186.045 110.373 184.624 109.852 182.961 109.852C181.935 109.852 181.117 110.081 180.507 110.54C179.911 110.998 179.613 111.61 179.613 112.374C179.613 112.958 179.8 113.423 180.175 113.771C180.549 114.118 181.173 114.382 182.046 114.563L184.25 115.021C185.636 115.313 186.669 115.765 187.348 116.376C188.027 116.974 188.367 117.787 188.367 118.815C188.367 119.676 188.138 120.427 187.681 121.066C187.223 121.706 186.579 122.206 185.747 122.567C184.915 122.915 183.924 123.088 182.774 123.088ZM194.093 122.901V110.019H188.895V108.205H201.433V110.019H196.235V122.901H194.093ZM203.228 122.901V108.205H205.39V122.901H203.228ZM215.341 123.088C213.858 123.088 212.59 122.782 211.537 122.171C210.483 121.56 209.672 120.691 209.104 119.565C208.549 118.426 208.272 117.085 208.272 115.542C208.272 114 208.549 112.666 209.104 111.54C209.672 110.415 210.483 109.546 211.537 108.935C212.59 108.323 213.858 108.018 215.341 108.018C216.34 108.018 217.268 108.177 218.128 108.497C219.001 108.803 219.729 109.247 220.311 109.831L219.562 111.561C218.925 110.991 218.266 110.581 217.587 110.331C216.922 110.067 216.194 109.935 215.404 109.935C213.824 109.935 212.618 110.422 211.786 111.394C210.954 112.367 210.539 113.75 210.539 115.542C210.539 117.335 210.954 118.725 211.786 119.711C212.618 120.684 213.824 121.17 215.404 121.17C216.194 121.17 216.922 121.045 217.587 120.795C218.266 120.531 218.925 120.114 219.562 119.545L220.311 121.275C219.729 121.844 219.001 122.289 218.128 122.609C217.268 122.928 216.34 123.088 215.341 123.088ZM227.424 123.088C226.273 123.088 225.22 122.942 224.264 122.65C223.307 122.345 222.496 121.921 221.831 121.379L222.517 119.67C223.21 120.198 223.952 120.594 224.742 120.858C225.532 121.122 226.426 121.254 227.424 121.254C228.602 121.254 229.469 121.045 230.023 120.628C230.591 120.198 230.876 119.642 230.876 118.961C230.876 118.405 230.674 117.967 230.273 117.648C229.87 117.314 229.198 117.05 228.256 116.856L226.031 116.397C224.714 116.119 223.73 115.661 223.079 115.021C222.441 114.382 222.122 113.521 222.122 112.437C222.122 111.561 222.351 110.79 222.808 110.123C223.279 109.456 223.931 108.942 224.763 108.58C225.594 108.205 226.551 108.018 227.632 108.018C228.63 108.018 229.552 108.17 230.397 108.476C231.257 108.768 231.984 109.199 232.581 109.769L231.874 111.415C230.695 110.373 229.275 109.852 227.611 109.852C226.585 109.852 225.768 110.081 225.158 110.54C224.562 110.998 224.264 111.61 224.264 112.374C224.264 112.958 224.451 113.423 224.825 113.771C225.199 114.118 225.823 114.382 226.696 114.563L228.9 115.021C230.286 115.313 231.319 115.765 231.998 116.376C232.677 116.974 233.017 117.787 233.017 118.815C233.017 119.676 232.788 120.427 232.331 121.066C231.874 121.706 231.229 122.206 230.397 122.567C229.566 122.915 228.574 123.088 227.424 123.088Z" fill="#FEFEFE"/>
</svg>
