<svg width="160" height="39" viewBox="0 0 160 39" fill="none" xmlns="http://www.w3.org/2000/svg"><path d="M3.45 3.568.316 6.438.06 18.599c-.168 10.978-.083 12.33 1.526 14.863 2.626 4.223 6.015 5.236 17.366 5.236 10.844 0 14.317-.928 17.197-4.644 1.693-2.111 1.863-3.293 1.863-14.102C38.013 1.625 37.08.696 18.529.696H6.669L3.45 3.568zM27 15.474v8.782l-2.541 1.351c-4.152 2.112-4.322 1.943-4.067-6.924l.254-8.19 2.88-1.943c1.61-1.098 3.05-1.942 3.134-1.942.17 0 .34 3.968.34 8.866zm-9.318 8.867c0 3.885-.254 4.392-2.711 5.912-1.524.929-3.049 1.689-3.388 1.689-.423 0-.677-1.857-.677-4.221 0-3.97.17-4.224 3.219-5.828 1.694-.929 3.219-1.689 3.388-1.773.085-.001.17 1.94.17 4.22z" fill="#828282"/><path d="M66.815 16.656c0 8.783.17 10.218 1.78 12.16 2.795 3.631 10.673 4.645 15.163 1.858 2.287-1.435 3.389-6.333 3.389-15.2V6.608h-5.76l-.34 9.373c-.254 8.108-.508 9.543-1.863 10.556-1.78 1.267-4.66.845-5.76-.844-.34-.507-.679-4.982-.679-10.049V6.608h-5.93v10.048z" fill="#828282"/><path d="M94.77 7.199c-2.88 1.012-5.082 3.967-5.082 6.67 0 4.053 2.287 6.164 8.471 7.853 3.98 1.013 5.59 1.858 5.76 2.956.678 3.208-4.66 4.136-7.455 1.35-2.287-2.28-6.777-2.28-6.777-.085 0 4.476 6.946 7.6 13.64 6.08 4.743-1.098 6.69-3.04 6.69-6.84 0-4.644-2.2-6.84-8.047-8.022-7.708-1.52-8.724-5.404-1.44-5.489 2.204 0 2.966.422 3.305 1.69.678 2.532 6.184 2.448 6.184-.085 0-2.788-1.44-4.73-4.32-5.744-2.797-.929-8.727-1.182-10.93-.337z" fill="#828282"/><path d="M120.778 7.199c-.34.505-4.744 11.23-9.657 23.643-.338.76.594 1.098 2.966 1.098 2.626 0 3.473-.337 3.812-1.688.34-1.436 1.186-1.69 6.1-1.69 4.912 0 5.76.254 6.098 1.69.34 1.35 1.186 1.689 3.728 1.689 1.863 0 3.304-.253 3.304-.675-.085-.337-2.203-5.91-4.914-12.413L127.386 7.03l-3.135-.254c-1.693-.169-3.218.085-3.472.423zm5.59 13.51 1.44 3.63H124c-3.644 0-3.728-.084-2.966-2.11.508-1.182 1.27-3.125 1.694-4.391 1.017-2.62 1.78-2.028 3.643 2.87z" fill="#828282"/><path d="M139.67 19.274v12.667h5.844l.254-6.924.254-6.924 3.728 6.924c3.642 6.84 3.812 6.925 7.03 6.925H160V6.608h-5.93v6.756c0 3.716-.254 6.756-.593 6.756-.423-.001-2.287-3.041-4.32-6.757-3.473-6.418-3.812-6.756-6.523-6.756h-2.965v12.667z" fill="#828282"/><path d="M60.462 8.465c-2.71 1.52-2.965 2.365-2.965 9.542 0 4.223-.423 7.263-1.016 7.854-.592.592-2.88 1.014-5.082 1.014-3.982 0-4.066.085-4.066 2.533v2.534h5.845c4.574 0 6.269-.337 8.048-1.773 2.202-1.688 2.202-1.857 2.202-12.244 0-5.742-.254-10.471-.593-10.471-.424 0-1.44.507-2.372 1.013z" fill="#828282"/></svg>