<svg width="220" height="53" viewBox="0 0 220 53" fill="none" xmlns="http://www.w3.org/2000/svg"><path d="M4.744 4.155.434 8.103l-.35 16.72C-.149 39.917-.032 41.775 2.181 45.26c3.612 5.804 8.271 7.198 23.88 7.198 14.91 0 19.685-1.278 23.645-6.387 2.33-2.901 2.563-4.527 2.563-19.39 0-25.195-1.282-26.472-26.79-26.472H9.17L4.744 4.155zm32.381 16.372v12.076l-3.494 1.857c-5.707 2.903-5.94 2.67-5.59-9.52l.35-11.264 3.96-2.67c2.213-1.51 4.193-2.67 4.31-2.67.232 0 .465 5.456.465 12.19zM24.312 32.72c0 5.34-.35 6.036-3.727 8.126-2.097 1.278-4.193 2.323-4.66 2.323-.582-.001-.93-2.556-.93-5.807 0-5.457.232-5.805 4.425-8.012a143.798 143.798 0 0 1 4.66-2.437c.116 0 .232 2.67.232 5.806z" fill="#828282"/><path d="M91.871 22.153c.001 12.075.234 14.049 2.447 16.72 3.844 4.992 14.677 6.386 20.85 2.554 3.145-1.974 4.66-8.708 4.66-20.9V8.335h-7.92l-.467 12.889c-.35 11.146-.7 13.12-2.563 14.513-2.446 1.742-6.406 1.162-7.92-1.16-.466-.697-.932-6.851-.932-13.818V8.334H91.87v13.818z" fill="#828282"/><path d="M130.31 9.148c-3.96 1.393-6.99 5.457-6.99 9.173 0 5.574 3.146 8.477 11.65 10.8 5.474 1.392 7.687 2.554 7.92 4.063.932 4.412-6.406 5.69-10.25 1.858-3.145-3.134-9.32-3.134-9.32-.115 0 6.154 9.553 10.45 18.755 8.36 6.523-1.51 9.202-4.18 9.202-9.405 0-6.386-3.03-9.405-11.066-11.03-10.6-2.09-11.997-7.432-1.98-7.548 3.03 0 4.078.58 4.544 2.322.93 3.483 8.503 3.367 8.503-.116 0-3.832-1.98-6.502-5.94-7.896-3.845-1.277-11.998-1.625-15.027-.464z" fill="#828282"/><path d="M166.07 9.148c-.466.697-6.523 15.443-13.28 32.511-.465 1.044.816 1.509 4.078 1.509 3.61-.001 4.775-.466 5.24-2.324.467-1.973 1.632-2.322 8.388-2.322 6.756 0 7.92.349 8.387 2.322.465 1.858 1.63 2.323 5.125 2.323 2.562-.001 4.542-.35 4.542-.93-.116-.465-3.028-8.128-6.755-17.069l-6.64-16.254-4.31-.349c-2.33-.232-4.426.117-4.775.58zm7.687 18.578 1.98 4.993h-5.24c-5.01-.001-5.126-.118-4.078-2.904.698-1.626 1.746-4.296 2.33-6.038 1.397-3.6 2.445-2.787 5.007 3.948z" fill="#828282"/><path d="M192.045 25.752v17.417H200.082l.35-9.522.35-9.522 5.124 9.521c5.01 9.406 5.242 9.522 9.668 9.522H220V8.334h-8.153v9.29c0 5.108-.35 9.288-.816 9.288-.58 0-3.144-4.18-5.94-9.289-4.775-8.824-5.24-9.289-8.968-9.289h-4.077v17.417z" fill="#828282"/><path d="M83.136 10.89c-3.728 2.09-4.077 3.25-4.077 13.12-.001 5.806-.584 9.986-1.4 10.799-.814.811-3.96 1.392-6.988 1.392-5.474 0-5.59.116-5.59 3.483v3.484h8.036c6.29-.001 8.62-.466 11.066-2.44 3.028-2.322 3.028-2.554 3.028-16.836 0-7.895-.35-14.398-.815-14.398-.582 0-1.98.697-3.261 1.394z" fill="#828282"/></svg>