<svg width="220" height="160" viewBox="0 0 220 160" fill="none" xmlns="http://www.w3.org/2000/svg"><path d="M96.261 2.234c-7.834 2.953-11.996 5.783-18.117 12.55-7.345 8.244-9.793 14.765-9.793 26.946 0 12.55 3.305 20.917 11.63 29.653l5.386 5.413 1.224-5.413c.735-3.692.735-8.121-.367-14.765-1.224-7.137-1.224-10.828-.245-14.396.734-2.584 1.347-6.767 1.347-9.105 0-2.338 1.101-5.66 2.448-7.382 1.346-1.723 2.448-4.799 2.448-6.89.001-4.307 3.184-7.875 7.102-7.875 3.06 0 3.427 2.214.857 5.66-2.327 3.076-2.327 5.906.243 7.997 1.102.985 3.306 4.676 4.775 8.12 2.815 6.4 3.06 6.522 8.202 6.522 7.1 0 10.773-2.708 9.916-7.383-1.102-5.414 6.978-12.92 8.814-8.12.367.983-.245 3.444-1.224 5.536-2.45 4.552-2.45 5.044-.123 5.044.98 0 4.04-2.337 6.733-5.167 3.55-3.568 5.387-4.676 6.244-3.815 1.714 1.723.122 4.553-6.366 12.182-4.53 5.29-4.897 6.152-4.04 10.827 1.714 10.212 6.733 21.286 9.18 19.81 2.327-1.477 7.347-13.166 8.57-19.81 2.327-12.673-2.937-28.176-12.73-37.035C127.11 1.126 109.36-2.69 96.26 2.233z" fill="#828282"/><path d="M105.685 48.62c-.734 1.723-1.224 9.351-1.224 16.857 0 17.594 1.225 19.932 9.917 19.07 8.57-.86 10.038-2.46 9.06-10.088-2.45-20.18-3.43-24.24-6.49-26.578-4.406-3.568-9.793-3.2-11.262.738z" fill="#828282"/><path d="M94.18 64.492c-.979 2.584-.979 13.289 0 15.873.368 1.107 1.592 1.968 2.694 1.968 1.47 0 1.714-1.353 1.102-8.859-.735-8.859-2.326-12.673-3.795-8.982z" fill="#828282"/><path d="M128.458 64.492c-.857 2.461.49 12.796 1.836 13.658 1.59.984 5.998-1.846 5.998-3.938 0-2.46-4.652-11.565-5.998-11.565-.612 0-1.347.86-1.836 1.845z" fill="#828282"/><path d="m.214 126.757.32 20.15 4.592.322 4.486.32v-5.25c0-3.967.534-5.682 2.242-7.29 1.282-1.072 2.563-1.608 2.777-.965.108.536 1.923 3.752 3.846 6.967 3.524 5.788 3.63 5.895 9.077 6.217 3.098.213 5.554.106 5.554-.215 0-.322-2.884-5.145-6.515-10.826l-6.407-10.29 6.194-8.254c8.97-11.79 8.756-10.932 2.135-10.932h-5.66l-6.408 9.325-6.301 9.216-.32-9.217-.321-9.326H-.001l.214 20.043z" fill="#828282"/><path d="M131.573 108c-3.63 3.644.64 9.646 5.126 7.288 3.737-2.036 2.135-8.574-2.137-8.574-.96 0-2.243.536-2.99 1.286z" fill="#828282"/><path d="M163.398 126.543v19.83h4.272c4.165 0 4.272-.11 4.272-3.646 0-1.93.748-4.18 1.602-4.93 1.282-1.072 2.03-.43 4.486 3.644 2.883 4.717 3.203 4.824 8.116 4.932 2.777 0 5.02-.215 5.02-.536 0-.322-2.243-3.966-4.913-8.04-5.554-8.252-5.66-7.502 1.602-15.326l3.738-3.966h-5.767c-5.554.107-6.088.32-9.078 4.287-1.71 2.252-3.524 4.18-3.95 4.29-.535 0-.856-4.61-.856-10.184v-10.182h-8.544v19.83z" fill="#828282"/><path d="M40.582 120.326c-3.097 2.144-4.272 3.537-4.272 5.36 0 1.928 7.049 1.714 10.04-.215 2.349-1.5 2.669-1.5 4.27.108 2.564 2.465 1.603 4.18-2.67 4.502-8.863.643-12.708 3.322-12.708 8.79 0 6.644 8.544 10.93 14.952 7.502 1.388-.75 2.242-.75 2.67 0 .32.535 2.456 1.07 4.592 1.07h4.058l-.427-11.574c-.32-11.147-.427-11.576-3.524-14.47-2.563-2.358-4.059-2.894-8.758-2.894-3.524 0-6.62.643-8.223 1.822zm11.32 15.863c.962 2.25-1.495 4.822-4.485 4.822-1.922 0-2.563-.536-2.563-2.465 0-1.393.32-2.894.748-3.215 1.28-1.394 5.766-.75 6.3.857z" fill="#828282"/><path d="M69.31 121.612c-5.552 5.68-3.203 10.826 6.516 13.934 4.378 1.5 5.873 2.465 5.873 3.966 0 2.894-4.272 3.215-6.622.536-2.456-3-8.864-3.11-8.864-.322 0 3.644 4.913 6.967 11 7.503 16.874 1.392 19.65-13.828 3.204-17.365-4.379-.964-6.194-3.108-4.165-4.823 1.709-1.393 5.98-.643 5.98 1.072 0 .536 2.136.965 4.7.965 4.271 0 4.699-.216 4.165-2.252-.962-3.645-6.515-6.324-12.923-6.324-4.913 0-6.194.43-8.864 3.108z" fill="#828282"/><path d="M97.185 138.87v20.364H105.728v-6.967c0-6.646.107-6.967 2.03-5.895 5.66 3 12.815.107 15.165-6.11 2.456-6.645.106-18.22-4.166-20.58-2.776-1.5-8.223-1.5-11-.106-1.388.75-2.03.75-2.03 0 0-.536-1.92-1.072-4.27-1.072h-4.272v20.365zm16.98-10.29c2.884 6.11-1.495 14.576-5.98 11.79-2.35-1.5-3.204-11.577-1.282-13.935 2.03-2.465 5.553-1.286 7.262 2.144z" fill="#828282"/><path d="M129.65 119.897c-.213.75-.32 7.182-.213 14.256l.32 12.755 4.593.32 4.486.323V118.505h-4.272c-2.563 0-4.593.536-4.913 1.393z" fill="#828282"/><path d="M196.184 121.505c-1.602 1.608-2.883 3.323-2.883 3.75 0 .323 3.098.752 6.943.966l6.94.323-5.872 7.502c-3.737 4.93-5.873 8.575-5.873 10.397v3H220v-7.394l-6.408-.322-6.3-.32 6.3-8.04c3.524-4.395 6.3-9.11 6.408-10.504 0-2.25-.32-2.358-10.466-2.358s-10.573.107-13.35 3z" fill="#828282"/><path d="M148.02 139.512c-2.03 1.93-2.03 2.143-.64 4.823 1.922 3.43 8.543 2.037 8.543-1.822 0-1.822-2.99-4.716-4.805-4.716-.748 0-2.243.75-3.097 1.715z" fill="#828282"/></svg>