<svg width="160" height="117" viewBox="0 0 160 117" fill="none" xmlns="http://www.w3.org/2000/svg"><path d="M70.008 2.534C64.31 4.682 61.283 6.74 56.83 11.66c-5.34 5.997-7.122 10.74-7.122 19.598 0 9.128 2.404 15.212 8.458 21.566l3.918 3.937.89-3.936c.534-2.685.534-5.906-.267-10.738-.89-5.19-.89-7.875-.178-10.47.533-1.88.978-4.921.978-6.622 0-1.7.802-4.116 1.78-5.369.98-1.253 1.782-3.49 1.782-5.01 0-3.133 2.314-5.728 5.163-5.728 2.226 0 2.493 1.61.624 4.116-1.692 2.238-1.692 4.296.178 5.817.801.716 2.404 3.4 3.472 5.906 2.048 4.653 2.226 4.743 5.965 4.743 5.164-.001 7.835-1.97 7.212-5.37-.802-3.938 5.075-9.396 6.41-5.906.267.715-.178 2.505-.89 4.026-1.78 3.311-1.78 3.67-.09 3.67.713 0 2.939-1.701 4.897-3.76 2.583-2.594 3.92-3.4 4.542-2.773 1.246 1.253.09 3.31-4.63 8.859-3.294 3.847-3.56 4.474-2.938 7.874 1.247 7.427 4.897 15.48 6.678 14.407 1.69-1.074 5.342-9.575 6.232-14.407 1.69-9.216-2.137-20.492-9.26-26.934-8.19-7.427-21.1-10.201-30.626-6.622z" fill="#828282"/><path d="M76.862 36.27c-.535 1.252-.89 6.8-.89 12.258 0 12.797.89 14.497 7.21 13.87 6.233-.626 7.301-1.79 6.59-7.337-1.782-14.674-2.494-17.628-4.72-19.328-3.205-2.595-7.122-2.326-8.19.537z" fill="#828282"/><path d="M68.495 47.813c-.713 1.879-.713 9.664 0 11.543.267.805 1.157 1.432 1.958 1.432 1.069 0 1.247-.985.802-6.443-.535-6.443-1.692-9.217-2.76-6.532z" fill="#828282"/><path d="M93.424 47.813c-.624 1.79.356 9.306 1.335 9.932 1.157.716 4.362-1.342 4.362-2.863 0-1.79-3.383-8.412-4.363-8.412-.446 0-.98.627-1.336 1.343z" fill="#828282"/><path d="m.155 93.096.233 14.655 3.34.235 3.262.233v-3.82c0-2.883.389-4.13 1.631-5.3.933-.78 1.865-1.17 2.02-.701.078.39 1.399 2.728 2.797 5.066 2.563 4.21 2.64 4.288 6.602 4.522 2.251.156 4.038.078 4.038-.156 0-.235-2.097-3.743-4.738-7.874l-4.66-7.484 4.504-6.002c6.525-8.575 6.37-7.95 1.554-7.95H16.62l-4.659 6.78-4.581 6.705-.234-6.704-.233-6.78H0l.155 14.576z" fill="#828282"/><path d="M95.689 79.454c-2.642 2.65.465 7.016 3.727 5.301 2.72-1.48 1.553-6.236-1.553-6.236-.7 0-1.631.389-2.175.934z" fill="#828282"/><path d="M118.835 92.94v14.42h3.107c3.03 0 3.107-.077 3.107-2.65 0-1.403.542-3.04 1.164-3.585.932-.78 1.475-.312 3.262 2.65 2.097 3.43 2.33 3.508 5.903 3.586 2.018 0 3.65-.155 3.65-.39 0-.233-1.632-2.883-3.574-5.845-4.04-6.002-4.116-5.457 1.165-11.147l2.72-2.884h-4.194c-4.04.078-4.428.233-6.602 3.118-1.243 1.637-2.563 3.04-2.874 3.118-.388 0-.62-3.352-.62-7.406V78.52h-6.215v14.42z" fill="#828282"/><path d="M29.514 88.419c-2.252 1.558-3.106 2.571-3.106 3.896 0 1.403 5.126 1.248 7.3-.156 1.71-1.09 1.942-1.09 3.107.078 1.864 1.793 1.165 3.04-1.941 3.274-6.447.468-9.243 2.417-9.243 6.392 0 4.833 6.215 7.95 10.875 5.457 1.01-.545 1.63-.545 1.941 0 .233.39 1.787.78 3.34.78h2.952l-.31-8.418c-.234-8.107-.312-8.42-2.564-10.524-1.864-1.715-2.952-2.104-6.37-2.104-2.562 0-4.815.467-5.98 1.325zm8.233 11.536c.7 1.637-1.087 3.507-3.262 3.507-1.398 0-1.864-.39-1.864-1.792.001-1.013.234-2.104.545-2.338.932-1.013 4.194-.546 4.582.624z" fill="#828282"/><path d="M50.408 89.354c-4.04 4.132-2.33 7.873 4.738 10.134 3.184 1.09 4.271 1.793 4.271 2.884 0 2.105-3.106 2.34-4.815.39-1.787-2.183-6.447-2.26-6.447-.234 0 2.65 3.573 5.067 8 5.457 12.272 1.013 14.292-10.056 2.33-12.629-3.184-.701-4.505-2.26-3.029-3.507 1.243-1.015 4.35-.47 4.35.778 0 .39 1.553.702 3.417.702 3.107 0 3.418-.156 3.03-1.637-.7-2.65-4.738-4.6-9.399-4.6-3.572 0-4.505.312-6.446 2.261z" fill="#828282"/><path d="M70.68 101.904v14.81H76.893v-5.066c0-4.833.078-5.067 1.476-4.287 4.115 2.184 9.32.08 11.028-4.442 1.787-4.833.078-13.252-3.03-14.967-2.018-1.09-5.98-1.09-8-.077-1.009.546-1.475.546-1.475 0 0-.39-1.398-.78-3.106-.78H70.68v14.81zm12.35-7.483c2.096 4.444-1.088 10.602-4.35 8.576-1.71-1.092-2.33-8.42-.932-10.134 1.475-1.793 4.038-.935 5.281 1.56z" fill="#828282"/><path d="M94.291 88.107c-.154.546-.232 5.223-.154 10.368l.233 9.276 3.339.235 3.26.233V87.094h-3.106c-1.864 0-3.34.39-3.573 1.013z" fill="#828282"/><path d="M142.68 89.276c-1.166 1.17-2.098 2.417-2.098 2.729 0 .233 2.252.545 5.05.701l5.047.234-4.273 5.457c-2.718 3.585-4.272 6.236-4.272 7.56v2.184H160V102.763l-4.66-.234-4.583-.234 4.582-5.846c2.562-3.196 4.582-6.626 4.66-7.64 0-1.636-.233-1.714-7.612-1.714-7.38 0-7.69.078-9.71 2.182z" fill="#828282"/><path d="M107.65 102.372c-1.475 1.403-1.475 1.56-.465 3.508 1.398 2.494 6.213 1.48 6.213-1.325 0-1.325-2.174-3.43-3.495-3.43-.543 0-1.63.545-2.252 1.247z" fill="#828282"/></svg>