<svg width="200" height="48" viewBox="0 0 200 48" fill="none" xmlns="http://www.w3.org/2000/svg"><g clip-path="url(#clip0_3647_690)"><path d="M21.1 11.696c-5.1 5.5-9.7 10-10.2 10s-.9-3.8-.9-8.5c0-8.4 0-8.5-2.5-8.5H5v37h2.5c2.4 0 2.5-.2 2.5-6.3 0-5.7.3-6.6 2.9-9.1l2.9-2.8 6.7 9.1c5.8 7.9 7.1 9.1 9.6 9.1 1.6 0 2.9-.2 2.9-.5s-3.4-5-7.5-10.4c-4.1-5.5-7.5-10.3-7.5-10.8s3.3-4.1 7.3-8.1l7.2-7.2h80.7c70.4 0 80.7-.2 81.8-1.5 1.1-1.3-8.2-1.5-82.6-1.5H30.5l-9.4 10z" fill="#828282"/><path d="M173.7 7.096c-7.7 2.8-11.7 9.1-11.7 18.3 0 12 6.8 19.3 18 19.3 4.4 0 6.5-.6 9.7-2.6 6.1-4 7.8-7.5 7.8-16.5 0-6.6-.4-8.1-2.7-11.7-4.6-6.8-13.4-9.7-21.1-6.8zm14.7 6.8c6.8 6.8 5.3 21.3-2.6 25.4-3.9 2-11 1.4-14-1.2-6.7-6-6.3-19.7.7-25.2 2-1.6 4.2-2.2 7.7-2.2 4.3 0 5.5.5 8.2 3.2z" fill="#828282"/><path d="m93.3 24.896-7.1 18.3-37.8.6c-50.5.8-47.4.7-47.4 2.2 0 1.1 7.7 1.3 43.7 1 24.1-.3 44.3-.6 44.9-.8.7-.2 2.2-3.3 3.4-7l2.2-6.6 8 .3 8.1.3 2 5.7c1.9 5.2 2.4 5.8 4.9 5.8 1.5 0 2.8-.1 2.8-.3 0-.2-3.4-8.6-7.5-18.7s-7.5-18.5-7.5-18.7c0-.2-1.3-.3-2.9-.3-2.8 0-3 .5-9.8 18.2zm13-4.9c1.5 4.1 2.7 7.7 2.7 8 0 .4-2.7.7-6.1.7-4.5 0-6-.3-5.7-1.3.3-.6 1.6-4.2 2.9-8 1.3-3.7 2.6-6.7 2.9-6.7.3 0 1.8 3.3 3.3 7.3z" fill="#828282"/><path d="M125 25.696v19h5l.2-16.8.3-16.7h19l.3 16.7.2 16.8h5v-38h-30v19z" fill="#828282"/><path d="M41.2 19.296c-2.7 1.8-3 5.4-.4 5.4.9 0 2.3-.9 3-2 2.2-3.6 10.2-2.4 10.2 1.6 0 1.9-.7 2.4-3.7 2.9-8.3 1.4-9.4 1.7-10.8 3.8-4.4 6.3 1.3 13.3 9.3 11.2 1.5-.4 4.4-.7 6.5-.6l3.9.1-.4-10.6c-.3-9.1-.6-10.8-2.2-12-2.7-1.9-12.5-1.8-15.4.2zm13.5 13c1.5 3.9-5.1 8.4-9.3 6.5-3.6-1.6-4.1-4.1-1.5-6.3 3-2.3 9.9-2.5 10.8-.2z" fill="#828282"/><path d="M66.2 19.296c-1.2.8-2.2 2.2-2.2 3 0 1.9 3.4 1.8 5-.1 1.6-2 7.4-1.9 9.1.1 1.9 2.3-.1 4.8-4 5.2-4.4.5-3.9 3.6.7 4 3.9.4 5.7 3.1 3.8 5.8-1.8 2.4-8.3 2.5-10.1.1-1.6-2.2-6-2.3-5.1-.1.3.9.6 1.7.6 2 0 1.1 6.4 3.4 9.5 3.4 8.5 0 13.6-6.8 8.5-11.5-1.7-1.5-1.7-1.9-.5-3.2.8-.8 1.5-2.7 1.5-4.3 0-4-3.2-6-9.5-6-3 0-6 .6-7.3 1.6z" fill="#828282"/></g><defs><clipPath id="clip0_3647_690"><rect width="200" height="47" fill="white" transform="translate(0 0.696411)"/></clipPath></defs></svg>