<svg width="220" height="53" viewBox="0 0 220 53" fill="none" xmlns="http://www.w3.org/2000/svg"><path d="M23.21 12.65c-5.61 6.05-10.67 11-11.22 11-.55 0-.99-4.18-.99-9.35 0-9.24 0-9.35-2.75-9.35H5.5v40.7h2.75c2.64 0 2.75-.22 2.75-6.93 0-6.27.33-7.26 3.19-10.01l3.19-3.08 7.37 10.01c6.38 8.69 7.81 10.01 10.56 10.01 1.76 0 3.19-.22 3.19-.55s-3.74-5.5-8.25-11.44C25.74 27.61 22 22.33 22 21.78c0-.55 3.63-4.51 8.03-8.91l7.92-7.92h88.77c77.44 0 88.77-.22 89.98-1.65 1.21-1.43-9.02-1.65-90.86-1.65H33.55l-10.34 11z" fill="#828282"/><path d="M191.07 7.59c-8.47 3.08-12.87 10.01-12.87 20.13 0 13.2 7.48 21.23 19.8 21.23 4.84 0 7.15-.66 10.67-2.86 6.71-4.4 8.58-8.25 8.58-18.15 0-7.26-.44-8.91-2.97-12.87-5.06-7.48-14.74-10.67-23.21-7.48zm16.17 7.48c7.48 7.48 5.83 23.43-2.86 27.94-4.29 2.2-12.1 1.54-15.4-1.32-7.37-6.6-6.93-21.67.77-27.72 2.2-1.76 4.62-2.42 8.47-2.42 4.73 0 6.05.55 9.02 3.52z" fill="#828282"/><path d="M102.63 27.17 94.82 47.3l-41.58.66c-55.55.88-52.14.77-52.14 2.42 0 1.21 8.47 1.43 48.07 1.1 26.51-.33 48.73-.66 49.39-.88.77-.22 2.42-3.63 3.74-7.7l2.42-7.26 8.8.33 8.91.33 2.2 6.27c2.09 5.72 2.64 6.38 5.39 6.38 1.65 0 3.08-.11 3.08-.33 0-.22-3.74-9.46-8.25-20.57S116.6 7.7 116.6 7.48c0-.22-1.43-.33-3.19-.33-3.08 0-3.3.55-10.78 20.02zm14.3-5.39c1.65 4.51 2.97 8.47 2.97 8.8 0 .44-2.97.77-6.71.77-4.95 0-6.6-.33-6.27-1.43.33-.66 1.76-4.62 3.19-8.8 1.43-4.07 2.86-7.37 3.19-7.37.33 0 1.98 3.63 3.63 8.03z" fill="#828282"/><path d="M137.5 28.05v20.9h5.5l.22-18.48.33-18.37h20.9l.33 18.37.22 18.48h5.5V7.15h-33v20.9z" fill="#828282"/><path d="M45.32 21.01c-2.97 1.98-3.3 5.94-.44 5.94.99 0 2.53-.99 3.3-2.2 2.42-3.96 11.22-2.64 11.22 1.76 0 2.09-.77 2.64-4.07 3.19-9.13 1.54-10.34 1.87-11.88 4.18-4.84 6.93 1.43 14.63 10.23 12.32 1.65-.44 4.84-.77 7.15-.66l4.29.11-.44-11.66c-.33-10.01-.66-11.88-2.42-13.2-2.97-2.09-13.75-1.98-16.94.22zm14.85 14.3c1.65 4.29-5.61 9.24-10.23 7.15-3.96-1.76-4.51-4.51-1.65-6.93 3.3-2.53 10.89-2.75 11.88-.22z" fill="#828282"/><path d="M72.82 21.01c-1.32.88-2.42 2.42-2.42 3.3 0 2.09 3.74 1.98 5.5-.11 1.76-2.2 8.14-2.09 10.01.11 2.09 2.53-.11 5.28-4.4 5.72-4.84.55-4.29 3.96.77 4.4 4.29.44 6.27 3.41 4.18 6.38-1.98 2.64-9.13 2.75-11.11.11-1.76-2.42-6.6-2.53-5.61-.11.33.99.66 1.87.66 2.2 0 1.21 7.04 3.74 10.45 3.74 9.35 0 14.96-7.48 9.35-12.65-1.87-1.65-1.87-2.09-.55-3.52.88-.88 1.65-2.97 1.65-4.73 0-4.4-3.52-6.6-10.45-6.6-3.3 0-6.6.66-8.03 1.76z" fill="#828282"/></svg>