<svg width="300" height="112" viewBox="0 0 300 112" fill="none" xmlns="http://www.w3.org/2000/svg">
<path d="M0.0834961 56.522L7.18755 52.9894V0H17.8436L32.0517 28.261L46.2598 0H56.9159V52.9894L64.02 56.522H42.7078L49.8119 52.9894V7.06525L35.6038 35.3263H28.4997L14.2916 7.06525V52.9894L21.3957 56.522H0.0834961Z" fill="#6F6F6F"/>
<path d="M79.4817 56.522L86.5858 52.9894V3.53263L79.4817 0H100.794L93.6898 3.53263V52.9894L100.794 56.522H79.4817Z" fill="#6F6F6F"/>
<path d="M205.391 0L233.807 56.522H226.703L205.391 14.1305L184.078 56.522H176.974L205.391 0Z" fill="#6F6F6F"/>
<path d="M284.013 45.9298L287.61 52.9056L300 28.261V21.1958H253.824V7.06525H292.896L296.448 0H246.72V28.261H292.896L284.013 45.9298Z" fill="#6F6F6F"/>
<path d="M250.272 56.522H285.718L282.075 49.4568H246.72L250.272 56.522Z" fill="#6F6F6F"/>
<path d="M156.874 49.4568L156.88 49.4452L160.432 56.5104L160.426 56.522H121.354V0H160.426L174.634 28.261L162.301 52.7932L158.749 45.7279L167.53 28.261L156.874 7.06525H128.458V49.4568H156.874Z" fill="#6F6F6F"/>
<path d="M150.105 80.4609L299.875 80.461" stroke="url(#paint0_linear_3137_1243)" stroke-width="1.00293"/>
<path d="M150.105 80.4609L0.33458 80.461" stroke="url(#paint1_linear_3137_1243)" stroke-width="1.00293"/>
<path d="M33.9467 106.095C33.9467 106.077 33.9645 106.068 34.0001 106.068C34.0269 106.068 34.0492 106.073 34.067 106.082C34.0938 106.09 34.1071 106.104 34.1071 106.122C34.0269 106.683 33.9868 107.272 33.9868 107.887C33.9868 107.958 33.9689 108.012 33.9333 108.047C33.9065 108.074 33.853 108.087 33.7728 108.087H28.1698C28.152 108.087 28.1431 108.061 28.1431 108.007C28.1431 107.954 28.152 107.927 28.1698 107.927C28.5086 107.927 28.7537 107.905 28.9053 107.86C29.0658 107.815 29.1727 107.731 29.2262 107.606C29.2886 107.472 29.3198 107.272 29.3198 107.004V100.813C29.3198 100.545 29.2886 100.349 29.2262 100.224C29.1727 100.1 29.0658 100.015 28.9053 99.9704C28.7537 99.9169 28.5086 99.8902 28.1698 99.8902C28.152 99.8902 28.1431 99.8634 28.1431 99.8099C28.1431 99.7564 28.152 99.7297 28.1698 99.7297H33.5455C33.6257 99.7297 33.6658 99.7698 33.6658 99.85L33.6926 101.495C33.6926 101.522 33.6703 101.539 33.6257 101.548C33.5811 101.548 33.5544 101.535 33.5455 101.508C33.5187 101.036 33.3761 100.67 33.1176 100.412C32.859 100.144 32.5158 100.011 32.0879 100.011H31.2722C30.9602 100.011 30.7284 100.037 30.5768 100.091C30.4342 100.135 30.3317 100.22 30.2693 100.345C30.2158 100.461 30.189 100.639 30.189 100.88V103.594H31.8205C32.2484 103.594 32.5515 103.523 32.7298 103.38C32.917 103.238 33.0106 102.997 33.0106 102.658C33.0106 102.64 33.0373 102.631 33.0908 102.631C33.1443 102.631 33.1711 102.64 33.1711 102.658L33.1577 103.741C33.1577 104 33.1621 104.196 33.1711 104.33L33.1844 104.972C33.1844 104.989 33.1577 104.998 33.1042 104.998C33.0507 104.998 33.024 104.989 33.024 104.972C33.024 104.579 32.9259 104.299 32.7298 104.129C32.5426 103.96 32.2261 103.875 31.7803 103.875H30.189V106.951C30.189 107.2 30.2158 107.383 30.2693 107.499C30.3228 107.615 30.4208 107.695 30.5635 107.74C30.7061 107.784 30.929 107.807 31.2321 107.807H32.3019C32.7298 107.807 33.0864 107.655 33.3716 107.352C33.6569 107.049 33.8486 106.63 33.9467 106.095ZM57.0956 99.7297C57.1224 99.7297 57.1358 99.7564 57.1358 99.8099C57.1358 99.8634 57.1224 99.8902 57.0956 99.8902C56.7925 99.8902 56.5295 99.9704 56.3067 100.131C56.0838 100.291 55.8966 100.563 55.745 100.947L52.8967 108.074C52.8878 108.11 52.8388 108.128 52.7496 108.128C52.6783 108.128 52.6293 108.11 52.6025 108.074L49.2728 100.84C49.1213 100.492 48.9608 100.247 48.7914 100.104C48.622 99.9615 48.4036 99.8902 48.1362 99.8902C48.1094 99.8902 48.0961 99.8634 48.0961 99.8099C48.0961 99.7564 48.1094 99.7297 48.1362 99.7297L48.6443 99.7431C48.8939 99.7609 49.0945 99.7698 49.2461 99.7698C49.6027 99.7698 49.986 99.7609 50.3961 99.7431L50.9444 99.7297C50.9711 99.7297 50.9845 99.7564 50.9845 99.8099C50.9845 99.8634 50.9711 99.8902 50.9444 99.8902C50.3916 99.8902 50.1153 100.046 50.1153 100.358C50.1153 100.465 50.1554 100.608 50.2356 100.786L53.0304 106.911L55.4375 100.88C55.5088 100.692 55.5444 100.545 55.5444 100.438C55.5444 100.251 55.4598 100.113 55.2904 100.024C55.121 99.9347 54.858 99.8902 54.5014 99.8902C54.4747 99.8902 54.4613 99.8634 54.4613 99.8099C54.4613 99.7564 54.4747 99.7297 54.5014 99.7297L55.0764 99.7431C55.3795 99.7609 55.6559 99.7698 55.9055 99.7698C56.0927 99.7698 56.3022 99.7609 56.534 99.7431L57.0956 99.7297ZM76.7799 106.095C76.7799 106.077 76.7978 106.068 76.8334 106.068C76.8602 106.068 76.8824 106.073 76.9003 106.082C76.927 106.09 76.9404 106.104 76.9404 106.122C76.8602 106.683 76.82 107.272 76.82 107.887C76.82 107.958 76.8022 108.012 76.7666 108.047C76.7398 108.074 76.6863 108.087 76.6061 108.087H71.0031C70.9852 108.087 70.9763 108.061 70.9763 108.007C70.9763 107.954 70.9852 107.927 71.0031 107.927C71.3418 107.927 71.587 107.905 71.7386 107.86C71.899 107.815 72.006 107.731 72.0595 107.606C72.1219 107.472 72.1531 107.272 72.1531 107.004V100.813C72.1531 100.545 72.1219 100.349 72.0595 100.224C72.006 100.1 71.899 100.015 71.7386 99.9704C71.587 99.9169 71.3418 99.8902 71.0031 99.8902C70.9852 99.8902 70.9763 99.8634 70.9763 99.8099C70.9763 99.7564 70.9852 99.7297 71.0031 99.7297H76.3788C76.459 99.7297 76.4991 99.7698 76.4991 99.85L76.5258 101.495C76.5258 101.522 76.5036 101.539 76.459 101.548C76.4144 101.548 76.3877 101.535 76.3788 101.508C76.352 101.036 76.2094 100.67 75.9508 100.412C75.6923 100.144 75.3491 100.011 74.9212 100.011H74.1055C73.7934 100.011 73.5616 100.037 73.4101 100.091C73.2675 100.135 73.1649 100.22 73.1025 100.345C73.049 100.461 73.0223 100.639 73.0223 100.88V103.594H74.6537C75.0816 103.594 75.3847 103.523 75.563 103.38C75.7503 103.238 75.8439 102.997 75.8439 102.658C75.8439 102.64 75.8706 102.631 75.9241 102.631C75.9776 102.631 76.0043 102.64 76.0043 102.658L75.991 103.741C75.991 104 75.9954 104.196 76.0043 104.33L76.0177 104.972C76.0177 104.989 75.991 104.998 75.9375 104.998C75.884 104.998 75.8572 104.989 75.8572 104.972C75.8572 104.579 75.7592 104.299 75.563 104.129C75.3758 103.96 75.0593 103.875 74.6136 103.875H73.0223V106.951C73.0223 107.2 73.049 107.383 73.1025 107.499C73.156 107.615 73.2541 107.695 73.3967 107.74C73.5394 107.784 73.7622 107.807 74.0653 107.807H75.1351C75.563 107.807 75.9196 107.655 76.2049 107.352C76.4902 107.049 76.6819 106.63 76.7799 106.095ZM100.397 99.7297C100.424 99.7297 100.437 99.7564 100.437 99.8099C100.437 99.8634 100.424 99.8902 100.397 99.8902C100.023 99.8902 99.7506 99.9927 99.5812 100.198C99.4118 100.403 99.3271 100.737 99.3271 101.201V108.248C99.3271 108.266 99.3049 108.279 99.2603 108.288C99.2157 108.297 99.1845 108.292 99.1667 108.275L93.0154 100.826L92.895 100.692V106.63C92.895 107.093 92.9753 107.428 93.1357 107.633C93.3051 107.829 93.5726 107.927 93.9381 107.927C93.9648 107.927 93.9782 107.954 93.9782 108.007C93.9782 108.061 93.9648 108.087 93.9381 108.087C93.7152 108.087 93.5458 108.083 93.4299 108.074L92.7613 108.061L92.0793 108.074C91.9545 108.083 91.7718 108.087 91.5311 108.087C91.5132 108.087 91.5043 108.061 91.5043 108.007C91.5043 107.954 91.5132 107.927 91.5311 107.927C91.9144 107.927 92.1863 107.829 92.3468 107.633C92.5072 107.428 92.5875 107.093 92.5875 106.63V100.372C92.2398 100.051 91.8877 99.8902 91.5311 99.8902C91.5043 99.8902 91.491 99.8634 91.491 99.8099C91.491 99.7564 91.5043 99.7297 91.5311 99.7297L92.0258 99.7431C92.1328 99.752 92.2799 99.7564 92.4671 99.7564C92.6633 99.7564 92.8237 99.752 92.9485 99.7431C93.0733 99.7341 93.1714 99.7297 93.2427 99.7297C93.314 99.7297 93.3631 99.7475 93.3898 99.7832C93.4255 99.8099 93.479 99.8768 93.5503 99.9838C93.6573 100.144 93.7642 100.291 93.8712 100.425L99.0196 106.75V101.201C99.0196 100.737 98.9393 100.403 98.7789 100.198C98.6273 99.9927 98.3688 99.8902 98.0033 99.8902C97.9855 99.8902 97.9765 99.8634 97.9765 99.8099C97.9765 99.7564 97.9855 99.7297 98.0033 99.7297L98.5248 99.7431C98.7922 99.7609 99.0107 99.7698 99.18 99.7698C99.3405 99.7698 99.5634 99.7609 99.8487 99.7431L100.397 99.7297ZM116.598 99.9704C116.037 99.9704 115.613 100.113 115.328 100.398C115.052 100.684 114.851 101.169 114.726 101.856C114.726 101.874 114.699 101.883 114.646 101.883C114.601 101.883 114.579 101.874 114.579 101.856C114.615 101.535 114.655 101.116 114.699 100.599C114.744 100.082 114.766 99.694 114.766 99.4355C114.766 99.3909 114.789 99.3686 114.833 99.3686C114.887 99.3686 114.913 99.3909 114.913 99.4355C114.913 99.6316 115.154 99.7297 115.636 99.7297C116.393 99.7564 117.289 99.7698 118.323 99.7698C118.849 99.7698 119.407 99.7609 119.995 99.7431L120.904 99.7297C121.225 99.7297 121.461 99.7074 121.613 99.6628C121.773 99.6183 121.876 99.5291 121.921 99.3954C121.929 99.3597 121.956 99.3419 122.001 99.3419C122.045 99.3419 122.068 99.3597 122.068 99.3954C122.041 99.6539 122.014 100.046 121.987 100.572C121.961 101.098 121.947 101.526 121.947 101.856C121.947 101.874 121.921 101.883 121.867 101.883C121.814 101.883 121.787 101.874 121.787 101.856C121.76 101.161 121.617 100.675 121.359 100.398C121.1 100.113 120.672 99.9704 120.075 99.9704C119.674 99.9704 119.389 99.9882 119.219 100.024C119.05 100.06 118.934 100.135 118.872 100.251C118.809 100.367 118.778 100.563 118.778 100.84V107.004C118.778 107.281 118.809 107.481 118.872 107.606C118.934 107.731 119.054 107.815 119.233 107.86C119.411 107.905 119.692 107.927 120.075 107.927C120.102 107.927 120.115 107.954 120.115 108.007C120.115 108.061 120.102 108.087 120.075 108.087C119.781 108.087 119.545 108.083 119.366 108.074L118.323 108.061L117.32 108.074C117.142 108.083 116.897 108.087 116.585 108.087C116.567 108.087 116.558 108.061 116.558 108.007C116.558 107.954 116.567 107.927 116.585 107.927C116.968 107.927 117.249 107.905 117.427 107.86C117.606 107.815 117.726 107.731 117.788 107.606C117.86 107.472 117.895 107.272 117.895 107.004V100.813C117.895 100.536 117.864 100.345 117.802 100.238C117.739 100.122 117.624 100.051 117.454 100.024C117.285 99.9882 117 99.9704 116.598 99.9704ZM161.772 107.927C161.808 107.927 161.826 107.954 161.826 108.007C161.826 108.061 161.808 108.087 161.772 108.087C161.603 108.087 161.34 108.078 160.983 108.061C160.627 108.043 160.368 108.034 160.208 108.034C160.012 108.034 159.762 108.043 159.459 108.061C159.174 108.078 158.955 108.087 158.804 108.087C158.768 108.087 158.75 108.061 158.75 108.007C158.75 107.954 158.768 107.927 158.804 107.927C159.134 107.927 159.374 107.896 159.526 107.833C159.677 107.771 159.753 107.664 159.753 107.512C159.753 107.388 159.695 107.196 159.579 106.937L158.389 104.41H155.206L154.364 106.389C154.239 106.692 154.177 106.937 154.177 107.125C154.177 107.401 154.284 107.606 154.498 107.74C154.721 107.865 155.05 107.927 155.487 107.927C155.532 107.927 155.554 107.954 155.554 108.007C155.554 108.061 155.532 108.087 155.487 108.087C155.327 108.087 155.095 108.078 154.792 108.061C154.453 108.043 154.159 108.034 153.909 108.034C153.678 108.034 153.41 108.043 153.107 108.061C152.84 108.078 152.617 108.087 152.438 108.087C152.394 108.087 152.372 108.061 152.372 108.007C152.372 107.954 152.394 107.927 152.438 107.927C152.688 107.927 152.898 107.882 153.067 107.793C153.245 107.695 153.41 107.53 153.562 107.298C153.722 107.058 153.896 106.715 154.083 106.269L156.905 99.6093C156.923 99.5826 156.954 99.5692 156.998 99.5692C157.043 99.5692 157.07 99.5826 157.079 99.6093L160.234 106.255C160.538 106.915 160.796 107.361 161.01 107.593C161.224 107.815 161.478 107.927 161.772 107.927ZM155.313 104.143H158.269L156.704 100.84L155.313 104.143ZM180.486 108.248C179.505 108.248 178.649 108.052 177.918 107.659C177.196 107.267 176.644 106.737 176.26 106.068C175.877 105.4 175.685 104.664 175.685 103.862C175.685 102.997 175.904 102.244 176.341 101.602C176.777 100.951 177.375 100.452 178.132 100.104C178.899 99.7564 179.755 99.5826 180.7 99.5826C181.172 99.5826 181.618 99.6272 182.037 99.7163C182.456 99.8055 182.804 99.9347 183.08 100.104C183.151 100.14 183.192 100.171 183.201 100.198C183.209 100.224 183.218 100.291 183.227 100.398L183.388 101.976C183.388 102.003 183.361 102.021 183.308 102.03C183.263 102.039 183.236 102.025 183.227 101.99C182.817 100.528 181.89 99.7966 180.446 99.7966C179.742 99.7966 179.104 99.957 178.534 100.278C177.972 100.59 177.526 101.04 177.196 101.629C176.875 102.208 176.715 102.886 176.715 103.661C176.715 104.419 176.871 105.132 177.183 105.801C177.495 106.469 177.963 107.013 178.587 107.432C179.211 107.842 179.964 108.047 180.847 108.047C181.48 108.047 181.926 107.927 182.184 107.686C182.443 107.437 182.572 107.013 182.572 106.416C182.572 105.952 182.541 105.631 182.478 105.453C182.425 105.266 182.296 105.141 182.091 105.079C181.894 105.016 181.547 104.985 181.048 104.985C180.994 104.985 180.967 104.949 180.967 104.878C180.967 104.851 180.972 104.829 180.981 104.811C180.999 104.784 181.016 104.771 181.034 104.771C181.73 104.816 182.291 104.838 182.719 104.838C183.129 104.838 183.57 104.825 184.043 104.798C184.061 104.798 184.074 104.811 184.083 104.838C184.101 104.856 184.11 104.874 184.11 104.891C184.11 104.954 184.088 104.985 184.043 104.985C183.82 104.976 183.664 105.007 183.575 105.079C183.495 105.141 183.441 105.275 183.414 105.48C183.388 105.676 183.374 106.033 183.374 106.55C183.374 106.951 183.388 107.236 183.414 107.405C183.45 107.575 183.468 107.682 183.468 107.726C183.468 107.78 183.459 107.815 183.441 107.833C183.423 107.851 183.383 107.869 183.321 107.887C182.215 108.128 181.27 108.248 180.486 108.248ZM204.3 106.095C204.3 106.077 204.318 106.068 204.354 106.068C204.381 106.068 204.403 106.073 204.421 106.082C204.447 106.09 204.461 106.104 204.461 106.122C204.381 106.683 204.34 107.272 204.34 107.887C204.34 107.958 204.323 108.012 204.287 108.047C204.26 108.074 204.207 108.087 204.126 108.087H198.523C198.506 108.087 198.497 108.061 198.497 108.007C198.497 107.954 198.506 107.927 198.523 107.927C198.862 107.927 199.107 107.905 199.259 107.86C199.419 107.815 199.526 107.731 199.58 107.606C199.642 107.472 199.673 107.272 199.673 107.004V100.813C199.673 100.545 199.642 100.349 199.58 100.224C199.526 100.1 199.419 100.015 199.259 99.9704C199.107 99.9169 198.862 99.8902 198.523 99.8902C198.506 99.8902 198.497 99.8634 198.497 99.8099C198.497 99.7564 198.506 99.7297 198.523 99.7297H203.899C203.979 99.7297 204.019 99.7698 204.019 99.85L204.046 101.495C204.046 101.522 204.024 101.539 203.979 101.548C203.935 101.548 203.908 101.535 203.899 101.508C203.872 101.036 203.73 100.67 203.471 100.412C203.213 100.144 202.869 100.011 202.442 100.011H201.626C201.314 100.011 201.082 100.037 200.93 100.091C200.788 100.135 200.685 100.22 200.623 100.345C200.569 100.461 200.543 100.639 200.543 100.88V103.594H202.174C202.602 103.594 202.905 103.523 203.083 103.38C203.271 103.238 203.364 102.997 203.364 102.658C203.364 102.64 203.391 102.631 203.444 102.631C203.498 102.631 203.525 102.64 203.525 102.658L203.511 103.741C203.511 104 203.516 104.196 203.525 104.33L203.538 104.972C203.538 104.989 203.511 104.998 203.458 104.998C203.404 104.998 203.378 104.989 203.378 104.972C203.378 104.579 203.28 104.299 203.083 104.129C202.896 103.96 202.58 103.875 202.134 103.875H200.543V106.951C200.543 107.2 200.569 107.383 200.623 107.499C200.676 107.615 200.774 107.695 200.917 107.74C201.06 107.784 201.283 107.807 201.586 107.807H202.656C203.083 107.807 203.44 107.655 203.725 107.352C204.011 107.049 204.202 106.63 204.3 106.095ZM227.917 99.7297C227.944 99.7297 227.957 99.7564 227.957 99.8099C227.957 99.8634 227.944 99.8902 227.917 99.8902C227.543 99.8902 227.271 99.9927 227.102 100.198C226.932 100.403 226.848 100.737 226.848 101.201V108.248C226.848 108.266 226.825 108.279 226.781 108.288C226.736 108.297 226.705 108.292 226.687 108.275L220.536 100.826L220.415 100.692V106.63C220.415 107.093 220.496 107.428 220.656 107.633C220.826 107.829 221.093 107.927 221.458 107.927C221.485 107.927 221.499 107.954 221.499 108.007C221.499 108.061 221.485 108.087 221.458 108.087C221.236 108.087 221.066 108.083 220.95 108.074L220.282 108.061L219.6 108.074C219.475 108.083 219.292 108.087 219.051 108.087C219.034 108.087 219.025 108.061 219.025 108.007C219.025 107.954 219.034 107.927 219.051 107.927C219.435 107.927 219.707 107.829 219.867 107.633C220.028 107.428 220.108 107.093 220.108 106.63V100.372C219.76 100.051 219.408 99.8902 219.051 99.8902C219.025 99.8902 219.011 99.8634 219.011 99.8099C219.011 99.7564 219.025 99.7297 219.051 99.7297L219.546 99.7431C219.653 99.752 219.8 99.7564 219.988 99.7564C220.184 99.7564 220.344 99.752 220.469 99.7431C220.594 99.7341 220.692 99.7297 220.763 99.7297C220.834 99.7297 220.883 99.7475 220.91 99.7832C220.946 99.8099 220.999 99.8768 221.071 99.9838C221.178 100.144 221.285 100.291 221.392 100.425L226.54 106.75V101.201C226.54 100.737 226.46 100.403 226.299 100.198C226.148 99.9927 225.889 99.8902 225.524 99.8902C225.506 99.8902 225.497 99.8634 225.497 99.8099C225.497 99.7564 225.506 99.7297 225.524 99.7297L226.045 99.7431C226.313 99.7609 226.531 99.7698 226.7 99.7698C226.861 99.7698 227.084 99.7609 227.369 99.7431L227.917 99.7297ZM247.087 99.5826C247.649 99.5826 248.122 99.6227 248.505 99.7029C248.888 99.7832 249.272 99.9214 249.655 100.117C249.717 100.153 249.753 100.184 249.762 100.211C249.771 100.238 249.784 100.305 249.802 100.412L249.962 102.003C249.962 102.03 249.936 102.048 249.882 102.056C249.838 102.056 249.811 102.043 249.802 102.016C249.392 100.528 248.474 99.7832 247.047 99.7832C246.298 99.7832 245.639 99.9481 245.068 100.278C244.498 100.608 244.056 101.08 243.744 101.695C243.432 102.302 243.276 103.01 243.276 103.822C243.276 104.597 243.446 105.31 243.784 105.961C244.132 106.603 244.596 107.111 245.175 107.486C245.764 107.86 246.401 108.047 247.087 108.047C247.818 108.047 248.411 107.869 248.866 107.512C249.321 107.156 249.668 106.612 249.909 105.881C249.909 105.863 249.931 105.854 249.976 105.854C250.038 105.854 250.069 105.868 250.069 105.894L249.936 107.365C249.927 107.472 249.913 107.539 249.896 107.566C249.878 107.593 249.842 107.624 249.789 107.659C249.325 107.882 248.888 108.038 248.478 108.128C248.077 108.217 247.613 108.261 247.087 108.261C246.151 108.261 245.313 108.078 244.573 107.713C243.842 107.339 243.272 106.817 242.862 106.148C242.452 105.48 242.247 104.713 242.247 103.848C242.247 103.01 242.456 102.27 242.875 101.629C243.294 100.978 243.869 100.474 244.6 100.117C245.34 99.7609 246.169 99.5826 247.087 99.5826ZM272.342 99.7297C272.36 99.7297 272.368 99.7564 272.368 99.8099C272.368 99.8634 272.36 99.8902 272.342 99.8902C272.021 99.8902 271.695 100.011 271.366 100.251C271.036 100.483 270.741 100.804 270.483 101.214L268.691 103.969V107.004C268.691 107.281 268.718 107.481 268.771 107.606C268.825 107.731 268.927 107.815 269.079 107.86C269.239 107.905 269.489 107.927 269.828 107.927C269.854 107.927 269.868 107.954 269.868 108.007C269.868 108.061 269.854 108.087 269.828 108.087C269.551 108.087 269.337 108.083 269.186 108.074L268.25 108.061L267.327 108.074C267.167 108.083 266.948 108.087 266.672 108.087C266.645 108.087 266.632 108.061 266.632 108.007C266.632 107.954 266.645 107.927 266.672 107.927C267.011 107.927 267.256 107.905 267.407 107.86C267.568 107.815 267.675 107.731 267.728 107.606C267.791 107.472 267.822 107.272 267.822 107.004V104.183L265.602 100.933C265.352 100.541 265.116 100.269 264.893 100.117C264.67 99.9659 264.412 99.8902 264.118 99.8902C264.091 99.8902 264.078 99.8634 264.078 99.8099C264.078 99.7564 264.091 99.7297 264.118 99.7297C264.225 99.7297 264.385 99.7386 264.599 99.7564L265.067 99.7698C265.37 99.7698 265.754 99.7609 266.217 99.7431L266.939 99.7297C266.957 99.7297 266.966 99.7564 266.966 99.8099C266.966 99.8634 266.957 99.8902 266.939 99.8902C266.476 99.8902 266.244 99.9838 266.244 100.171C266.244 100.269 266.288 100.38 266.378 100.505L268.531 103.661L270.162 101.161C270.358 100.849 270.456 100.586 270.456 100.372C270.456 100.051 270.215 99.8902 269.734 99.8902C269.716 99.8902 269.707 99.8634 269.707 99.8099C269.707 99.7564 269.716 99.7297 269.734 99.7297L270.363 99.7431C270.701 99.7609 271.013 99.7698 271.299 99.7698C271.45 99.7698 271.633 99.7609 271.847 99.7431L272.342 99.7297Z" fill="#6F6F6F"/>
<defs>
<linearGradient id="paint0_linear_3137_1243" x1="150.105" y1="81.4598" x2="299.875" y2="81.4598" gradientUnits="userSpaceOnUse">
<stop stop-color="#6F6F6F"/>
<stop offset="1" stop-color="#EDAE8F" stop-opacity="0"/>
</linearGradient>
<linearGradient id="paint1_linear_3137_1243" x1="150.105" y1="81.4598" x2="0.33458" y2="81.4598" gradientUnits="userSpaceOnUse">
<stop stop-color="#6F6F6F"/>
<stop offset="1" stop-color="#EDAE8F" stop-opacity="0"/>
</linearGradient>
</defs>
</svg>
