<svg width="220" height="83" viewBox="0 0 220 83" fill="none" xmlns="http://www.w3.org/2000/svg"><path d="m.062 41.782 5.21-2.59V.331h7.814l10.419 20.725L33.925.333h7.814V39.19l5.208 2.592H31.32l5.21-2.59V5.513L26.11 26.238H20.9L10.48 5.514V39.19l5.21 2.592H.062z" fill="#6F6F6F"/><path d="m58.287 41.782 5.21-2.59V2.922l-5.21-2.59h15.629l-5.21 2.59v36.268l5.21 2.592h-15.63z" fill="#6F6F6F"/><path d="m150.62.333 20.84 41.45h-5.21l-15.63-31.088-15.63 31.087h-5.208L150.62.332z" fill="#6F6F6F"/><path d="m208.276 34.014 2.638 5.116L220 21.057v-5.18h-33.862V5.513h28.653l2.605-5.181h-36.467v20.724h33.863l-6.514 12.957z" fill="#6F6F6F"/><path d="M183.533 41.782h25.994l-2.672-5.181h-25.927l2.605 5.182z" fill="#6F6F6F"/><path d="m115.04 36.6.006-.008 2.604 5.181-.004.01H88.993V.332h28.653l10.42 20.724-9.045 17.99-2.604-5.18 6.44-12.81-7.815-15.543H94.204V36.6h20.838z" fill="#6F6F6F"/><path d="M110.076 59.337h109.832" stroke="url(#paint0_linear_3647_1201)" stroke-width="0.735479"/><path d="M110.076 59.337H.245" stroke="url(#paint1_linear_3647_1201)" stroke-width="0.735479"/><path d="M24.894 78.336c0-.013.013-.02.04-.02a.11.11 0 0 1 .049.01c.02.006.029.016.029.03a9.14 9.14 0 0 0-.088 1.294c0 .052-.013.091-.04.117-.02.02-.058.03-.117.03h-4.11c-.012 0-.019-.02-.019-.06 0-.038.007-.058.02-.058.248 0 .428-.017.54-.05.117-.033.195-.095.235-.186.045-.098.068-.245.068-.442v-4.54c.001-.196-.022-.34-.067-.431-.04-.09-.118-.153-.236-.186-.11-.04-.29-.059-.54-.059-.012 0-.019-.02-.019-.059s.007-.058.02-.058H24.6c.059 0 .088.03.088.088l.02 1.206c0 .02-.017.033-.05.04-.032 0-.051-.01-.058-.03-.02-.346-.124-.615-.314-.804-.19-.196-.441-.294-.755-.294h-.597c-.229 0-.399.02-.51.059a.36.36 0 0 0-.226.186c-.039.084-.058.215-.058.391v1.992h1.195c.314 0 .536-.053.667-.157.137-.105.206-.281.206-.53 0-.013.02-.02.059-.02s.058.007.058.02l-.01.795c0 .19.004.333.01.431l.01.472c0 .013-.02.02-.059.02s-.058-.007-.058-.02c0-.288-.072-.494-.216-.618-.138-.124-.37-.186-.696-.186h-1.167v2.255c-.001.183.018.317.058.402a.33.33 0 0 0 .215.177c.105.032.268.049.49.049h.785c.314 0 .575-.11.785-.333.209-.222.35-.53.421-.922zm16.976-4.668c.02 0 .03.02.03.059s-.01.058-.03.058a.964.964 0 0 0-.578.177c-.164.118-.301.317-.412.598l-2.09 5.227c-.006.026-.042.04-.107.04-.052 0-.088-.014-.108-.04l-2.442-5.305c-.11-.255-.228-.435-.353-.54a.72.72 0 0 0-.48-.157c-.02 0-.03-.02-.03-.059s.01-.058.03-.058l.373.01c.182.013.33.02.44.02.262 0 .543-.007.844-.02l.402-.01c.019 0 .029.02.029.059-.001.039-.011.058-.03.058-.406 0-.609.115-.609.344.001.077.03.182.09.312l2.05 4.492 1.764-4.423a.983.983 0 0 0 .079-.323.322.322 0 0 0-.187-.304c-.124-.065-.317-.098-.578-.098-.02 0-.03-.02-.03-.059s.01-.058.03-.058l.421.01c.222.013.424.02.607.02.138 0 .291-.007.461-.02l.412-.01zm14.435 4.668c0-.013.013-.02.04-.02a.11.11 0 0 1 .049.01c.02.006.029.016.029.03a9.155 9.155 0 0 0-.088 1.294c0 .052-.013.091-.04.117-.02.02-.058.03-.117.03h-4.11c-.012 0-.019-.02-.019-.06 0-.038.006-.058.019-.058.247 0 .427-.017.538-.05.118-.033.196-.095.236-.186.045-.098.068-.245.068-.442v-4.54c0-.196-.023-.34-.068-.431-.04-.09-.118-.153-.236-.186-.11-.04-.29-.059-.54-.059-.012 0-.019-.02-.019-.059s.006-.058.019-.058h3.941c.06 0 .09.03.09.088l.019 1.206c-.001.02-.017.033-.05.04-.033 0-.052-.01-.059-.03-.018-.346-.123-.615-.313-.804-.19-.196-.44-.294-.755-.294h-.598c-.229 0-.399.02-.51.059a.36.36 0 0 0-.225.186c-.04.084-.06.215-.06.391v1.992h1.196c.314 0 .536-.053.667-.157.137-.105.206-.281.206-.53-.001-.013.018-.02.058-.02.039 0 .058.007.058.02l-.01.795c0 .19.004.333.01.431l.01.472c0 .013-.02.02-.058.02-.04 0-.06-.007-.06-.02 0-.288-.071-.494-.215-.618-.137-.124-.37-.186-.696-.186H53.55v2.255c0 .183.02.317.059.402a.33.33 0 0 0 .214.177c.105.032.268.049.49.049h.785c.313 0 .574-.11.784-.333.209-.222.35-.53.421-.922zm17.32-4.668c.02 0 .029.02.029.059s-.01.058-.03.058c-.274 0-.474.076-.598.226-.124.151-.186.396-.186.736v5.168c0 .013-.016.023-.05.03-.032.006-.055.003-.068-.01l-4.51-5.462-.09-.098v4.354c0 .34.06.585.177.735.124.144.32.216.588.216.02 0 .03.019.03.058 0 .04-.01.059-.03.059a5.28 5.28 0 0 1-.373-.01l-.49-.01-.5.01c-.092.006-.226.01-.402.01-.013 0-.02-.02-.02-.06 0-.038.007-.058.02-.058.28 0 .48-.073.598-.217.119-.15.177-.395.177-.735v-4.59c-.255-.235-.513-.353-.774-.353-.02 0-.03-.02-.03-.059s.01-.058.03-.058l.363.01a5.17 5.17 0 0 0 .677 0c.09-.007.162-.01.214-.01s.088.013.108.039c.026.02.065.069.118.147.078.118.156.226.235.324l3.774 4.638v-4.07c0-.34-.059-.585-.176-.735-.111-.15-.3-.225-.569-.225-.014 0-.02-.02-.02-.059s.006-.058.02-.058l.382.01c.196.013.356.02.48.02.118 0 .281-.007.49-.02l.402-.01zm11.88.176c-.411 0-.722.105-.931.314-.203.21-.35.566-.441 1.069 0 .013-.02.02-.06.02-.032 0-.048-.007-.048-.02.026-.235.055-.543.088-.922.033-.38.05-.663.05-.853 0-.033.015-.05.048-.05.04 0 .06.017.06.05 0 .144.176.216.53.216.555.02 1.212.03 1.97.03.386 0 .795-.007 1.226-.02l.667-.01c.235 0 .409-.017.52-.05.118-.032.193-.097.225-.195.007-.027.027-.04.06-.04.032 0 .048.013.048.04-.02.19-.04.477-.059.863-.02.385-.03.7-.03.94 0 .014-.019.02-.058.02-.04 0-.06-.006-.06-.02-.02-.51-.124-.865-.313-1.068-.19-.21-.504-.314-.942-.314a3.46 3.46 0 0 0-.628.04c-.124.026-.209.081-.255.166-.045.085-.068.23-.068.432v4.52c0 .203.023.35.069.442.045.091.134.153.264.186.131.033.337.05.618.05.02 0 .03.019.03.058 0 .04-.01.059-.03.059-.216 0-.389-.004-.52-.01l-.765-.01-.735.01c-.13.006-.31.01-.54.01-.012 0-.02-.02-.02-.06 0-.038.008-.058.02-.058.282 0 .488-.017.618-.05.131-.033.22-.095.265-.186.052-.098.079-.245.079-.442v-4.54c0-.203-.023-.343-.07-.422-.045-.085-.13-.137-.254-.157a3.46 3.46 0 0 0-.628-.039zm33.128 5.835c.026 0 .04.019.04.058 0 .04-.014.059-.04.059-.124 0-.317-.007-.58-.02-.26-.013-.45-.02-.567-.02a9.65 9.65 0 0 0-.55.02c-.21.013-.37.02-.48.02-.026 0-.04-.02-.04-.06 0-.038.014-.058.04-.058.242 0 .418-.024.53-.07.11-.045.166-.124.166-.235 0-.091-.042-.232-.127-.422l-.873-1.853h-2.334l-.618 1.451c-.09.224-.137.403-.137.54 0 .203.078.354.235.452.164.091.406.137.726.137.033 0 .05.019.05.058 0 .04-.017.059-.05.059-.118 0-.288-.007-.51-.02-.248-.013-.464-.02-.647-.02-.17 0-.366.007-.59.02-.195.013-.358.02-.49.02-.032 0-.048-.02-.048-.06 0-.038.015-.058.048-.058a.982.982 0 0 0 .46-.1 1.06 1.06 0 0 0 .364-.362 4.62 4.62 0 0 0 .382-.755l2.07-4.884c.013-.02.035-.03.068-.03.033 0 .052.01.06.03l2.313 4.873c.223.484.412.81.57.98a.75.75 0 0 0 .558.246zm-4.736-2.776h2.167l-1.148-2.422-1.02 2.422zm18.46 3.01c-.72 0-1.347-.144-1.883-.431a3.03 3.03 0 0 1-1.216-1.167 3.187 3.187 0 0 1-.422-1.618c0-.634.16-1.187.48-1.657.32-.477.76-.843 1.314-1.098.563-.255 1.19-.382 1.883-.382.347 0 .674.033.98.098.308.065.563.16.766.284.05.026.08.05.087.069a.85.85 0 0 1 .02.148l.117 1.157c0 .02-.02.033-.058.04-.033.006-.053-.004-.06-.03-.3-1.072-.98-1.608-2.04-1.608-.516 0-.983.117-1.4.353-.413.229-.74.559-.982.99-.235.425-.353.922-.353 1.49 0 .556.115 1.08.344 1.57.23.49.572.889 1.03 1.196.457.3 1.01.451 1.657.451.465 0 .792-.088.982-.264.19-.184.284-.494.284-.932 0-.34-.023-.574-.068-.705a.393.393 0 0 0-.285-.275c-.144-.045-.4-.068-.765-.068-.04 0-.06-.027-.06-.079 0-.02.005-.036.01-.049.014-.02.027-.03.04-.03.51.033.922.05 1.236.05.3 0 .624-.01.97-.03.014 0 .024.01.03.03.013.013.02.026.02.04 0 .045-.016.068-.05.068-.163-.007-.277.016-.342.068-.06.046-.098.144-.118.294a6.81 6.81 0 0 0-.03.785c0 .293.01.502.03.627.026.124.04.202.04.235 0 .04-.007.065-.02.078a.228.228 0 0 1-.09.04c-.81.176-1.502.264-2.078.264zm17.463-1.578c0-.013.013-.02.04-.02.02 0 .035.003.048.01.02.006.03.016.03.03-.06.41-.088.842-.088 1.294 0 .052-.013.091-.04.117-.02.02-.058.03-.117.03h-4.11c-.012 0-.02-.02-.02-.06 0-.038.008-.058.02-.058.25 0 .43-.017.54-.05.118-.033.196-.095.236-.186.044-.098.067-.245.067-.442v-4.54c0-.196-.023-.34-.068-.431-.04-.09-.12-.153-.237-.186-.11-.04-.29-.059-.54-.059-.012 0-.02-.02-.02-.059s.008-.058.02-.058h3.943c.06 0 .088.03.088.088l.02 1.206c0 .02-.016.033-.05.04-.032 0-.05-.01-.058-.03-.02-.346-.124-.615-.314-.804-.19-.196-.44-.294-.755-.294h-.598c-.23 0-.4.02-.51.059a.36.36 0 0 0-.227.186c-.04.084-.058.215-.058.391v1.992h1.196c.315 0 .537-.053.668-.157.137-.105.206-.281.206-.53 0-.013.02-.02.06-.02.038 0 .057.007.057.02l-.008.795c0 .19.003.333.01.431l.01.472c0 .013-.02.02-.06.02s-.058-.007-.058-.02c0-.288-.072-.494-.216-.618-.137-.124-.37-.186-.696-.186h-1.167v2.255c0 .183.02.317.058.402.04.085.112.144.216.177.104.032.267.049.49.049h.784c.314 0 .575-.11.785-.333.208-.222.348-.53.42-.922zm17.32-4.668c.02 0 .03.02.03.059s-.01.058-.03.058c-.275 0-.475.076-.6.226-.123.151-.185.396-.185.736v5.168c0 .013-.016.023-.05.03-.032.006-.055.003-.068-.01l-4.51-5.462-.09-.098v4.354c0 .34.06.585.177.735.125.144.32.216.59.216.018 0 .028.019.028.058 0 .04-.01.059-.03.059a5.28 5.28 0 0 1-.372-.01l-.49-.01-.5.01c-.092.006-.226.01-.402.01-.013 0-.02-.02-.02-.06 0-.038.007-.058.02-.058.28 0 .48-.073.598-.217.118-.15.176-.395.176-.735v-4.59c-.255-.235-.513-.353-.774-.353-.02 0-.03-.02-.03-.059s.01-.058.03-.058l.363.01a5.152 5.152 0 0 0 .676 0c.093-.007.165-.01.217-.01.052 0 .088.013.108.039.027.02.066.069.118.147.08.118.157.226.236.324l3.775 4.638v-4.07c0-.34-.06-.585-.177-.735-.11-.15-.3-.225-.57-.225-.012 0-.02-.02-.02-.059s.008-.058.02-.058l.383.01c.197.013.357.02.48.02.12 0 .282-.007.49-.02l.403-.01zm14.057-.108c.412 0 .76.03 1.04.088.28.059.562.16.843.304.046.026.072.05.08.069.005.02.015.07.028.148l.118 1.167c0 .02-.02.033-.06.04-.032 0-.05-.01-.058-.03-.3-1.092-.974-1.638-2.02-1.638-.55 0-1.033.12-1.45.363-.42.242-.743.588-.972 1.04-.23.444-.343.964-.343 1.559 0 .567.124 1.09.372 1.568.255.47.595.843 1.02 1.117.432.275.9.412 1.402.412.537 0 .97-.13 1.305-.392.333-.261.588-.66.765-1.196 0-.014.016-.02.05-.02.044 0 .067.009.067.028l-.098 1.08a.382.382 0 0 1-.03.146.28.28 0 0 1-.078.069c-.34.163-.66.278-.96.343a4.73 4.73 0 0 1-1.02.098c-.687 0-1.302-.134-1.844-.402a3.086 3.086 0 0 1-1.255-1.147c-.302-.49-.452-1.053-.452-1.687 0-.615.153-1.157.46-1.628.308-.477.73-.846 1.265-1.108.543-.261 1.15-.392 1.824-.392zm18.52.108c.013 0 .02.02.02.059s-.007.058-.02.058c-.235 0-.474.089-.716.265a2.43 2.43 0 0 0-.646.706l-1.314 2.02v2.226c0 .203.02.35.06.442.038.091.113.153.224.186.118.033.3.05.55.05.02 0 .03.019.03.058 0 .04-.01.059-.03.059-.203 0-.36-.004-.47-.01l-.688-.01-.676.01c-.118.006-.278.01-.48.01-.02 0-.03-.02-.03-.06 0-.038.01-.058.03-.058.248 0 .428-.017.54-.05.116-.033.195-.095.234-.186.046-.098.07-.245.07-.442v-2.069l-1.63-2.383c-.182-.287-.355-.487-.52-.598a.986.986 0 0 0-.568-.167c-.02 0-.03-.02-.03-.059s.01-.058.03-.058c.08 0 .196.006.353.02l.343.01c.222 0 .503-.007.843-.02l.53-.01c.013 0 .02.02.02.059s-.007.058-.02.058c-.34 0-.51.07-.51.206 0 .073.032.155.098.247l1.578 2.314 1.197-1.833c.143-.229.215-.422.215-.579 0-.235-.177-.353-.53-.353-.013 0-.02-.02-.02-.059s.007-.058.02-.058l.46.01c.25.013.478.02.687.02.11 0 .246-.007.402-.02l.363-.01z" fill="#6F6F6F"/><defs><linearGradient id="paint0_linear_3647_1201" x1="110.076" y1="60.3361" x2="219.908" y2="60.3361" gradientUnits="userSpaceOnUse"><stop stop-color="#6F6F6F"/><stop offset="1" stop-color="#EDAE8F" stop-opacity="0"/></linearGradient><linearGradient id="paint1_linear_3647_1201" x1="110.076" y1="60.3361" x2="0.244721" y2="60.3361" gradientUnits="userSpaceOnUse"><stop stop-color="#6F6F6F"/><stop offset="1" stop-color="#EDAE8F" stop-opacity="0"/></linearGradient></defs></svg>