<svg width="160" height="61" viewBox="0 0 160 61" fill="none" xmlns="http://www.w3.org/2000/svg"><path d="m.044 30.976 3.79-1.892V.696h5.683l7.577 15.14L24.672.696h5.683v28.388l3.789 1.892H22.777l3.79-1.892V4.48l-7.578 15.141h-3.79L7.622 4.482v24.604l3.789 1.892H.045z" fill="#6F6F6F"/><path d="m42.39 30.976 3.79-1.892V2.589L42.39.695h11.367l-3.79 1.893v26.494l3.79 1.892H42.39z" fill="#6F6F6F"/><path d="m109.542.696 15.155 30.28h-3.79l-11.365-22.71-11.367 22.71h-3.789L109.542.696z" fill="#6F6F6F"/><path d="m151.473 25.302 1.92 3.737L160 15.835v-3.785h-24.628V4.482h20.84l1.893-3.784h-26.52v15.14h24.626l-4.737 9.466z" fill="#6F6F6F"/><path d="M133.478 30.976h18.905l-1.943-3.785h-18.856l1.894 3.786z" fill="#6F6F6F"/><path d="m83.666 27.191.003-.005 1.894 3.785-.004.006H64.723V.696H85.56l7.578 15.14-6.578 13.142-1.894-3.785 4.683-9.357-5.684-11.355H68.511v22.711h15.156z" fill="#6F6F6F"/><path d="M80.056 43.8h79.877" stroke="url(#paint0_linear_3647_698)" stroke-width="0.534894"/><path d="M80.056 43.8H.178" stroke="url(#paint1_linear_3647_698)" stroke-width="0.534894"/><path d="M18.105 58.11c0-.01.01-.015.028-.015a.08.08 0 0 1 .036.007c.013.005.02.012.02.021-.042.3-.064.614-.064.942 0 .038-.01.066-.028.086-.014.015-.043.022-.086.022h-2.988c-.01 0-.014-.014-.014-.043 0-.03.004-.044.014-.044.18 0 .311-.012.392-.035.086-.023.143-.068.171-.135a.792.792 0 0 0 .05-.32v-3.303a.74.74 0 0 0-.05-.314c-.028-.066-.085-.111-.17-.135a1.288 1.288 0 0 0-.393-.043c-.01 0-.014-.014-.014-.043 0-.028.004-.043.014-.043h2.867c.044 0 .065.022.065.065l.014.876c0 .014-.012.024-.036.028-.024 0-.038-.007-.043-.02-.013-.253-.09-.448-.227-.586a.73.73 0 0 0-.55-.214h-.435c-.166 0-.29.014-.37.043a.26.26 0 0 0-.164.135.718.718 0 0 0-.043.286v1.448h.87c.23 0 .39-.039.486-.115.1-.075.15-.203.15-.384 0-.01.014-.014.042-.014.03 0 .043.005.043.014l-.006.578c0 .138.003.243.007.314l.008.342c0 .01-.014.014-.042.014-.03 0-.043-.004-.043-.014 0-.21-.053-.359-.157-.45-.1-.09-.269-.135-.507-.135h-.85v1.64c0 .134.015.231.044.293a.24.24 0 0 0 .157.128c.077.024.195.036.357.036h.57a.75.75 0 0 0 .571-.242c.152-.162.255-.385.307-.67zm12.346-3.396c.015 0 .022.015.022.043 0 .029-.007.043-.02.043a.7.7 0 0 0-.422.128c-.119.086-.219.23-.3.435l-1.518 3.802c-.005.019-.031.028-.079.028-.038 0-.064-.01-.078-.028l-1.776-3.859c-.082-.185-.168-.316-.258-.392a.524.524 0 0 0-.35-.114c-.014 0-.02-.014-.02-.043 0-.028.006-.043.02-.043l.272.007c.133.011.24.016.32.016.19 0 .395-.005.614-.014l.292-.008c.015 0 .022.015.022.043 0 .029-.007.043-.022.043-.295 0-.442.083-.442.25 0 .057.021.133.064.228l1.49 3.266 1.285-3.216a.714.714 0 0 0 .057-.236c0-.1-.045-.173-.136-.22-.09-.048-.23-.072-.42-.072-.015 0-.022-.014-.022-.043 0-.028.007-.043.021-.043l.307.007c.162.011.31.016.442.016.1 0 .212-.005.336-.014l.3-.008zm10.5 3.395c0-.01.009-.015.028-.015a.08.08 0 0 1 .035.007c.015.005.022.012.022.021-.043.3-.064.614-.064.942 0 .038-.009.066-.028.086-.014.015-.043.022-.085.022h-2.989c-.01 0-.014-.014-.014-.043 0-.03.005-.044.014-.044.18 0 .312-.012.393-.035.086-.023.143-.068.172-.135a.792.792 0 0 0 .05-.32v-3.303a.74.74 0 0 0-.05-.314c-.029-.066-.086-.111-.171-.135a1.29 1.29 0 0 0-.392-.043c-.01 0-.014-.014-.014-.043 0-.028.005-.043.014-.043h2.867c.043 0 .064.022.064.065l.014.876c0 .014-.012.024-.036.028-.024 0-.038-.007-.043-.02-.014-.253-.09-.448-.228-.586a.73.73 0 0 0-.55-.214h-.434c-.167 0-.29.014-.37.043a.262.262 0 0 0-.165.135.718.718 0 0 0-.043.286v1.448h.87c.229 0 .39-.039.485-.115.1-.075.15-.203.15-.384 0-.01.014-.014.043-.014.028 0 .043.005.043.014l-.007.578c-.001.138 0 .243.006.314l.007.342c0 .01-.014.014-.043.014-.028 0-.043-.004-.043-.014 0-.21-.052-.359-.157-.45-.1-.09-.268-.135-.506-.135h-.849v1.64c0 .134.014.231.043.293a.24.24 0 0 0 .157.128c.076.024.195.036.356.036h.572a.75.75 0 0 0 .57-.242c.153-.162.255-.385.307-.67zm12.595-3.396c.014 0 .021.015.021.043 0 .029-.007.043-.02.043-.2 0-.346.055-.436.164-.09.11-.136.288-.136.535v3.757c0 .01-.011.017-.035.022-.025.004-.042.001-.051-.008l-3.282-3.973-.064-.072v3.167c0 .247.043.425.128.534.09.104.233.156.428.156.015 0 .022.014.022.043 0 .028-.007.042-.022.042-.119 0-.209-.003-.27-.007l-.357-.007-.364.007a4.403 4.403 0 0 1-.293.007c-.01 0-.015-.014-.015-.043 0-.03.005-.044.015-.044.204 0 .35-.052.435-.157.085-.11.128-.288.128-.535v-3.338c-.185-.171-.373-.257-.563-.257-.015 0-.022-.014-.022-.043 0-.028.007-.043.022-.043l.263.007a3.703 3.703 0 0 0 .492 0c.067-.004.12-.007.157-.007.038 0 .064.01.078.029.019.014.047.05.086.107.056.086.114.164.17.235l2.746 3.374v-2.961c0-.248-.042-.427-.128-.536-.08-.11-.219-.164-.414-.164-.01 0-.014-.014-.014-.043 0-.028.005-.043.014-.043l.279.007c.142.011.259.016.35.016.085 0 .203-.005.356-.014l.292-.008zm8.64.129c-.299 0-.525.076-.677.228-.147.153-.254.412-.32.778 0 .01-.015.015-.043.015-.024 0-.036-.005-.036-.015.018-.17.04-.394.063-.67.024-.276.036-.483.036-.62-.001-.024.01-.036.034-.036.029 0 .043.012.043.035 0 .105.129.157.385.157.404.015.882.022 1.434.022.28 0 .577-.005.891-.014l.485-.008c.171 0 .297-.012.378-.035.086-.025.14-.073.164-.144.005-.019.02-.028.043-.028.024 0 .036.01.036.028-.014.138-.029.347-.043.628-.014.28-.021.508-.021.684-.002.01-.016.015-.044.015-.029 0-.043-.005-.043-.015-.014-.37-.09-.63-.228-.777-.138-.151-.366-.227-.685-.227-.214 0-.366.01-.456.028-.09.02-.153.06-.186.123-.033.061-.05.166-.05.313v3.288c0 .148.017.254.05.321.034.067.098.112.193.136.096.024.246.036.45.036.014 0 .021.014.021.043.002.028-.006.042-.02.042-.157 0-.283-.003-.378-.007l-.556-.007-.535.007a8.244 8.244 0 0 1-.391.007c-.01 0-.016-.014-.016-.043 0-.03.005-.044.015-.044.203 0 .353-.012.448-.035.095-.023.16-.068.193-.135a.703.703 0 0 0 .058-.32v-3.303c0-.147-.017-.25-.05-.307-.034-.061-.095-.1-.186-.114a2.514 2.514 0 0 0-.456-.027zm24.094 4.243c.018 0 .027.014.027.043 0 .028-.01.042-.028.042-.092 0-.232-.005-.422-.014a9.366 9.366 0 0 0-.414-.015c-.104 0-.238.005-.4.015-.151.01-.268.014-.349.014-.019 0-.028-.014-.028-.043 0-.03.01-.044.028-.044.176 0 .305-.016.385-.05.081-.033.122-.09.122-.17a.86.86 0 0 0-.093-.308l-.636-1.347h-1.697l-.45 1.056c-.066.162-.1.292-.1.392a.36.36 0 0 0 .172.328c.118.067.294.1.527.1.023 0 .035.014.035.043 0 .028-.012.042-.035.042-.086 0-.21-.005-.371-.014a7.398 7.398 0 0 0-.899 0c-.143.01-.261.014-.356.014-.023 0-.035-.014-.035-.043 0-.03.012-.044.035-.044a.714.714 0 0 0 .336-.07.774.774 0 0 0 .264-.265 3.4 3.4 0 0 0 .278-.548l1.505-3.552c.01-.014.026-.021.05-.021.023-.001.037.006.042.02l1.683 3.545c.162.352.3.59.414.713.114.119.25.178.407.178zm-3.446-2.018h1.576l-.834-1.762-.742 1.762zm13.425 2.19c-.524 0-.98-.105-1.37-.314a2.206 2.206 0 0 1-.884-.85 2.324 2.324 0 0 1-.307-1.176c-.001-.46.115-.863.348-1.205.233-.347.552-.614.956-.799a3.28 3.28 0 0 1 1.37-.278c.251 0 .49.024.713.071.223.048.408.117.556.207.038.02.06.036.064.05.005.014.01.05.014.107l.087.843c0 .014-.014.023-.043.028-.024.006-.038-.001-.043-.02-.217-.78-.712-1.17-1.482-1.17-.376 0-.716.086-1.02.257-.3.166-.537.406-.713.72-.171.31-.257.67-.257 1.084 0 .405.083.786.25 1.142.166.357.416.647.748.87.333.22.735.329 1.206.329.337 0 .575-.064.713-.192.138-.133.207-.36.207-.678 0-.247-.017-.418-.05-.513a.284.284 0 0 0-.207-.2c-.105-.033-.29-.05-.556-.05-.03 0-.044-.019-.044-.057a.08.08 0 0 1 .007-.035c.01-.015.02-.022.029-.022.37.024.67.036.898.036.219-.001.454-.008.706-.023.01 0 .017.007.022.022.01.008.014.018.014.027 0 .034-.012.05-.036.05-.119-.004-.202.012-.25.05-.042.033-.07.105-.085.214a4.99 4.99 0 0 0-.02.572c0 .214.007.366.021.456.02.09.03.148.03.171 0 .028-.005.047-.015.056-.01.01-.03.02-.064.029-.588.128-1.092.192-1.51.192zm12.7-1.149c0-.01.01-.015.03-.015.013 0 .025.002.034.007.015.005.022.012.022.021-.043.3-.064.614-.064.942 0 .038-.01.066-.03.086-.013.015-.042.022-.085.022h-2.988c-.01 0-.015-.014-.015-.043 0-.03.005-.044.014-.044.18 0 .31-.012.39-.035.087-.023.144-.068.173-.135a.797.797 0 0 0 .05-.32v-3.303a.744.744 0 0 0-.05-.314c-.03-.066-.086-.111-.172-.135a1.282 1.282 0 0 0-.39-.043c-.01 0-.015-.014-.015-.043 0-.028.005-.043.014-.043h2.866c.043 0 .064.022.064.065l.015.876c0 .014-.012.024-.036.028-.025 0-.04-.007-.044-.02-.014-.253-.09-.448-.228-.586a.73.73 0 0 0-.55-.214h-.434c-.167 0-.29.014-.37.043a.26.26 0 0 0-.165.135.708.708 0 0 0-.044.286v1.448h.87c.228 0 .39-.039.485-.115.1-.075.15-.203.15-.384 0-.01.015-.014.044-.014.028 0 .043.005.043.014l-.008.578c0 .138.002.243.007.314l.007.342c0 .01-.015.014-.043.014s-.042-.004-.042-.014c0-.21-.052-.359-.157-.45-.1-.09-.267-.135-.505-.135h-.85v1.64c0 .134.015.231.044.293a.24.24 0 0 0 .156.128c.076.024.195.036.356.036h.57a.75.75 0 0 0 .57-.242c.154-.162.256-.385.308-.67zm12.596-3.396c.014 0 .02.015.02.043 0 .029-.006.043-.02.043-.2 0-.345.055-.435.164-.09.11-.135.288-.135.535v3.757c0 .01-.012.017-.035.022-.024.004-.04.001-.05-.008l-3.28-3.973-.065-.072v3.167c0 .247.043.425.128.534.09.104.233.156.428.156.015 0 .023.014.023.043 0 .028-.008.042-.022.042-.118 0-.208-.003-.27-.007l-.356-.007-.364.007a4.418 4.418 0 0 1-.293.007c-.01 0-.014-.014-.014-.043 0-.03.005-.044.014-.044.205 0 .35-.052.435-.157.086-.11.13-.288.13-.535v-3.338c-.187-.171-.374-.257-.565-.257-.014 0-.02-.014-.02-.043 0-.028.006-.043.02-.043l.264.007a3.683 3.683 0 0 0 .492 0c.068-.004.12-.007.158-.007.038 0 .065.01.08.029.018.014.046.05.084.107.057.086.114.164.172.235l2.745 3.374v-2.961c0-.248-.04-.427-.127-.536-.08-.11-.22-.164-.414-.164-.01 0-.015-.014-.015-.043 0-.028.005-.043.014-.043l.277.007c.143.011.26.016.35.016.085 0 .204-.005.356-.014l.293-.008zm10.224-.078c.3 0 .55.021.756.064.204.043.41.117.613.221.033.02.052.037.056.051a.97.97 0 0 1 .022.108l.085.849c0 .014-.014.024-.042.028-.023 0-.038-.007-.042-.02-.22-.795-.71-1.192-1.47-1.192-.4 0-.75.088-1.055.264a1.78 1.78 0 0 0-.706.756 2.45 2.45 0 0 0-.25 1.134c0 .413.09.794.27 1.14.187.343.434.614.743.814.314.2.654.3 1.02.3.39 0 .706-.095.948-.285.243-.19.428-.48.557-.87 0-.01.012-.014.035-.014.034 0 .05.008.05.022l-.07.785a.3.3 0 0 1-.022.107.225.225 0 0 1-.057.05 3.22 3.22 0 0 1-.698.25 3.453 3.453 0 0 1-.742.07c-.5 0-.946-.097-1.34-.292a2.25 2.25 0 0 1-.914-.834 2.305 2.305 0 0 1-.328-1.227c0-.446.112-.84.335-1.183.224-.347.53-.616.92-.806a3.02 3.02 0 0 1 1.327-.284zm13.47.078c.008 0 .013.015.013.043 0 .029-.005.043-.014.043a.885.885 0 0 0-.522.193 1.75 1.75 0 0 0-.47.513l-.956 1.47v1.618c0 .148.014.254.043.321a.238.238 0 0 0 .164.136c.084.024.217.036.398.036.014 0 .02.014.02.043 0 .028-.006.042-.02.042-.147 0-.26-.003-.342-.007l-.5-.007-.492.007a6.567 6.567 0 0 1-.35.007c-.013 0-.02-.014-.02-.043 0-.03.007-.044.02-.044.182 0 .312-.012.393-.035.086-.023.143-.068.17-.135a.78.78 0 0 0 .05-.32v-1.506l-1.183-1.734c-.133-.209-.26-.354-.378-.435a.714.714 0 0 0-.413-.12c-.014 0-.022-.014-.022-.043 0-.028.01-.043.023-.043.057 0 .142.005.257.015l.25.006c.16 0 .365-.005.612-.014l.386-.008c.01 0 .014.015.014.043 0 .029-.005.043-.014.043-.248 0-.37.05-.37.15 0 .052.023.111.07.178l1.148 1.683.87-1.333c.105-.166.157-.306.157-.42 0-.171-.128-.257-.385-.257-.01 0-.014-.014-.014-.043 0-.028.005-.043.014-.043l.335.007c.18.011.347.016.5.016.08 0 .178-.005.292-.014l.264-.008z" fill="#6F6F6F"/><defs><linearGradient id="paint0_linear_3647_698" x1="80.0557" y1="44.7994" x2="159.933" y2="44.7994" gradientUnits="userSpaceOnUse"><stop stop-color="#6F6F6F"/><stop offset="1" stop-color="#EDAE8F" stop-opacity="0"/></linearGradient><linearGradient id="paint1_linear_3647_698" x1="80.0557" y1="44.7994" x2="0.178246" y2="44.7994" gradientUnits="userSpaceOnUse"><stop stop-color="#6F6F6F"/><stop offset="1" stop-color="#EDAE8F" stop-opacity="0"/></linearGradient></defs></svg>