<svg width="220" height="234" viewBox="0 0 220 234" fill="none" xmlns="http://www.w3.org/2000/svg"><path d="M110.018 0 91.61 18.54l18.408 18.54 18.407-18.54L110.018 0z" fill="#828282"/><path d="M65.577 44.754 47.17 63.294l18.407 18.54 18.408-18.54-18.408-18.54z" fill="#828282"/><path d="m154.45 44.91-18.406 18.54 18.407 18.54 18.41-18.54-18.41-18.54z" fill="#828282"/><path d="M110.017 89.82 91.61 108.36l18.407 18.538 18.407-18.54-18.407-18.539z" fill="#828282"/><path d="M91.61 18.53H65.578v26.219H91.61v-26.22z" fill="#828282"/><path d="M91.61 82.132H65.578v26.22H91.61V82.13z" fill="#828282"/><path d="M154.458 81.98h-26.032v26.22h26.032V81.98z" fill="#828282"/><path d="M154.458 18.688h-26.032v26.219h26.032v-26.22z" fill="#828282"/><path d="M38.117 195.215h-.813L2.339 156.88v38.335h-2.34V152.17H4.73l31.049 34.717V152.17h2.337v43.045z" fill="#828282"/><path d="M90.26 195.215h-5.274l-6.581-16.537H64.379l-6.53 16.537h-2.609l17.24-43.43h.433l17.347 43.43zM71.34 160.99l-6.087 15.442h12.235L71.34 160.99z" fill="#828282"/><path d="M99.072 152.168h5.274l14.086 34.226 13.81-34.226h2.61l-17.565 43.43h-.434l-17.78-43.43z" fill="#828282"/><path d="M179.653 195.215h-5.274l-6.583-16.537H153.77l-6.526 16.537h-2.61l17.238-43.43h.434l17.347 43.43zm-18.92-34.226-6.088 15.442h12.236l-6.147-15.443z" fill="#828282"/><path d="M220 152.168v2.246h-14.737v40.8h-4.84v-40.8h-14.79v-2.246H220z" fill="#828282"/><path d="M39.744 218.47v3.765c0 1.536.332 2.66.989 3.363.657.704 1.64 1.057 2.953 1.057.452 0 .917-.025 1.399-.08.482-.048.856-.103 1.115-.15l.374-.08v-7.886h1.687v14.86h-1.686v-6.222c-.874.236-1.87.358-2.984.358-3.689 0-5.54-1.76-5.54-5.275v-3.72h1.694v.01z" fill="#828282"/><path d="M70.208 233.333h-1.82l-2.273-5.713h-4.84l-2.254 5.713h-.897l5.95-14.99h.15l5.985 14.99zm-6.534-11.82-2.103 5.33h4.226l-2.122-5.33z" fill="#828282"/><path d="m81.66 230.837 12.367-12.366h.374v14.862h-1.687v-12.34l-12.368 12.34h-.373v-14.86h1.687v12.365zm7.232-14.34c.507-.357.88-.812 1.115-1.37h-.675c-.199.34-.488.62-.856.83a2.31 2.31 0 0 1-1.175.323c-.8 0-1.41-.383-1.82-1.154h-1.127c.236.632.615 1.105 1.134 1.427a3.19 3.19 0 0 0 1.718.48c.62 0 1.18-.176 1.687-.535z" fill="#828282"/><path d="M116.117 218.47h1.073l-5.744 6.994 6.347 7.86h-2.104l-5.293-6.58-5.406 6.58h-1.09l5.95-7.24-6.1-7.62h2.042l5.106 6.332 5.22-6.325z" fill="#828282"/><path d="M138.252 233.333h-1.82l-2.273-5.713h-4.84l-2.255 5.713h-.898l5.95-14.99h.15l5.985 14.99zm-6.534-11.82-2.103 5.33h4.225l-2.122-5.33z" fill="#828282"/><path d="M158.352 218.47h1.67v14.862h-1.67v-7.03h-8.727v7.03h-1.67v-14.86h1.67v7.053h8.727v-7.054z" fill="#828282"/><path d="M181.943 233.333h-1.82l-2.272-5.713h-4.84l-2.254 5.713h-.898l5.95-14.99h.15l5.985 14.99zm-6.527-11.82-2.104 5.33h4.225l-2.12-5.33z" fill="#828282"/></svg>