<svg width="160" height="170" viewBox="0 0 160 170" fill="none" xmlns="http://www.w3.org/2000/svg"><path d="M80.012 0 66.625 13.483l13.387 13.483L93.4 13.483 80.011 0z" fill="#828282"/><path d="M47.692 32.549 34.305 46.03l13.387 13.483 13.387-13.483-13.388-13.484z" fill="#828282"/><path d="M112.328 32.662 98.94 46.145l13.388 13.484 13.387-13.485-13.387-13.483z" fill="#828282"/><path d="M80.012 65.323 66.624 78.806 80.012 92.29l13.387-13.484L80.01 65.323z" fill="#828282"/><path d="M66.625 13.476H47.692v19.068h18.933V13.476z" fill="#828282"/><path d="M66.625 59.732H47.692v19.069h18.933V59.732z" fill="#828282"/><path d="M112.333 59.622H93.4V78.69h18.933V59.622z" fill="#828282"/><path d="M112.333 13.59H93.4v19.07h18.933V13.59z" fill="#828282"/><path d="M27.721 141.975h-.59L1.7 114.095v27.88H0v-31.307h3.44l22.58 25.25v-25.25h1.701v31.307z" fill="#828282"/><path d="M65.643 141.974h-3.835l-4.787-12.026h-10.2l-4.747 12.026h-1.898l12.537-31.585h.315l12.616 31.584zm-13.76-24.89-4.427 11.23h8.898l-4.47-11.23z" fill="#828282"/><path d="M72.052 110.668h3.836l10.244 24.89 10.043-24.89h1.898L85.3 142.253h-.316l-12.932-31.585z" fill="#828282"/><path d="M130.656 141.974h-3.836l-4.786-12.026h-10.2l-4.748 12.026h-1.898l12.537-31.585h.315l12.616 31.584zm-13.76-24.89-4.427 11.23h8.897l-4.47-11.23z" fill="#828282"/><path d="M160 110.668v1.633H149.28v29.674h-3.52V112.3h-10.758v-1.632H160z" fill="#828282"/><path d="M28.905 158.888v2.738c0 1.117.24 1.933.719 2.445.477.514 1.192.77 2.147.77.33 0 .668-.018 1.019-.058.35-.035.62-.075.81-.11l.271-.057v-5.736H35.1v10.807H33.87v-4.525c-.634.172-1.358.26-2.169.26-2.681 0-4.027-1.28-4.027-3.836v-2.707h1.232v.008z" fill="#828282"/><path d="M51.06 169.696h-1.324l-1.652-4.154h-3.52l-1.64 4.154h-.653l4.328-10.9h.11l4.352 10.9zm-4.752-8.596-1.53 3.877h3.073L46.31 161.1z" fill="#828282"/><path d="m59.388 167.882 8.995-8.994h.272v10.808h-1.228v-8.976l-8.995 8.976h-.271v-10.808h1.228v8.994zm5.26-10.43c.368-.26.64-.59.811-.996h-.492c-.144.247-.355.45-.622.604a1.68 1.68 0 0 1-.855.234c-.582 0-1.025-.278-1.323-.838h-.82c.171.46.448.803.825 1.037.376.234.793.35 1.249.35.452 0 .86-.13 1.228-.39z" fill="#828282"/><path d="M84.449 158.888h.78l-4.179 5.086 4.617 5.717h-1.53l-3.848-4.785-3.933 4.786h-.794l4.327-5.266-4.436-5.54h1.486l3.712 4.604 3.797-4.6z" fill="#828282"/><path d="M100.546 169.696h-1.323l-1.653-4.154h-3.52l-1.64 4.154h-.653l4.327-10.9h.11l4.352 10.9zm-4.751-8.596-1.53 3.877h3.073l-1.543-3.877z" fill="#828282"/><path d="M115.165 158.888h1.214v10.808h-1.215v-5.113h-6.347v5.113h-1.214v-10.808h1.214v5.13h6.347v-5.13z" fill="#828282"/><path d="M132.322 169.696h-1.324l-1.653-4.154h-3.52l-1.64 4.154h-.652l4.326-10.9h.11l4.352 10.9zm-4.748-8.596-1.53 3.877h3.073l-1.543-3.877z" fill="#828282"/></svg>