<svg width="30" height="30" viewBox="0 0 30 30" fill="none" xmlns="http://www.w3.org/2000/svg">
<path d="M15 21.8737C16.7259 21.8737 18.1251 20.4746 18.1251 18.7487C18.1251 17.0228 16.7259 15.6237 15 15.6237C13.2741 15.6237 11.875 17.0228 11.875 18.7487C11.875 20.4746 13.2741 21.8737 15 21.8737Z" fill="white"/>
<path d="M0 6.24858V30H30V6.24858H0ZM23.75 19.8899L21.6815 20.2347C21.5067 21.0236 21.1949 21.7594 20.7738 22.4202L21.9943 24.1287L20.3802 25.7428L18.6716 24.5224C18.0109 24.9434 17.2751 25.2552 16.4861 25.43L16.1414 27.4986H13.8588L13.514 25.43C12.7251 25.2552 11.9893 24.9435 11.3285 24.5224L9.62001 25.7428L8.00592 24.1287L9.22639 22.4202C8.80529 21.7594 8.49342 21.0236 8.31867 20.2347L6.2501 19.8899V17.6073L8.31867 17.2626C8.49342 16.4736 8.80529 15.7378 9.22639 15.0771L8.00592 13.3685L9.62001 11.7545L11.3285 12.9749C11.9893 12.5539 12.7251 12.242 13.514 12.0673L13.8588 9.99864H16.1414L16.4861 12.0673C17.2751 12.242 18.0109 12.5538 18.6716 12.9749L20.3802 11.7545L21.9943 13.3685L20.7738 15.0771C21.1948 15.7378 21.5068 16.4736 21.6815 17.2626L23.75 17.6073V19.8899Z" fill="white"/>
<path d="M0 0V4.99858H30V0H0ZM3.12502 3.12355V1.87357H18.125V3.12355H3.12502ZM22.5 3.12355H21.2501V1.87357H22.5V3.12355ZM25 3.12355H23.75V1.87357H25V3.12355ZM27.5 3.12355H26.2501V1.87357H27.5V3.12355Z" fill="white"/>
</svg>
