<svg width="300" height="180" viewBox="0 0 300 180" fill="none" xmlns="http://www.w3.org/2000/svg">
<path fill-rule="evenodd" clip-rule="evenodd" d="M163.884 5.23437C168.866 8.28146 174.981 11.3995 177.476 12.1632C181.585 13.42 181.889 13.0804 180.707 8.54242C178.919 1.66537 183.859 1.89563 195.308 9.22169C204.737 15.2545 208.133 15.4425 202.68 9.62843C194.672 1.09735 201.79 1.47157 215.068 10.2809C224.359 16.4441 228.647 17.1809 222.885 11.624C221.59 10.3748 221.178 8.72845 221.968 7.96668C223.86 6.13996 236.334 12.5834 245.114 19.9229C248.954 23.1331 259.023 29.0027 267.486 32.9651C283.908 40.6557 290.881 47.4387 295.551 60.2699C299.784 71.9056 301.169 87.8453 298.957 99.4734C297.19 108.759 295.646 111.18 286.106 119.621C280.142 124.898 269.697 132.533 262.896 136.589L250.532 143.963L251.787 137.907C252.893 132.575 252.589 131.988 249.256 133.009C247.173 133.646 244.855 133.21 244.105 132.042C243.355 130.871 241.513 130.368 240.011 130.923C238.509 131.479 236.442 130.487 235.417 128.72C234.098 126.448 231.203 125.598 225.531 125.817C205.511 126.586 194.956 139.682 190.319 169.503L188.948 178.324L177.94 177.754C167.069 177.193 166.896 177.09 164.214 169.591C162.718 165.414 161.441 154.837 161.375 146.085L161.254 130.175L114.164 130.192L67.0717 130.211L56.8316 135.875C42.2544 143.938 35.6273 153.528 31.4195 172.64C30.739 175.737 28.5705 178.135 25.811 178.849C19.2356 180.549 6.78716 180.317 5.60539 178.473C3.83869 175.716 0.38687 151.917 0.0506403 140.183C-0.215956 130.837 0.486349 128.194 4.1789 124.633C9.84109 119.172 15.2685 106.978 18.2946 92.9129C21.1316 79.7364 19.9857 76.9676 16.4383 88.4287C13.0243 99.46 4.49722 113.189 1.98843 111.692C-0.637739 110.127 1.64027 84.0058 5.47806 71.7081C9.62622 58.4164 15.4874 50.3285 27.1042 41.8685C42.6304 30.5647 67.0976 21.4138 98.7469 15.0759C107.511 13.3221 110.573 11.8236 111.364 8.89927C112.258 5.60849 113.469 5.22662 119.585 6.30692C140.778 10.0544 141.08 10.0352 144.693 4.71813C149.056 -1.70416 152.699 -1.60622 163.884 5.23437ZM253.154 47.5808C246.73 56.2826 244.67 63.5089 246.96 69.3172C249.535 75.8488 259.367 80.6574 268.63 79.9148C274.875 79.414 275.972 78.6407 275.972 74.7379C275.972 70.0924 274.754 69.0524 264.035 64.5412C259.463 62.6166 257.921 60.5942 257.449 55.895C257.111 52.5218 257.813 47.9953 259.011 45.8347C262.375 39.7731 257.943 41.0952 253.154 47.5808ZM214.454 86.9646C217.728 91.7828 217.71 104.322 214.422 111.466C213.359 113.772 213.745 114.824 215.653 114.824C217.179 114.824 221.914 116.537 226.174 118.633C236.068 123.497 237.25 122.275 229.695 114.989C224.457 109.937 223.838 108.21 224.674 100.991C225.422 94.5209 224.702 91.6273 221.309 87.4807C215.576 80.4732 209.746 80.0338 214.454 86.9646ZM91.4951 144.086C82.4249 154.816 80.7775 158.149 79.1262 169.123L77.7415 178.329L66.5723 177.757C56.187 177.226 55.2997 176.804 53.903 171.74C53.0774 168.747 52.1204 161.839 51.7783 156.389L51.1555 146.484L61.9567 141.208C70.4161 137.076 75.5391 135.931 85.5743 135.931H98.3888L91.4951 144.086Z" fill="#6F6F6F"/>
</svg>
