<svg width="220" height="133" viewBox="0 0 220 133" fill="none" xmlns="http://www.w3.org/2000/svg"><path fill-rule="evenodd" clip-rule="evenodd" d="M120.182 4.171c3.653 2.236 8.138 4.522 9.967 5.082 3.012.922 3.235.673 2.37-2.655-1.313-5.043 2.31-4.874 10.706.498 6.914 4.424 9.405 4.562 5.406.298-5.873-6.256-.652-5.981 9.085.479 6.813 4.52 9.957 5.06 5.732.985-.95-.916-1.253-2.124-.673-2.682 1.387-1.34 10.535 3.385 16.973 8.768 2.816 2.354 10.2 6.658 16.407 9.564 12.042 5.64 17.156 10.614 20.58 20.023 3.105 8.533 4.12 20.222 2.498 28.75-1.296 6.809-2.428 8.585-9.424 14.775-4.373 3.87-12.032 9.468-17.02 12.443l-9.067 5.407.92-4.44c.812-3.91.59-4.341-1.855-3.593-1.528.467-3.227.148-3.777-.71-.55-.857-1.9-1.226-3.002-.82-1.1.409-2.617-.319-3.37-1.615-.966-1.666-3.09-2.29-7.248-2.129-14.682.564-22.422 10.168-25.823 32.036l-1.005 6.47-8.073-.42c-7.973-.41-8.1-.486-10.066-5.985-1.097-3.064-2.034-10.82-2.082-17.238l-.09-11.668-34.532.012-34.534.015-7.51 4.154c-10.69 5.913-15.55 12.946-18.635 26.96-.498 2.272-2.088 4.03-4.112 4.555-4.822 1.245-13.95 1.075-14.817-.277-1.295-2.022-3.826-19.475-4.073-28.08-.195-6.854.32-8.791 3.028-11.403 4.152-4.005 8.132-12.947 10.35-23.261 2.082-9.664 1.241-11.695-1.36-3.29C9.55 73.27 3.298 83.338 1.458 82.24c-1.926-1.148-.255-20.303 2.56-29.322 3.041-9.747 7.34-15.678 15.858-21.882 11.386-8.29 29.329-15 52.538-19.648 6.427-1.286 8.673-2.385 9.253-4.53.655-2.413 1.544-2.693 6.029-1.9 15.54 2.748 15.763 2.734 18.412-1.166 3.2-4.71 5.87-4.637 14.074.38zm65.464 31.055c-4.71 6.381-6.22 11.68-4.542 15.94 1.888 4.79 9.1 8.316 15.892 7.772 4.58-.368 5.383-.935 5.383-3.797 0-3.406-.894-4.17-8.755-7.477-3.352-1.412-4.483-2.895-4.83-6.34-.247-2.475.268-5.794 1.146-7.378 2.47-4.445-.782-3.476-4.294 1.28zm-28.38 28.882c2.4 3.533 2.388 12.729-.023 17.967-.78 1.692-.496 2.463.903 2.463 1.12 0 4.59 1.256 7.715 2.793 7.256 3.567 8.123 2.67 2.583-2.672-3.84-3.705-4.295-4.972-3.682-10.265.55-4.745.02-6.867-2.466-9.908-4.205-5.139-8.48-5.46-5.028-.378zm-90.17 41.89c-6.651 7.867-7.86 10.31-9.07 18.36l-1.015 6.75-8.19-.42c-7.616-.39-8.267-.698-9.291-4.412-.607-2.195-1.308-7.26-1.56-11.257l-.456-7.264 7.92-3.87c6.205-3.03 9.961-3.87 17.32-3.87h9.398l-5.056 5.982z" fill="#6F6F6F"/></svg>