<svg width="160" height="97" viewBox="0 0 160 97" fill="none" xmlns="http://www.w3.org/2000/svg"><path fill-rule="evenodd" clip-rule="evenodd" d="M87.405 3.488c2.657 1.625 5.918 3.288 7.25 3.695 2.19.67 2.353.49 1.722-1.93-.954-3.668 1.68-3.546 7.787.362 5.03 3.217 6.84 3.317 3.932.217-4.27-4.55-.475-4.35 6.607.348 4.955 3.287 7.242 3.68 4.17.716-.692-.666-.91-1.544-.49-1.95 1.01-.975 7.662 2.462 12.345 6.376 2.047 1.712 7.418 4.842 11.93 6.956 8.76 4.101 12.48 7.72 14.97 14.562 2.257 6.206 2.995 14.707 1.816 20.909-.943 4.95-1.766 6.243-6.854 10.744-3.18 2.814-8.752 6.887-12.38 9.05l-6.593 3.933.67-3.23c.59-2.844.427-3.157-1.35-2.613-1.11.34-2.347.108-2.747-.515-.4-.626-1.383-.894-2.184-.598-.8.297-1.904-.232-2.45-1.175-.704-1.212-2.248-1.665-5.273-1.548-10.677.41-16.306 7.394-18.78 23.298l-.73 4.704-5.872-.304c-5.797-.299-5.889-.354-7.32-4.353-.797-2.228-1.478-7.869-1.513-12.536l-.065-8.487-25.115.01-25.115.01-5.462 3.02c-7.774 4.3-11.309 9.415-13.553 19.608-.363 1.653-1.52 2.932-2.991 3.313-3.507.906-10.146.783-10.776-.2C2.047 94.41.206 81.718.027 75.46c-.142-4.984.232-6.393 2.202-8.293 3.019-2.912 5.913-9.416 7.527-16.917 1.513-7.028.902-8.504-.99-2.392C6.947 53.742 2.4 61.064 1.06 60.266-.34 59.43.876 45.5 2.923 38.94c2.212-7.088 5.338-11.402 11.534-15.914 8.28-6.028 21.33-10.909 38.21-14.29 4.673-.934 6.306-1.734 6.728-3.293.477-1.755 1.123-1.96 4.385-1.383C75.08 6.06 75.242 6.05 77.169 3.213c2.326-3.425 4.27-3.373 10.235.275zm47.61 22.585c-3.426 4.64-4.524 8.495-3.303 11.593 1.373 3.483 6.617 6.048 11.557 5.652 3.33-.267 3.915-.68 3.915-2.761 0-2.478-.65-3.033-6.367-5.439-2.438-1.026-3.26-2.105-3.512-4.61-.18-1.8.194-4.214.833-5.366 1.793-3.233-.57-2.528-3.125.93zm-20.64 21.004c1.747 2.57 1.737 9.258-.017 13.068-.566 1.23-.36 1.79.657 1.79.814 0 3.34.915 5.61 2.032 5.278 2.595 5.908 1.943 1.88-1.943-2.795-2.695-3.125-3.616-2.68-7.466.4-3.45.016-4.994-1.793-7.205-3.058-3.738-6.167-3.972-3.657-.276zM48.797 77.542c-4.837 5.723-5.716 7.5-6.596 13.353l-.738 4.91-5.957-.305c-5.539-.283-6.012-.508-6.757-3.209-.44-1.595-.95-5.28-1.133-8.186l-.332-5.282 5.76-2.815c4.512-2.203 7.244-2.814 12.597-2.814h6.834l-3.677 4.35z" fill="#6F6F6F"/></svg>