<svg width="70" height="70" viewBox="0 0 70 70" fill="none" xmlns="http://www.w3.org/2000/svg">
<rect width="70" height="70" fill="#1E1E1E" style="fill:#1E1E1E;fill:color(display-p3 0.1176 0.1176 0.1176);fill-opacity:1;"/>
<g clip-path="url(#clip0_773_1678)">
<path d="M35 35.3889C35 33.4292 35.7785 31.5498 37.1642 30.1642C38.5498 28.7785 40.4292 28 42.3889 28C44.3485 28 46.2279 28.7785 47.6136 30.1642C48.9993 31.5498 49.7778 33.4292 49.7778 35.3889C49.7778 37.3485 48.9993 39.2279 47.6136 40.6136C46.2279 41.9993 44.3485 42.7778 42.3889 42.7778C40.4292 42.7778 38.5498 41.9993 37.1642 40.6136C35.7785 39.2279 35 37.3485 35 35.3889Z" fill="#1ABCFE" style="fill:#1ABCFE;fill:color(display-p3 0.1020 0.7373 0.9961);fill-opacity:1;"/>
<path d="M20.2227 50.1662C20.2227 48.2066 21.0011 46.3272 22.3868 44.9415C23.7725 43.5558 25.6519 42.7773 27.6115 42.7773H35.0004V50.1662C35.0004 52.1259 34.222 54.0053 32.8363 55.391C31.4506 56.7767 29.5712 57.5551 27.6115 57.5551C25.6519 57.5551 23.7725 56.7767 22.3868 55.391C21.0011 54.0053 20.2227 52.1259 20.2227 50.1662V50.1662Z" fill="#0ACF83" style="fill:#0ACF83;fill:color(display-p3 0.0392 0.8118 0.5137);fill-opacity:1;"/>
<path d="M35 13.2227V28.0004H42.3889C44.3485 28.0004 46.2279 27.222 47.6136 25.8363C48.9993 24.4506 49.7778 22.5712 49.7778 20.6115C49.7778 18.6519 48.9993 16.7725 47.6136 15.3868C46.2279 14.0011 44.3485 13.2227 42.3889 13.2227H35Z" fill="#FF7262" style="fill:#FF7262;fill:color(display-p3 1.0000 0.4471 0.3843);fill-opacity:1;"/>
<path d="M20.2227 20.6115C20.2227 22.5712 21.0011 24.4506 22.3868 25.8363C23.7725 27.222 25.6519 28.0004 27.6115 28.0004H35.0004V13.2227H27.6115C25.6519 13.2227 23.7725 14.0011 22.3868 15.3868C21.0011 16.7725 20.2227 18.6519 20.2227 20.6115V20.6115Z" fill="#F24E1E" style="fill:#F24E1E;fill:color(display-p3 0.9490 0.3059 0.1176);fill-opacity:1;"/>
<path d="M20.2227 35.3889C20.2227 37.3485 21.0011 39.2279 22.3868 40.6136C23.7725 41.9993 25.6519 42.7778 27.6115 42.7778H35.0004V28H27.6115C25.6519 28 23.7725 28.7785 22.3868 30.1642C21.0011 31.5498 20.2227 33.4292 20.2227 35.3889V35.3889Z" fill="#A259FF" style="fill:#A259FF;fill:color(display-p3 0.6353 0.3490 1.0000);fill-opacity:1;"/>
</g>
<defs>
<clipPath id="clip0_773_1678">
<rect width="29.5556" height="44.3333" fill="white" style="fill:white;fill-opacity:1;" transform="translate(20.2227 13.2227)"/>
</clipPath>
</defs>
</svg>
