<svg width="70" height="71" viewBox="0 0 70 71" fill="none" xmlns="http://www.w3.org/2000/svg">
<path d="M0.957031 1.90601H69.1802V68.3519H0.957031V1.90601Z" fill="#FFAA2B" style="fill:#FFAA2B;fill:color(display-p3 1.0000 0.6667 0.1686);fill-opacity:1;"/>
<path d="M6.15234 7.24219H63.8459V63.0192H6.15234V7.24219Z" fill="#3B3323" style="fill:#3B3323;fill:color(display-p3 0.2314 0.2000 0.1373);fill-opacity:1;"/>
<path opacity="0.302" d="M49.7645 20.4999C49.9008 20.5906 45.9364 24.7381 45.9364 24.7381L51.0479 28.7653L46.3466 32.2577L34.5888 20.91L28.9833 22.2772L25.4286 33.6249L19.0028 49.0741L38.6903 63.0194H63.8466V31.8475C63.8466 31.8475 49.6282 20.4091 49.7645 20.4999ZM6.15234 7.23828H63.8459V9.15207H6.15234V7.23828Z" fill="black" style="fill:black;fill-opacity:1;"/>
<path d="M26.7972 41.084L24.3747 49.0615H19.0703L28.092 20.9106H34.6494L43.7964 49.0615H38.2831L35.7354 41.084H26.7972ZM34.8583 37.1997L32.6447 30.2664C32.1018 28.554 31.6423 26.6327 31.2246 25.0037H31.1411C30.7234 26.6327 30.3057 28.5956 29.8045 30.2664L27.6326 37.1997H34.8583ZM51.3139 23.0405C51.3139 24.5859 50.1863 25.7972 48.3902 25.7972C46.6778 25.7972 45.5501 24.586 45.5501 23.0405C45.5501 21.4534 46.7196 20.2422 48.432 20.2422C50.1863 20.2422 51.2721 21.4534 51.3139 23.0405ZM45.8426 49.0614V28.7208H51.0216V49.0614H45.8426Z" fill="#FFAA2B" style="fill:#FFAA2B;fill:color(display-p3 1.0000 0.6667 0.1686);fill-opacity:1;"/>
</svg>
