<svg width="70" height="69" viewBox="0 0 70 69" fill="none" xmlns="http://www.w3.org/2000/svg">
<g clip-path="url(#clip0_773_1689)">
<path d="M2.91797 2.92188H67.0848V65.3387H2.91797V2.92188Z" fill="url(#paint0_radial_773_1689)" style=""/>
<path d="M2.91663 2.92444H67.0835V65.3413H2.91663V2.92444ZM0 68.258H70.0001V0.0078125H0V68.258ZM47.1918 28.0079C44.8875 28.0079 44.1001 29.1745 44.1001 30.137C44.1001 31.187 44.6251 31.9161 47.7168 33.5203C52.2959 35.7371 53.7252 37.8662 53.7252 40.9871C53.7252 45.6537 50.1668 48.1621 45.3543 48.1621C42.8167 48.1621 40.6292 47.637 39.3751 46.9079C39.1709 46.8204 39.1418 46.6746 39.1418 46.4412V42.1537C39.1418 41.8621 39.2876 41.7745 39.4918 41.9204C41.3293 43.1163 43.4293 43.6412 45.3543 43.6412C47.6585 43.6412 48.621 42.6787 48.621 41.3662C48.621 40.3162 47.9501 39.3829 45.0042 37.8662C40.8625 35.8829 39.1418 33.8704 39.1418 30.5162C39.1418 26.7536 42.0877 23.6329 47.1918 23.6329C49.7001 23.6329 51.4501 24.0121 52.4126 24.4495C52.6459 24.5953 52.7042 24.8286 52.7042 25.0328V29.0286C52.7042 29.2619 52.5584 29.4078 52.2667 29.3202C50.9834 28.5037 49.0876 28.0079 47.1918 28.0079ZM22.1083 31.4787C22.7792 31.537 23.3042 31.537 24.4709 31.537C27.8835 31.537 31.0918 30.3412 31.0918 25.7038C31.0918 21.9996 28.7876 20.1328 24.9084 20.1328C23.7418 20.1328 22.6334 20.1912 22.1083 20.2203V31.4787ZM16.9168 15.9911C16.9168 15.787 17.3252 15.6411 17.5584 15.6411C19.4251 15.5536 22.1959 15.4953 25.0834 15.4953C33.1626 15.4953 36.3125 19.9286 36.3125 25.587C36.3125 32.9953 30.9458 36.1745 24.3542 36.1745C23.2459 36.1745 22.8668 36.1162 22.0792 36.1162V47.3162C22.0792 47.5495 21.9917 47.6662 21.7292 47.6662H17.2667C17.0334 47.6662 16.9167 47.5787 16.9167 47.3162V15.9911H16.9168Z" fill="#31C5F0" style="fill:#31C5F0;fill:color(display-p3 0.1922 0.7725 0.9412);fill-opacity:1;"/>
</g>
<defs>
<radialGradient id="paint0_radial_773_1689" cx="0" cy="0" r="1" gradientUnits="userSpaceOnUse" gradientTransform="translate(24.0514 16.9095) scale(48.7668 47.2151)">
<stop stop-color="#34364E" stop-opacity="0.98" style="stop-color:#34364E;stop-color:color(display-p3 0.2039 0.2118 0.3059);stop-opacity:0.98;"/>
<stop offset="1" stop-color="#0C0824" style="stop-color:#0C0824;stop-color:color(display-p3 0.0471 0.0314 0.1412);stop-opacity:1;"/>
</radialGradient>
<clipPath id="clip0_773_1689">
<rect width="70" height="68.264" fill="white" style="fill:white;fill-opacity:1;"/>
</clipPath>
</defs>
</svg>
