<svg width="200" height="200" viewBox="0 0 200 200" fill="none" xmlns="http://www.w3.org/2000/svg">
<rect width="200" height="200" rx="10" fill="white"/>
<path d="M30 30V53.3267H170V30H30ZM44.5834 44.5766V38.7433H114.584V44.5766H44.5834ZM135 44.5766H129.167V38.7433H135V44.5766ZM146.667 44.5766H140.833V38.7433H146.667V44.5766ZM158.334 44.5766H152.5V38.7433H158.334V44.5766Z" fill="#0B0B0B"/>
<path d="M30 59.1599V170H170V59.1599H30ZM78.7289 127.097L74.6049 131.222L52.1259 108.743L74.6049 86.2641L78.7289 90.3884L60.3745 108.743L78.7289 127.097ZM88.1168 144.847L82.7164 142.639L108.966 78.4728L114.367 80.6803L88.1168 144.847ZM125.395 131.222L121.271 127.098L139.626 108.743L121.271 90.3887L125.395 86.2644L147.874 108.743L125.395 131.222Z" fill="#0B0B0B"/>
</svg>
