<svg width="200" height="200" viewBox="0 0 200 200" fill="none" xmlns="http://www.w3.org/2000/svg">
<rect width="200" height="200" rx="10" fill="white"/>
<path d="M48.261 95.116H30V114.651H48.261V95.116Z" fill="#0B0B0B"/>
<path d="M170 95.116H151.739V114.651H170V95.116Z" fill="#0B0B0B"/>
<path d="M90.8696 30V49.5347H109.13V30H90.8696Z" fill="#0B0B0B"/>
<path d="M100 113.023C97.4828 113.023 95.4348 115.214 95.4348 117.907C95.4348 120.6 97.4828 122.791 100 122.791C102.517 122.791 104.565 120.6 104.565 117.907C104.565 115.214 102.517 113.023 100 113.023Z" fill="#0B0B0B"/>
<path d="M115.64 81.873C112.384 73.7546 109.635 65.5706 107.669 59.302H104.565V104.096C109.879 106.112 113.696 111.54 113.696 117.907C113.696 125.985 107.552 132.558 100 132.558C92.448 132.558 86.3044 125.985 86.3044 117.907C86.3044 111.54 90.1213 106.112 95.4347 104.096V59.3023H92.3312C90.3731 65.5469 87.6363 73.6955 84.3909 81.7969C75.1673 104.82 67.5403 113.023 63.4781 113.023V122.791C70.4961 122.791 80.2171 131.276 80.2171 147.209H119.782C119.782 131.276 129.504 122.791 136.521 122.791V113.023C132.466 113.023 124.85 104.84 115.64 81.873Z" fill="#0B0B0B"/>
<path d="M127.391 156.977H72.6087V170H127.391V156.977Z" fill="#0B0B0B"/>
<path d="M41.6219 34.8835C40.5495 33.8734 39.1467 33.2557 37.6087 33.2557C34.2522 33.2557 31.5217 36.1767 31.5217 39.7673C31.5217 43.3565 34.2517 46.2775 37.607 46.279H37.6087C39.1038 46.279 40.5134 45.7001 41.6252 44.6511H66.6097C61.9659 47.6079 57.6448 51.1988 53.7308 55.3858C45.8246 63.843 40.1831 74.074 37.143 85.3487H46.7393C52.3811 67.8975 65.4266 53.9475 81.739 47.9121V34.8835H41.6219Z" fill="#0B0B0B"/>
<path d="M162.39 46.279H162.391C164.017 46.279 165.546 45.6018 166.696 44.3721C167.846 43.1418 168.479 41.5057 168.478 39.7673C168.478 36.1767 165.748 33.2557 162.391 33.2557C160.854 33.2557 159.451 33.8737 158.379 34.8835H118.261V47.9124C134.574 53.9481 147.619 67.8975 153.261 85.3487H162.857C159.817 74.0734 154.175 63.843 146.269 55.3858C142.355 51.1988 138.034 47.6076 133.39 44.6511H158.379C159.451 45.6603 160.853 46.2784 162.39 46.279Z" fill="#0B0B0B"/>
</svg>
