<svg width="200" height="200" viewBox="0 0 200 200" fill="none" xmlns="http://www.w3.org/2000/svg">
<rect width="200" height="200" rx="10" fill="white"/>
<path d="M70.8346 99.853C70.8346 115.969 83.9187 129.081 100.001 129.081C116.083 129.081 129.167 115.969 129.167 99.853C129.167 83.7368 116.083 70.6252 100.001 70.6252C83.9184 70.6252 70.8346 83.7368 70.8346 99.853Z" fill="#0B0B0B"/>
<path d="M59.1664 99.8541C59.1664 79.2486 74.4611 62.1972 94.2591 59.3853C94.2474 59.2275 94.1659 59.093 94.1659 58.9351V30C58.2914 32.987 30 63.15 30 99.8541C30 115.596 35.2674 130.099 44.0405 141.819L64.9995 120.816C61.3246 114.678 59.1664 107.518 59.1664 99.8541Z" fill="#0B0B0B"/>
<path d="M105.834 30.0047V58.9343C105.834 59.0921 105.758 59.2324 105.741 59.3903C125.539 62.2019 140.834 79.2475 140.834 99.853C140.834 107.908 138.465 115.408 134.44 121.744C135.525 121.967 136.575 122.393 137.415 123.235L155.959 141.818C164.733 130.098 170 115.601 170 99.853C170 63.1489 141.709 32.9916 105.834 30.0047Z" fill="#0B0B0B"/>
<path d="M127.925 129.625C120.615 136.517 110.804 140.772 100.001 140.772C89.3551 140.772 79.6835 136.634 72.4093 129.923L51.7946 150.581C64.3594 162.582 81.3167 170 100.001 170C118.685 170 135.642 162.582 148.207 150.581L129.167 131.501C128.613 130.946 128.21 130.303 127.925 129.625Z" fill="#0B0B0B"/>
</svg>
