<svg width="25" height="25" viewBox="0 0 25 25" fill="none" xmlns="http://www.w3.org/2000/svg">
    <linearGradient id="g1" gradientUnits="userSpaceOnUse" x1="10.9111" y1="0.0449" x2="12.9916" y2="23.8254">
        <stop offset="0" style="stop-color:#FCB040" />
        <stop offset="1" style="stop-color:#FF2BFF" />
    </linearGradient>
<path d="M5.81936 8.03291H0.800564C0.577823 8.03291 0.397339 8.21388 0.397339 8.43703V24.5958C0.397339 24.819 0.577823 24.9999 0.800564 24.9999H5.81936C6.0421 24.9999 6.22258 24.819 6.22258 24.5958V8.43703C6.22258 8.21388 6.0421 8.03291 5.81936 8.03291Z" fill="white"/>
<path d="M3.31177 0C1.48565 0 0 1.4873 0 3.31544C0 5.14438 1.48565 6.63225 3.31177 6.63225C5.13645 6.63225 6.62089 5.1443 6.62089 3.31544C6.62097 1.4873 5.13645 0 3.31177 0Z" fill="white"/>
<path d="M18.585 7.63131C16.5693 7.63131 15.0792 8.49975 14.1754 9.48652V8.43703C14.1754 8.21388 13.9949 8.03291 13.7722 8.03291H8.96581C8.74306 8.03291 8.56258 8.21388 8.56258 8.43703V24.5958C8.56258 24.819 8.74306 24.9999 8.96581 24.9999H13.9736C14.1964 24.9999 14.3769 24.819 14.3769 24.5958V16.601C14.3769 13.9069 15.107 12.8573 16.9809 12.8573C19.0217 12.8573 19.1839 14.5399 19.1839 16.7396V24.5959C19.1839 24.8191 19.3644 25 19.5871 25H24.5968C24.8195 25 25 24.8191 25 24.5959V15.7325C25 11.7265 24.2378 7.63131 18.585 7.63131Z" fill="white"/>
</svg>
