<svg width="30" height="30" viewBox="0 0 30 30" fill="none" xmlns="http://www.w3.org/2000/svg">
<path d="M0 0V4.99858H30V0H0ZM3.12502 3.12355V1.87357H18.125V3.12355H3.12502ZM22.5 3.12355H21.2501V1.87357H22.5V3.12355ZM25 3.12355H23.75V1.87357H25V3.12355ZM27.5 3.12355H26.2501V1.87357H27.5V3.12355Z" fill="white"/>
<path d="M0 6.24858V30H30V6.24858H0ZM10.4419 20.8066L9.55818 21.6904L4.74126 16.8735L9.55818 12.0566L10.4419 12.9404L6.50883 16.8735L10.4419 20.8066ZM12.4536 24.61L11.2964 24.137L16.9213 10.3871L18.0786 10.8601L12.4536 24.61ZM20.4419 21.6904L19.5582 20.8066L23.4912 16.8736L19.5582 12.9405L20.4419 12.0567L25.2588 16.8736L20.4419 21.6904Z" fill="white"/>
</svg>
