<svg width="30" height="30" viewBox="0 0 30 30" fill="none" xmlns="http://www.w3.org/2000/svg">
<path fill-rule="evenodd" clip-rule="evenodd" d="M0 4.99453V0H29.9756V4.99453H0ZM3.1225 3.12102H18.1102L18.1103 1.87203H3.1225V3.12102ZM21.2327 3.12102H22.4817V1.87203H21.2327V3.12102ZM23.7307 3.12102H24.9796V1.87203H23.7307V3.12102ZM26.2287 3.12102H27.4777V1.87203H26.2287V3.12102Z" fill="white"/>
<path d="M19.9177 11.0681L21.2048 9.78094L23.3673 11.9434L22.0801 13.2305L19.9177 11.0681Z" fill="white"/>
<path d="M9.11987 26.1909L6.45652 26.6917L6.95736 24.0284L17.7644 13.2213L19.927 15.3838L9.11987 26.1909Z" fill="white"/>
<path fill-rule="evenodd" clip-rule="evenodd" d="M0 6.21564H30V30H0V6.21564ZM18.5722 11.0681L21.2048 8.43552L24.7127 11.9434L22.0801 14.576L18.5722 11.0681ZM5.26427 27.8839L6.07665 23.5637L17.7644 11.8758L21.2724 15.3838L9.58466 27.0716L5.26427 27.8839Z" fill="white"/>
</svg>
